<?xml version="1.0" encoding="UTF-8" standalone="no"?>
<!-- Created with Inkscape (http://www.inkscape.org/) -->

<svg
   xmlns:dc="http://purl.org/dc/elements/1.1/"
   xmlns:cc="http://creativecommons.org/ns#"
   xmlns:rdf="http://www.w3.org/1999/02/22-rdf-syntax-ns#"
   xmlns:svg="http://www.w3.org/2000/svg"
   xmlns="http://www.w3.org/2000/svg"
   xmlns:sodipodi="http://sodipodi.sourceforge.net/DTD/sodipodi-0.dtd"
   xmlns:inkscape="http://www.inkscape.org/namespaces/inkscape"
   version="1.1"
   id="svg2"
   xml:space="preserve"
   width="1200"
   height="550"
   viewBox="0 0 1200 550"
   sodipodi:docname="invisible_content.svg"
   inkscape:version="0.92.1 r15371"><metadata
     id="metadata8"><rdf:RDF><cc:Work
         rdf:about=""><dc:format>image/svg+xml</dc:format><dc:type
           rdf:resource="http://purl.org/dc/dcmitype/StillImage" /><dc:title></dc:title></cc:Work></rdf:RDF></metadata><defs
     id="defs6"><clipPath
       clipPathUnits="userSpaceOnUse"
       id="clipPath18"><path
         d="M 0,1.2207e-4 H 960 V 540.00012 H 0 Z"
         id="path16"
         inkscape:connector-curvature="0"
         style="clip-rule:evenodd" /></clipPath><clipPath
       clipPathUnits="userSpaceOnUse"
       id="clipPath28"><path
         d="M 0,1.8311e-4 H 960 V 540.00018 H 0 Z"
         id="path26"
         inkscape:connector-curvature="0"
         style="clip-rule:evenodd" /></clipPath><clipPath
       clipPathUnits="userSpaceOnUse"
       id="clipPath38"><path
         d="M 0,1.8311e-4 H 960 V 540.00018 H 0 Z"
         id="path36"
         inkscape:connector-curvature="0"
         style="clip-rule:evenodd" /></clipPath><clipPath
       clipPathUnits="userSpaceOnUse"
       id="clipPath50"><path
         d="M 1.4305e-5,0 H 960.00001 V 540 H 1.4305e-5 Z"
         id="path48"
         inkscape:connector-curvature="0"
         style="clip-rule:evenodd" /></clipPath><clipPath
       clipPathUnits="userSpaceOnUse"
       id="clipPath62"><path
         d="M 1.4305e-5,0 H 960.00001 V 540 H 1.4305e-5 Z"
         id="path60"
         inkscape:connector-curvature="0"
         style="clip-rule:evenodd" /></clipPath><clipPath
       clipPathUnits="userSpaceOnUse"
       id="clipPath74"><path
         d="M 1.4305e-5,0 H 960.00001 V 540 H 1.4305e-5 Z"
         id="path72"
         inkscape:connector-curvature="0"
         style="clip-rule:evenodd" /></clipPath><clipPath
       clipPathUnits="userSpaceOnUse"
       id="clipPath86"><path
         d="M 1.4305e-5,0 H 960.00001 V 540 H 1.4305e-5 Z"
         id="path84"
         inkscape:connector-curvature="0"
         style="clip-rule:evenodd" /></clipPath><clipPath
       clipPathUnits="userSpaceOnUse"
       id="clipPath98"><path
         d="M 1.4305e-5,0 H 960.00001 V 540 H 1.4305e-5 Z"
         id="path96"
         inkscape:connector-curvature="0"
         style="clip-rule:evenodd" /></clipPath><clipPath
       clipPathUnits="userSpaceOnUse"
       id="clipPath110"><path
         d="M 1.4305e-5,0 H 960.00001 V 540 H 1.4305e-5 Z"
         id="path108"
         inkscape:connector-curvature="0"
         style="clip-rule:evenodd" /></clipPath><clipPath
       clipPathUnits="userSpaceOnUse"
       id="clipPath122"><path
         d="M 1.4305e-5,0 H 960.00001 V 540 H 1.4305e-5 Z"
         id="path120"
         inkscape:connector-curvature="0"
         style="clip-rule:evenodd" /></clipPath><clipPath
       clipPathUnits="userSpaceOnUse"
       id="clipPath134"><path
         d="M 1.4305e-5,0 H 960.00001 V 540 H 1.4305e-5 Z"
         id="path132"
         inkscape:connector-curvature="0"
         style="clip-rule:evenodd" /></clipPath><clipPath
       clipPathUnits="userSpaceOnUse"
       id="clipPath146"><path
         d="M 1.4305e-5,0 H 960.00001 V 540 H 1.4305e-5 Z"
         id="path144"
         inkscape:connector-curvature="0"
         style="clip-rule:evenodd" /></clipPath><clipPath
       clipPathUnits="userSpaceOnUse"
       id="clipPath158"><path
         d="M 1.4305e-5,0 H 960.00001 V 540 H 1.4305e-5 Z"
         id="path156"
         inkscape:connector-curvature="0"
         style="clip-rule:evenodd" /></clipPath><clipPath
       clipPathUnits="userSpaceOnUse"
       id="clipPath170"><path
         d="M 1.4305e-5,0 H 960.00001 V 540 H 1.4305e-5 Z"
         id="path168"
         inkscape:connector-curvature="0"
         style="clip-rule:evenodd" /></clipPath><clipPath
       clipPathUnits="userSpaceOnUse"
       id="clipPath182"><path
         d="M 1.4305e-5,0 H 960.00001 V 540 H 1.4305e-5 Z"
         id="path180"
         inkscape:connector-curvature="0"
         style="clip-rule:evenodd" /></clipPath><clipPath
       clipPathUnits="userSpaceOnUse"
       id="clipPath194"><path
         d="M 1.4305e-5,0 H 960.00001 V 540 H 1.4305e-5 Z"
         id="path192"
         inkscape:connector-curvature="0"
         style="clip-rule:evenodd" /></clipPath><clipPath
       clipPathUnits="userSpaceOnUse"
       id="clipPath206"><path
         d="M 1.4305e-5,0 H 960.00001 V 540 H 1.4305e-5 Z"
         id="path204"
         inkscape:connector-curvature="0"
         style="clip-rule:evenodd" /></clipPath><clipPath
       clipPathUnits="userSpaceOnUse"
       id="clipPath218"><path
         d="M 1.4305e-5,0 H 960.00001 V 540 H 1.4305e-5 Z"
         id="path216"
         inkscape:connector-curvature="0"
         style="clip-rule:evenodd" /></clipPath><clipPath
       clipPathUnits="userSpaceOnUse"
       id="clipPath230"><path
         d="M 1.4305e-5,0 H 960.00001 V 540 H 1.4305e-5 Z"
         id="path228"
         inkscape:connector-curvature="0"
         style="clip-rule:evenodd" /></clipPath><clipPath
       clipPathUnits="userSpaceOnUse"
       id="clipPath242"><path
         d="M 1.4305e-5,0 H 960.00001 V 540 H 1.4305e-5 Z"
         id="path240"
         inkscape:connector-curvature="0"
         style="clip-rule:evenodd" /></clipPath><clipPath
       clipPathUnits="userSpaceOnUse"
       id="clipPath254"><path
         d="M 1.4305e-5,0 H 960.00001 V 540 H 1.4305e-5 Z"
         id="path252"
         inkscape:connector-curvature="0"
         style="clip-rule:evenodd" /></clipPath><clipPath
       clipPathUnits="userSpaceOnUse"
       id="clipPath266"><path
         d="M 1.4305e-5,0 H 960.00001 V 540 H 1.4305e-5 Z"
         id="path264"
         inkscape:connector-curvature="0"
         style="clip-rule:evenodd" /></clipPath><clipPath
       clipPathUnits="userSpaceOnUse"
       id="clipPath278"><path
         d="M 1.4305e-5,0 H 960.00001 V 540 H 1.4305e-5 Z"
         id="path276"
         inkscape:connector-curvature="0"
         style="clip-rule:evenodd" /></clipPath><clipPath
       clipPathUnits="userSpaceOnUse"
       id="clipPath290"><path
         d="M 1.4305e-5,0 H 960.00001 V 540 H 1.4305e-5 Z"
         id="path288"
         inkscape:connector-curvature="0"
         style="clip-rule:evenodd" /></clipPath><clipPath
       clipPathUnits="userSpaceOnUse"
       id="clipPath302"><path
         d="M 1.4305e-5,0 H 960.00001 V 540 H 1.4305e-5 Z"
         id="path300"
         inkscape:connector-curvature="0"
         style="clip-rule:evenodd" /></clipPath><clipPath
       clipPathUnits="userSpaceOnUse"
       id="clipPath314"><path
         d="M 1.4305e-5,0 H 960.00001 V 540 H 1.4305e-5 Z"
         id="path312"
         inkscape:connector-curvature="0"
         style="clip-rule:evenodd" /></clipPath><clipPath
       clipPathUnits="userSpaceOnUse"
       id="clipPath326"><path
         d="M 1.4305e-5,0 H 960.00001 V 540 H 1.4305e-5 Z"
         id="path324"
         inkscape:connector-curvature="0"
         style="clip-rule:evenodd" /></clipPath><clipPath
       clipPathUnits="userSpaceOnUse"
       id="clipPath338"><path
         d="M 1.4305e-5,0 H 960.00001 V 540 H 1.4305e-5 Z"
         id="path336"
         inkscape:connector-curvature="0"
         style="clip-rule:evenodd" /></clipPath><clipPath
       clipPathUnits="userSpaceOnUse"
       id="clipPath350"><path
         d="M 1.4305e-5,0 H 960.00001 V 540 H 1.4305e-5 Z"
         id="path348"
         inkscape:connector-curvature="0"
         style="clip-rule:evenodd" /></clipPath><clipPath
       clipPathUnits="userSpaceOnUse"
       id="clipPath362"><path
         d="M 1.4305e-5,0 H 960.00001 V 540 H 1.4305e-5 Z"
         id="path360"
         inkscape:connector-curvature="0"
         style="clip-rule:evenodd" /></clipPath><clipPath
       clipPathUnits="userSpaceOnUse"
       id="clipPath374"><path
         d="M 1.4305e-5,0 H 960.00001 V 540 H 1.4305e-5 Z"
         id="path372"
         inkscape:connector-curvature="0"
         style="clip-rule:evenodd" /></clipPath><clipPath
       clipPathUnits="userSpaceOnUse"
       id="clipPath386"><path
         d="M 1.4305e-5,0 H 960.00001 V 540 H 1.4305e-5 Z"
         id="path384"
         inkscape:connector-curvature="0"
         style="clip-rule:evenodd" /></clipPath><clipPath
       clipPathUnits="userSpaceOnUse"
       id="clipPath398"><path
         d="M 1.4305e-5,0 H 960.00001 V 540 H 1.4305e-5 Z"
         id="path396"
         inkscape:connector-curvature="0"
         style="clip-rule:evenodd" /></clipPath><clipPath
       clipPathUnits="userSpaceOnUse"
       id="clipPath410"><path
         d="M 1.4305e-5,0 H 960.00001 V 540 H 1.4305e-5 Z"
         id="path408"
         inkscape:connector-curvature="0"
         style="clip-rule:evenodd" /></clipPath><clipPath
       clipPathUnits="userSpaceOnUse"
       id="clipPath422"><path
         d="M 1.4305e-5,0 H 960.00001 V 540 H 1.4305e-5 Z"
         id="path420"
         inkscape:connector-curvature="0"
         style="clip-rule:evenodd" /></clipPath><clipPath
       clipPathUnits="userSpaceOnUse"
       id="clipPath434"><path
         d="M 1.4305e-5,0 H 960.00001 V 540 H 1.4305e-5 Z"
         id="path432"
         inkscape:connector-curvature="0"
         style="clip-rule:evenodd" /></clipPath></defs><sodipodi:namedview
     pagecolor="#ffffff"
     bordercolor="#666666"
     borderopacity="1"
     objecttolerance="10"
     gridtolerance="10"
     guidetolerance="10"
     inkscape:pageopacity="0"
     inkscape:pageshadow="2"
     inkscape:window-width="1920"
     inkscape:window-height="1016"
     id="namedview4"
     showgrid="false"
     inkscape:zoom="0.76676892"
     inkscape:cx="605.6467"
     inkscape:cy="360"
     inkscape:window-x="0"
     inkscape:window-y="27"
     inkscape:window-maximized="1"
     inkscape:current-layer="g92" /><g
     id="g10"
     inkscape:groupmode="layer"
     inkscape:label="contentgapslide"
     transform="matrix(1.3333333,0,0,-1.3333333,0,550)"><path
       d="m 54.96,310.2 h 784.8"
       style="fill:none;stroke:#7f7f7f;stroke-width:0.47999999;stroke-linecap:butt;stroke-linejoin:round;stroke-miterlimit:10;stroke-dasharray:none;stroke-opacity:1"
       id="path42"
       inkscape:connector-curvature="0" /><g
       id="g44"
       transform="translate(-39,-93)"><g
         id="g46"
         clip-path="url(#clipPath50)"><text
           transform="matrix(1,0,0,-1,93.624,444.46)"
           style="font-variant:normal;font-weight:normal;font-size:20.04000092px;font-family:Calibri;-inkscape-font-specification:Calibri;writing-mode:lr-tb;fill:#00b050;fill-opacity:1;fill-rule:nonzero;stroke:none"
           id="text54"><tspan
             x="0 17.635201 30.90168 48.096001 57.9156"
             y="0"
             sodipodi:role="line"
             id="tspan52">WOMEN</tspan></text>
</g></g><g
       id="g56"
       transform="translate(-39,-93)"><g
         id="g58"
         clip-path="url(#clipPath62)"><text
           transform="matrix(1,0,0,-1,164.54,444.46)"
           style="font-variant:normal;font-weight:normal;font-size:20.04000092px;font-family:Calibri;-inkscape-font-specification:Calibri;writing-mode:lr-tb;fill:#00b050;fill-opacity:1;fill-rule:nonzero;stroke:none"
           id="text66"><tspan
             x="0"
             y="0"
             id="tspan64">-</tspan></text>
</g></g><g
       id="g68"
       transform="translate(-39,-93)"><g
         id="g70"
         clip-path="url(#clipPath74)"><text
           transform="matrix(1,0,0,-1,170.66,444.46)"
           style="font-variant:normal;font-weight:normal;font-size:20.04000092px;font-family:Calibri;-inkscape-font-specification:Calibri;writing-mode:lr-tb;fill:#00b050;fill-opacity:1;fill-rule:nonzero;stroke:none"
           id="text78"><tspan
             x="0 12.96588 24.32856 34.108082 44.989799 55.871521 65.651039 76.011719 86.89344 96.37236 105.57072 115.4304 128.27605 138.03552 147.81503 160.07951 164.16768 174.849 184.92912 194.6886 204.24768 216.89291 230.15939 241.04112 246.0912 255.73044"
             y="0"
             sodipodi:role="line"
             id="tspan76">OVERREPRESENTED CATEGORIES</tspan></text>
</g></g><g
       id="g80"
       transform="translate(-39,-93)"><g
         id="g82"
         clip-path="url(#clipPath86)"><text
           transform="matrix(1,0,0,-1,93.624,370.54)"
           style="font-variant:normal;font-weight:normal;font-size:18.02400017px;font-family:Calibri;-inkscape-font-specification:Calibri;writing-mode:lr-tb;fill:#00b050;fill-opacity:1;fill-rule:nonzero;stroke:none"
           id="text90"><tspan
             x="0 10.435896 19.898497 28.441872 34.317696 43.816345 58.217522 62.272919 69.716835 78.350327 82.441772 90.71479 96.752831 102.95309 112.41569 120.03984 125.98776 135.45036 141.47038"
             y="0"
             sodipodi:role="line"
             id="tspan88">AnatomicalStructure</tspan></text>
</g></g><g
       id="g92"><g
         id="g94"
         clip-path="url(#clipPath98)"
         transform="translate(-42,-93)"><text
           transform="matrix(1,0,0,-1,97.704,337.03)"
           style="font-variant:normal;font-weight:normal;font-size:18px;font-family:Calibri;-inkscape-font-specification:Calibri;writing-mode:lr-tb;fill:#00b050;fill-opacity:1;fill-rule:nonzero;stroke:none"
           id="text102"><tspan
             x="0 10.422 16.434 25.398001"
             y="0"
             sodipodi:role="line"
             id="tspan100">Area</tspan></text>
</g></g><g
       id="g104"
       transform="translate(-39,-93)"><g
         id="g106"
         clip-path="url(#clipPath110)"><text
           transform="matrix(1,0,0,-1,93.624,303.55)"
           style="font-variant:normal;font-weight:normal;font-size:18px;font-family:Calibri;-inkscape-font-specification:Calibri;writing-mode:lr-tb;fill:#00b050;fill-opacity:1;fill-rule:nonzero;stroke:none"
           id="text114"><tspan
             x="0 9.5939999 19.044001 28.062 42.444 46.584 53.981998 62.604 66.744003 75.005997 84.456001 93.816002 100.656 106.416 115.038 124.488 132.10201"
             y="0"
             sodipodi:role="line"
             id="tspan112">ChemicalSubstance</tspan></text>
</g></g><g
       id="g116"
       transform="translate(-39,-93)"><g
         id="g118"
         clip-path="url(#clipPath122)"><text
           transform="matrix(1,0,0,-1,93.624,270.19)"
           style="font-variant:normal;font-weight:normal;font-size:18px;font-family:Calibri;-inkscape-font-specification:Calibri;writing-mode:lr-tb;fill:#00b050;fill-opacity:1;fill-rule:nonzero;stroke:none"
           id="text126"><tspan
             x="0 9.5939999 19.08 23.166 32.652 42.102001"
             y="0"
             sodipodi:role="line"
             id="tspan124">Colour</tspan></text>
</g></g><g
       id="g128"
       transform="translate(-39,-93)"><g
         id="g130"
         clip-path="url(#clipPath134)"><text
           transform="matrix(1,0,0,-1,93.624,236.69)"
           style="font-variant:normal;font-weight:normal;font-size:18px;font-family:Calibri;-inkscape-font-specification:Calibri;writing-mode:lr-tb;fill:#00b050;fill-opacity:1;fill-rule:nonzero;stroke:none"
           id="text138"><tspan
             x="0 11.07 15.12 22.158001 31.176001 39.798 46.872002"
             y="0"
             sodipodi:role="line"
             id="tspan136">Disease</tspan></text>
</g></g><g
       id="g140"
       transform="translate(-39,-93)"><g
         id="g142"
         clip-path="url(#clipPath146)"><text
           transform="matrix(1,0,0,-1,93.624,203.21)"
           style="font-variant:normal;font-weight:normal;font-size:18px;font-family:Calibri;-inkscape-font-specification:Calibri;writing-mode:lr-tb;fill:#00b050;fill-opacity:1;fill-rule:nonzero;stroke:none"
           id="text150"><tspan
             x="0 8.5139999 14.544 23.993999 33.444 37.584 45.108002 56.466 62.514 72 81.449997"
             y="0"
             sodipodi:role="line"
             id="tspan148">EthnicGroup</tspan></text>
</g></g><g
       id="g152"
       transform="translate(-39,-93)"><g
         id="g154"
         clip-path="url(#clipPath158)"><text
           transform="matrix(1,0,0,-1,93.624,169.85)"
           style="font-variant:normal;font-weight:normal;font-size:18px;font-family:Calibri;-inkscape-font-specification:Calibri;writing-mode:lr-tb;fill:#00b050;fill-opacity:1;fill-rule:nonzero;stroke:none"
           id="text162"><tspan
             x="0 8.0459995 17.532 27.018"
             y="0"
             sodipodi:role="line"
             id="tspan160">Food</tspan></text>
</g></g><g
       id="g164"
       transform="translate(-39,-93)"><g
         id="g166"
         clip-path="url(#clipPath170)"><text
           transform="matrix(1,0,0,-1,506.11,444.46)"
           style="font-variant:normal;font-weight:normal;font-size:20.04000092px;font-family:Calibri;-inkscape-font-specification:Calibri;writing-mode:lr-tb;fill:#c00000;fill-opacity:1;fill-rule:nonzero;stroke:none"
           id="text174"><tspan
             x="0 17.134199 27.01392"
             y="0"
             sodipodi:role="line"
             id="tspan172">MEN</tspan></text>
</g></g><g
       id="g176"
       transform="translate(-39,-93)"><g
         id="g178"
         clip-path="url(#clipPath182)"><text
           transform="matrix(1,0,0,-1,546.1,444.46)"
           style="font-variant:normal;font-weight:normal;font-size:20.04000092px;font-family:Calibri;-inkscape-font-specification:Calibri;writing-mode:lr-tb;fill:#c00000;fill-opacity:1;fill-rule:nonzero;stroke:none"
           id="text186"><tspan
             x="0"
             y="0"
             id="tspan184">-</tspan></text>
</g></g><g
       id="g188"
       transform="translate(-39,-93)"><g
         id="g190"
         clip-path="url(#clipPath194)"><text
           transform="matrix(1,0,0,-1,552.22,444.46)"
           style="font-variant:normal;font-weight:normal;font-size:20.04000092px;font-family:Calibri;-inkscape-font-specification:Calibri;writing-mode:lr-tb;fill:#c00000;fill-opacity:1;fill-rule:nonzero;stroke:none"
           id="text198"><tspan
             x="0 13.08612 24.448799 34.308479 45.110039 55.99176 65.771278 76.071838 86.95356 96.592796 105.79116 115.57068 128.51653 138.276 147.95532 160.19975 164.40816 175.08948 185.1696 194.92908 204.48816 217.13341 230.39989 241.2816 246.33168 255.97092"
             y="0"
             sodipodi:role="line"
             id="tspan196">OVERREPRESENTED CATEGORIES</tspan></text>
</g></g><g
       id="g200"
       transform="translate(-39,-93)"><g
         id="g202"
         clip-path="url(#clipPath206)"><text
           transform="matrix(1,0,0,-1,496.87,370.54)"
           style="font-variant:normal;font-weight:normal;font-size:18.02400017px;font-family:Calibri;-inkscape-font-specification:Calibri;writing-mode:lr-tb;fill:#c00000;fill-opacity:1;fill-rule:nonzero;stroke:none"
           id="text210"><tspan
             x="0 10.435896 18.835079 27.811031 37.201534"
             y="0"
             sodipodi:role="line"
             id="tspan208">Agent</tspan></text>
</g></g><g
       id="g212"
       transform="translate(-39,-93)"><g
         id="g214"
         clip-path="url(#clipPath218)"><text
           transform="matrix(1,0,0,-1,496.87,337.03)"
           style="font-variant:normal;font-weight:normal;font-size:18px;font-family:Calibri;-inkscape-font-specification:Calibri;writing-mode:lr-tb;fill:#c00000;fill-opacity:1;fill-rule:nonzero;stroke:none"
           id="text222"><tspan
             x="0 10.422 23.040001 31.662001 37.674"
             y="0"
             sodipodi:role="line"
             id="tspan220">Award</tspan></text>
</g></g><g
       id="g224"
       transform="translate(-39,-93)"><g
         id="g226"
         clip-path="url(#clipPath230)"><text
           transform="matrix(1,0,0,-1,496.87,303.55)"
           style="font-variant:normal;font-weight:normal;font-size:18px;font-family:Calibri;-inkscape-font-specification:Calibri;writing-mode:lr-tb;fill:#c00000;fill-opacity:1;fill-rule:nonzero;stroke:none"
           id="text234"><tspan
             x="0 9.7919998 13.932 23.417999 37.799999 47.285999 51.354 60.318001 67.931999 77.382004 81.522003"
             y="0"
             sodipodi:role="line"
             id="tspan232">Biomolecule</tspan></text>
</g></g><g
       id="g236"
       transform="translate(-39,-93)"><g
         id="g238"
         clip-path="url(#clipPath242)"><text
           transform="matrix(1,0,0,-1,496.87,270.19)"
           style="font-variant:normal;font-weight:normal;font-size:18px;font-family:Calibri;-inkscape-font-specification:Calibri;writing-mode:lr-tb;fill:#c00000;fill-opacity:1;fill-rule:nonzero;stroke:none"
           id="text246"><tspan
             x="0 11.07 19.926001 28.062 32.202 39.726002"
             y="0"
             sodipodi:role="line"
             id="tspan244">Device</tspan></text>
</g></g><g
       id="g248"
       transform="translate(-39,-93)"><g
         id="g250"
         clip-path="url(#clipPath254)"><text
           transform="matrix(1,0,0,-1,496.87,236.69)"
           style="font-variant:normal;font-weight:normal;font-size:18px;font-family:Calibri;-inkscape-font-specification:Calibri;writing-mode:lr-tb;fill:#c00000;fill-opacity:1;fill-rule:nonzero;stroke:none"
           id="text258"><tspan
             x="0 8.4060001 16.452 25.416 34.812"
             y="0"
             sodipodi:role="line"
             id="tspan256">Event</tspan></text>
</g></g><g
       id="g260"
       transform="translate(-39,-93)"><g
         id="g262"
         clip-path="url(#clipPath266)"><text
           transform="matrix(1,0,0,-1,496.87,203.21)"
           style="font-variant:normal;font-weight:normal;font-size:18px;font-family:Calibri;-inkscape-font-specification:Calibri;writing-mode:lr-tb;fill:#c00000;fill-opacity:1;fill-rule:nonzero;stroke:none"
           id="text270"><tspan
             x="0 7.5599999 11.646 18.486"
             y="0"
             sodipodi:role="line"
             id="tspan268">List</tspan></text>
</g></g><g
       id="g272"
       transform="translate(-39,-93)"><g
         id="g274"
         clip-path="url(#clipPath278)"><text
           transform="matrix(1,0,0,-1,496.87,169.85)"
           style="font-variant:normal;font-weight:normal;font-size:18px;font-family:Calibri;-inkscape-font-specification:Calibri;writing-mode:lr-tb;fill:#c00000;fill-opacity:1;fill-rule:nonzero;stroke:none"
           id="text282"><tspan
             x="0 15.39 24.354 32.976002 42.462002 49.5 61.416 66.905998 74.627998 80.514 89.136002 98.585999 105.696 115.146 124.632 130.914 136.65601 145.17 151.2 155.25 164.73599"
             y="0"
             sodipodi:role="line"
             id="tspan280">MeansOfTransportation</tspan></text>
</g></g><g
       id="g284"
       transform="translate(-39,-93)"><g
         id="g286"
         clip-path="url(#clipPath290)"><text
           transform="matrix(1,0,0,-1,496.87,136.37)"
           style="font-variant:normal;font-weight:normal;font-size:18px;font-family:Calibri;-inkscape-font-specification:Calibri;writing-mode:lr-tb;fill:#c00000;fill-opacity:1;fill-rule:nonzero;stroke:none"
           id="text294"><tspan
             x="0 9.2340002 13.32 21.941999 29.556"
             y="0"
             sodipodi:role="line"
             id="tspan292">Place</tspan></text>
</g></g><g
       id="g320"
       transform="translate(-39,-93)"><g
         id="g322"
         clip-path="url(#clipPath326)"><text
           transform="matrix(1,0,0,-1,714.96,365.83)"
           style="font-variant:normal;font-weight:normal;font-size:18px;font-family:Calibri;-inkscape-font-specification:Calibri;writing-mode:lr-tb;fill:#c00000;fill-opacity:1;fill-rule:nonzero;stroke:none"
           id="text330"><tspan
             x="0 8.2620001 17.712 27.198 33.48 39.509998 46.548 56.141998 65.627998 80.010002 89.496002 98.370003 104.4 108.45 114.48 118.53 128.01601 137.466 146.84399 155.808 162.89999 172.35001 176.49001"
             y="0"
             sodipodi:role="line"
             id="tspan328">SportsCompetitionResult</tspan></text>
</g></g><g
       id="g332"
       transform="translate(-39,-93)"><g
         id="g334"
         clip-path="url(#clipPath338)"><text
           transform="matrix(1,0,0,-1,714.96,332.35)"
           style="font-variant:normal;font-weight:normal;font-size:18px;font-family:Calibri;-inkscape-font-specification:Calibri;writing-mode:lr-tb;fill:#c00000;fill-opacity:1;fill-rule:nonzero;stroke:none"
           id="text342"><tspan
             x="0 8.2620001 17.712 27.198 33.48 39.509998 46.548 54.810001 63.827999 72.449997 79.524002 89.010002"
             y="0"
             sodipodi:role="line"
             id="tspan340">SportsSeason</tspan></text>
</g></g><g
       id="g344"
       transform="translate(-39,-93)"><g
         id="g346"
         clip-path="url(#clipPath350)"><text
           transform="matrix(1,0,0,-1,714.96,298.87)"
           style="font-variant:normal;font-weight:normal;font-size:18px;font-family:Calibri;-inkscape-font-specification:Calibri;writing-mode:lr-tb;fill:#c00000;fill-opacity:1;fill-rule:nonzero;stroke:none"
           id="text354"><tspan
             x="0 7.1999998 16.686001 26.136 30.275999 37.674 46.296001 50.436001 60.029999 69.515999 78.966003 86.508003 95.472 104.868"
             y="0"
             sodipodi:role="line"
             id="tspan352">TopicalConcept</tspan></text>
</g></g><g
       id="g356"
       transform="translate(-39,-93)"><g
         id="g358"
         clip-path="url(#clipPath362)"><text
           transform="matrix(1,0,0,-1,714.96,265.49)"
           style="font-variant:normal;font-weight:normal;font-size:18px;font-family:Calibri;-inkscape-font-specification:Calibri;writing-mode:lr-tb;fill:#c00000;fill-opacity:1;fill-rule:nonzero;stroke:none"
           id="text366"><tspan
             x="0 11.556 21.006001 25.073999 31.104 42.948002 48.438 63.702 73.188004 79.470001"
             y="0"
             sodipodi:role="line"
             id="tspan364">UnitOfWork</tspan></text>
</g></g><g
       id="g368"
       transform="translate(-39,-93)"><g
         id="g370"
         clip-path="url(#clipPath374)"><text
           transform="matrix(1,0,0,-1,714.96,232.01)"
           style="font-variant:normal;font-weight:normal;font-size:18px;font-family:Calibri;-inkscape-font-specification:Calibri;writing-mode:lr-tb;fill:#c00000;fill-opacity:1;fill-rule:nonzero;stroke:none"
           id="text378"><tspan
             x="0 15.246 24.732 31.014"
             y="0"
             sodipodi:role="line"
             id="tspan376">Work</tspan></text>
</g></g><g
       id="g380"
       transform="translate(-39,-93)"><g
         id="g382"
         clip-path="url(#clipPath386)"><text
           transform="matrix(1,0,0,-1,274.66,370.54)"
           style="font-variant:normal;font-weight:normal;font-size:18.02400017px;font-family:Calibri;-inkscape-font-specification:Calibri;writing-mode:lr-tb;fill:#00b050;fill-opacity:1;fill-rule:nonzero;stroke:none"
           id="text390"><tspan
             x="0 11.156856 20.655504 24.710903 28.784328 38.246929 46.537968"
             y="0"
             sodipodi:role="line"
             id="tspan388">Holiday</tspan></text>
</g></g><g
       id="g392"
       transform="translate(-39,-93)"><g
         id="g394"
         clip-path="url(#clipPath398)"><text
           transform="matrix(1,0,0,-1,274.66,337.03)"
           style="font-variant:normal;font-weight:normal;font-size:18px;font-family:Calibri;-inkscape-font-specification:Calibri;writing-mode:lr-tb;fill:#00b050;fill-opacity:1;fill-rule:nonzero;stroke:none"
           id="text402"><tspan
             x="0 11.64 20.274 34.667999"
             y="0"
             sodipodi:role="line"
             id="tspan400">Name</tspan></text>
</g></g><g
       id="g404"
       transform="translate(-39,-93)"><g
         id="g406"
         clip-path="url(#clipPath410)"><text
           transform="matrix(1,0,0,-1,274.66,303.55)"
           style="font-variant:normal;font-weight:normal;font-size:18px;font-family:Calibri;-inkscape-font-specification:Calibri;writing-mode:lr-tb;fill:#00b050;fill-opacity:1;fill-rule:nonzero;stroke:none"
           id="text414"><tspan
             x="0 8.8739996 17.837999 23.76 30.798 40.284 49.787998 58.049999 67.5 77.003998 84.564003 90.594002 94.643997 104.13"
             y="0"
             sodipodi:role="line"
             id="tspan412">PersonFunction</tspan></text>
</g></g><g
       id="g416"
       transform="translate(-39,-93)"><g
         id="g418"
         clip-path="url(#clipPath422)"><text
           transform="matrix(1,0,0,-1,274.66,270.19)"
           style="font-variant:normal;font-weight:normal;font-size:18px;font-family:Calibri;-inkscape-font-specification:Calibri;writing-mode:lr-tb;fill:#00b050;fill-opacity:1;fill-rule:nonzero;stroke:none"
           id="text426"><tspan
             x="0 8.2620001 17.712 26.747999 34.307999 38.394001 47.358002"
             y="0"
             sodipodi:role="line"
             id="tspan424">Species</tspan></text>
</g></g><g
       id="g428"
       transform="translate(-39,-93)"><g
         id="g430"
         clip-path="url(#clipPath434)"><text
           transform="matrix(1,0,0,-1,274.66,236.69)"
           style="font-variant:normal;font-weight:normal;font-size:18px;font-family:Calibri;-inkscape-font-specification:Calibri;writing-mode:lr-tb;fill:#00b050;fill-opacity:1;fill-rule:nonzero;stroke:none"
           id="text438"><tspan
             x="0 8.7659998 12.834 27.216 36.18 45.108002 54.071999 60.354 64.421997 73.907997"
             y="0"
             sodipodi:role="line"
             id="tspan436">TimePeriod</tspan></text>
</g></g></g></svg>