<?xml version="1.0" encoding="UTF-8" standalone="no"?>
<!-- Created with Inkscape (http://www.inkscape.org/) -->

<svg
   xmlns:dc="http://purl.org/dc/elements/1.1/"
   xmlns:cc="http://creativecommons.org/ns#"
   xmlns:rdf="http://www.w3.org/1999/02/22-rdf-syntax-ns#"
   xmlns:svg="http://www.w3.org/2000/svg"
   xmlns="http://www.w3.org/2000/svg"
   xmlns:sodipodi="http://sodipodi.sourceforge.net/DTD/sodipodi-0.dtd"
   xmlns:inkscape="http://www.inkscape.org/namespaces/inkscape"
   width="1000"
   height="216.22313"
   id="svg9020"
   version="1.1"
   inkscape:version="0.48.2 r9819"
   sodipodi:docname="Nor23.svg">
  <defs
     id="defs9022">
    <clipPath
       clipPathUnits="userSpaceOnUse"
       id="clipPath4357">
      <path
         inkscape:connector-curvature="0"
         d="m 1135.016,33.323 98.666,0 0,35.157 -98.666,0 0,-35.157 z"
         id="path4359" />
    </clipPath>
    <clipPath
       clipPathUnits="userSpaceOnUse"
       id="clipPath9375">
      <path
         inkscape:connector-curvature="0"
         d="m 397.412,805.216 140.364,0 0,-95.013 -140.364,0 0,95.013 z"
         id="path9377" />
    </clipPath>
    <clipPath
       clipPathUnits="userSpaceOnUse"
       id="clipPath9397">
      <path
         inkscape:connector-curvature="0"
         d="m 397.412,805.216 140.364,0 0,-95.013 -140.364,0 0,95.013 z"
         id="path9399" />
    </clipPath>
    <clipPath
       clipPathUnits="userSpaceOnUse"
       id="clipPath9419">
      <path
         inkscape:connector-curvature="0"
         d="m 397.412,805.216 140.364,0 0,-95.013 -140.364,0 0,95.013 z"
         id="path9421" />
    </clipPath>
    <clipPath
       clipPathUnits="userSpaceOnUse"
       id="clipPath9833">
      <path
         inkscape:connector-curvature="0"
         d="m 0,0 419.528,0 0,595.276 L 0,595.276 0,0 z"
         id="path9835" />
    </clipPath>
    <clipPath
       clipPathUnits="userSpaceOnUse"
       id="clipPath9869">
      <path
         inkscape:connector-curvature="0"
         d="m 0,0 419.528,0 0,595.276 L 0,595.276 0,0 z"
         id="path9871" />
    </clipPath>
    <clipPath
       clipPathUnits="userSpaceOnUse"
       id="clipPath10669">
      <path
         d="m 439.37,33.472 127.559,0 0,61.242 -127.559,0 0,-61.242 z"
         id="path10671"
         inkscape:connector-curvature="0" />
    </clipPath>
    <clipPath
       clipPathUnits="userSpaceOnUse"
       id="clipPath12158">
      <path
         inkscape:connector-curvature="0"
         d="m 0,0 841.89,0 0,1190.551 -841.89,0 L 0,0 z"
         id="path12160" />
    </clipPath>
    <clipPath
       clipPathUnits="userSpaceOnUse"
       id="clipPath12230">
      <path
         inkscape:connector-curvature="0"
         d="m 0,0 841.89,0 0,1190.551 -841.89,0 L 0,0 z"
         id="path12232" />
    </clipPath>
    <clipPath
       clipPathUnits="userSpaceOnUse"
       id="clipPath12310">
      <path
         inkscape:connector-curvature="0"
         d="m 0,0 841.89,0 0,1190.551 -841.89,0 L 0,0 z"
         id="path12312" />
    </clipPath>
    <clipPath
       clipPathUnits="userSpaceOnUse"
       id="clipPath12326">
      <path
         inkscape:connector-curvature="0"
         d="m 0,0 841.89,0 0,1190.551 -841.89,0 L 0,0 z"
         id="path12328" />
    </clipPath>
    <clipPath
       clipPathUnits="userSpaceOnUse"
       id="clipPath14031">
      <path
         inkscape:connector-curvature="0"
         d="m 42.52,1011.455 219.721,0 0,136.576 -219.721,0 0,-136.576 z"
         id="path14033" />
    </clipPath>
    <clipPath
       clipPathUnits="userSpaceOnUse"
       id="clipPath14238">
      <path
         inkscape:connector-curvature="0"
         d="m 439.37,68.032 113.386,0 0,70.866 -113.386,0 0,-70.866 z"
         id="path14240" />
    </clipPath>
    <clipPath
       clipPathUnits="userSpaceOnUse"
       id="clipPath18027">
      <path
         inkscape:connector-curvature="0"
         d="m 437.253,780.951 138.18,0 0,41.097 -138.18,0 0,-41.097 z"
         id="path18029" />
    </clipPath>
    <clipPath
       clipPathUnits="userSpaceOnUse"
       id="clipPath19188">
      <path
         inkscape:connector-curvature="0"
         d="m 409.285,282.803 150.229,0 0,37.984 -150.229,0 0,-37.984 z"
         id="path19190" />
    </clipPath>
    <clipPath
       clipPathUnits="userSpaceOnUse"
       id="clipPath19282">
      <path
         inkscape:connector-curvature="0"
         d="m 409.285,284.198 150.229,0 0,36.589 -150.229,0 0,-36.589 z"
         id="path19284" />
    </clipPath>
    <clipPath
       clipPathUnits="userSpaceOnUse"
       id="clipPath19298">
      <path
         inkscape:connector-curvature="0"
         d="m 409.285,282.803 150.229,0 0,37.984 -150.229,0 0,-37.984 z"
         id="path19300" />
    </clipPath>
    <clipPath
       clipPathUnits="userSpaceOnUse"
       id="clipPath19318">
      <path
         inkscape:connector-curvature="0"
         d="m 409.285,284.198 150.229,0 0,36.589 -150.229,0 0,-36.589 z"
         id="path19320" />
    </clipPath>
    <clipPath
       clipPathUnits="userSpaceOnUse"
       id="clipPath19334">
      <path
         inkscape:connector-curvature="0"
         d="m 409.285,282.803 150.229,0 0,37.984 -150.229,0 0,-37.984 z"
         id="path19336" />
    </clipPath>
    <clipPath
       clipPathUnits="userSpaceOnUse"
       id="clipPath19790">
      <path
         inkscape:connector-curvature="0"
         d="m 28.346,491.328 770.74,0 0,75.601 -770.74,0 0,-75.601 z"
         id="path19792" />
    </clipPath>
    <clipPath
       clipPathUnits="userSpaceOnUse"
       id="clipPath29819">
      <path
         inkscape:connector-curvature="0"
         d="m 1667.675,50.003 -131.04,0 0,-79.615 131.04,0 0,79.615 z"
         id="path29821" />
    </clipPath>
    <clipPath
       clipPathUnits="userSpaceOnUse"
       id="clipPath29825">
      <path
         inkscape:connector-curvature="0"
         d="m 1533.249,53.811 136.357,0 0,-39.638 -136.357,0 0,39.638 z"
         clip-rule="evenodd"
         id="path29827" />
    </clipPath>
    <clipPath
       clipPathUnits="userSpaceOnUse"
       id="clipPath29831">
      <path
         inkscape:connector-curvature="0"
         d="m 0,1190.551 1683.78,0 L 1683.78,0 0,0 0,1190.551 z"
         id="path29833" />
    </clipPath>
    <clipPath
       clipPathUnits="userSpaceOnUse"
       id="clipPath29837">
      <path
         inkscape:connector-curvature="0"
         d="m 0,1191 1684,0 L 1684,0 0,0 0,1191 z"
         id="path29839" />
    </clipPath>
    <clipPath
       clipPathUnits="userSpaceOnUse"
       id="clipPath35160">
      <path
         inkscape:connector-curvature="0"
         d="m 395.723,37.207 128.179,0 0,27.615 -128.179,0 0,-27.615 z"
         id="path35162" />
    </clipPath>
  </defs>
  <sodipodi:namedview
     id="base"
     pagecolor="#ffffff"
     bordercolor="#666666"
     borderopacity="1.0"
     inkscape:pageopacity="0.0"
     inkscape:pageshadow="2"
     inkscape:zoom="0.7"
     inkscape:cx="414.93446"
     inkscape:cy="-88.526438"
     inkscape:document-units="px"
     inkscape:current-layer="layer1"
     showgrid="false"
     fit-margin-left="0.5"
     fit-margin-top="0.5"
     fit-margin-bottom="0.5"
     fit-margin-right="0.5"
     inkscape:window-width="1270"
     inkscape:window-height="1038"
     inkscape:window-x="644"
     inkscape:window-y="-21"
     inkscape:window-maximized="0" />
  <metadata
     id="metadata9025">
    <rdf:RDF>
      <cc:Work
         rdf:about="">
        <dc:format>image/svg+xml</dc:format>
        <dc:type
           rdf:resource="http://purl.org/dc/dcmitype/StillImage" />
        <dc:title></dc:title>
      </cc:Work>
    </rdf:RDF>
  </metadata>
  <g
     inkscape:label="Layer 1"
     inkscape:groupmode="layer"
     id="layer1"
     transform="translate(-737.07023,1392.2721)">
    <g
       transform="matrix(7.7937884,0,0,-7.7937884,-2346.6111,-886.56547)"
       id="g35156">
      <g
         id="g35158"
         clip-path="url(#clipPath35160)">
        <g
           id="g35164"
           transform="translate(409.5016,37.4897)">
          <path
             inkscape:connector-curvature="0"
             d="m 0,0 0,-0.283 c 7.669,0.002 13.884,6.219 13.884,13.824 0,3.81 -1.556,7.26 -4.068,9.754 -2.51,2.492 -5.984,4.037 -9.816,4.037 -7.612,0 -13.779,-6.167 -13.779,-13.791 0,-7.605 6.165,-13.822 13.779,-13.824 L 0,0 0,0.286 c -3.649,0 -6.949,1.489 -9.339,3.894 -2.39,2.405 -3.869,5.717 -3.869,9.361 0,3.656 1.479,6.961 3.867,9.349 2.39,2.395 5.692,3.872 9.341,3.872 3.678,0 7.006,-1.477 9.416,-3.872 2.408,-2.392 3.901,-5.693 3.901,-9.349 C 13.317,9.897 11.824,6.585 9.416,4.18 7.006,1.775 3.678,0.286 0,0.286 L 0,0 z"
             style="fill:#00483a;fill-opacity:1;fill-rule:nonzero;stroke:none"
             id="path35166" />
        </g>
        <g
           id="g35168"
           transform="translate(412.8112,47.3596)">
          <path
             inkscape:connector-curvature="0"
             d="m 0,0 0.052,0.261 c -0.474,0.112 -1.102,0.112 -1.626,0 l 0,-0.261 c 0,0 0.209,0.06 0.313,0.06 0,0 -0.104,-0.423 -0.104,-0.475 l 0.214,-0.111 C -1.05,-0.415 -1.05,0 -1.05,0.06 c 0.052,0 0.161,0.052 0.161,0.052 l 0,-0.901 0.313,0 -0.052,0.901 C -0.524,0.06 -0.422,0.06 -0.363,0.06 c 0,-0.217 0.05,-0.423 0.154,-0.586 L 0,-0.415 c -0.052,0.102 -0.102,0.258 -0.161,0.475 L 0,0 z m -1.05,0.898 0.161,0 0.052,0.835 c -0.213,0 -0.213,0.213 -0.263,0.317 0.05,0 0.211,0 0.263,-0.052 -0.161,0.052 -0.213,0.101 -0.263,0.363 0,0 0.263,-0.05 0.263,-0.098 -0.161,0.098 -0.314,0.159 -0.263,0.42 0.05,-0.06 0.152,0 0.211,-0.06 -0.059,0.06 -0.161,0.11 -0.211,0.264 l 0.211,0 c -0.059,0 -0.211,0.267 -0.109,0.372 0,0 0.161,-0.161 0.161,-0.105 -0.052,0.105 -0.052,0.157 0.1,0.318 0.213,-0.161 0.054,-0.424 0.054,-0.424 0,0 0.055,0.159 0.209,0.211 0.111,-0.261 -0.05,-0.261 -0.154,-0.372 0.154,0.111 0.154,0.059 0.265,0.059 0,-0.263 -0.213,-0.323 -0.265,-0.323 0.104,0.06 0.154,0 0.265,0.06 0,-0.261 -0.161,-0.322 -0.265,-0.42 0,0 0.104,0.098 0.265,0.098 0,-0.152 -0.111,-0.311 -0.265,-0.363 C -0.524,2.05 -0.422,2.05 -0.363,2.05 -0.422,1.946 -0.422,1.733 -0.628,1.733 l 0.052,-0.835 0.154,0 c 0.059,0.211 0.059,0.415 0.161,0.624 -0.161,0.052 -0.161,0.211 -0.161,0.315 0.059,0 0.161,-0.05 0.213,-0.104 -0.154,0.165 -0.213,0.213 -0.104,0.426 0.152,-0.06 0.211,-0.161 0.211,-0.161 L -0.161,2.05 c -0.1,0.109 -0.1,0.261 -0.048,0.42 C -0.161,2.422 -0.052,2.422 0,2.361 -0.102,2.422 -0.161,2.623 -0.102,2.683 0,2.623 0.052,2.683 0.104,2.522 0.052,2.683 -0.052,2.683 0.052,2.946 0.213,2.887 0.213,2.683 0.213,2.683 0.159,2.835 0.263,2.998 0.424,3.048 0.474,2.946 0.474,2.787 0.365,2.683 0.474,2.733 0.526,2.733 0.578,2.733 0.526,2.574 0.424,2.522 0.263,2.47 c 0.161,0.052 0.161,0 0.315,0 C 0.526,2.311 0.365,2.263 0.263,2.263 0.365,2.263 0.365,2.209 0.474,2.159 0.424,1.998 0.263,1.998 0.104,1.946 l 0.261,0 C 0.263,1.733 0.213,1.685 0,1.685 0.104,1.685 0.263,1.635 0.263,1.635 0.159,1.522 0.052,1.422 -0.102,1.422 -0.161,1.263 -0.209,1.109 -0.209,0.898 l 0.261,0 0.052,-0.317 C -0.422,0.523 -1.05,0.523 -1.625,0.633 l 0.103,0.313 0.261,-0.048 c 0,0.211 -0.052,0.311 -0.153,0.524 -0.16,-0.049 -0.211,0.1 -0.373,0.213 0.11,0 0.213,0.05 0.265,0 -0.155,0 -0.265,0.098 -0.367,0.263 l 0.264,0 c -0.162,0 -0.313,0.048 -0.373,0.261 0.109,0 0.109,0.05 0.211,0.05 0.11,0 -0.261,0 -0.261,0.213 0.11,0.048 0.159,0 0.261,0 -0.211,0.048 -0.211,0.1 -0.261,0.261 0,0 0.05,0 0.211,-0.06 -0.101,0.06 -0.161,0.212 -0.052,0.425 0.102,-0.05 0.212,-0.161 0.212,-0.261 0,0.048 0.052,0.048 0.103,0.1 0.1,-0.264 -0.051,-0.264 -0.051,-0.365 0.051,0.101 0.103,0.101 0.211,0.161 0.049,-0.161 0,-0.261 -0.108,-0.372 0.108,0.111 0.108,0.05 0.209,0.111 0.052,-0.159 0.052,-0.323 -0.101,-0.424 0,0 0.101,0.101 0.205,0.161 0.109,-0.213 0.058,-0.322 -0.104,-0.426 0.052,0.054 0.213,0.165 0.263,0.165 -0.05,-0.165 0,-0.324 -0.211,-0.376 0.11,0 0.211,-0.624 0.211,-0.624 m -3.514,-4.253 c 0.049,-0.109 0.524,-0.321 0.261,-0.321 -0.212,-0.099 -0.37,0.058 -0.474,0 0,0 -0.108,0.058 0.104,-0.205 0.158,-0.162 -0.264,-0.475 -0.367,-0.631 -0.108,0.312 -0.474,0.419 -0.261,0.683 0.05,0.153 0,0.153 -0.213,0.101 0,0 -0.263,-0.047 -0.263,0.11 l 0.213,0.206 c 0.365,0.21 0.313,0.26 0.263,0.633 -0.109,0 -0.109,-0.112 -0.213,-0.112 -0.05,-0.151 -0.05,-0.311 -0.263,-0.417 -0.05,-0.047 -0.159,0.156 -0.1,0.266 -0.059,-0.051 -0.059,-0.313 -0.32,-0.37 -0.053,-0.103 -0.053,0.26 -0.053,0.26 -0.051,-0.156 -0.314,-0.156 -0.416,-0.05 -0.161,0.05 -0.058,0.311 0.154,0.372 0.37,0 -0.261,0.103 0.109,0.262 0.206,0.101 0.417,-0.055 0.467,-0.211 0,0.156 -0.206,0.312 -0.05,0.364 0.159,0 0.312,-0.052 0.422,-0.208 0,0 0.21,0 0.313,0.156 0,-0.049 -0.103,0.052 -0.313,0.213 -0.11,0.155 -0.052,-0.262 -0.474,0 -0.104,0.102 0,0.155 0.052,0.263 0,0.048 -0.156,0.214 -0.156,0.261 -0.055,0.052 -0.055,0.211 -0.055,0.263 0.159,0 0.261,0.052 0.37,0 0.102,-0.052 0.102,-0.158 0.211,-0.158 0.102,0 0.154,0.106 0.262,-0.053 0.206,-0.208 0,-0.208 -0.056,-0.362 0.109,-0.059 0.211,-0.214 0.32,-0.214 0,0.052 0.05,0.417 0,0.477 -0.109,-0.109 -0.424,0.412 -0.32,0.524 0.056,0.047 0.262,-0.112 0.32,-0.06 -0.109,0.213 -0.32,0.213 -0.372,0.422 -0.052,0.424 0.211,0.315 0.314,0.162 l -0.051,0.203 c 0.051,0.261 0.211,0.586 0.314,0.369 0.056,-0.108 0.108,-0.206 0.16,-0.31 l -0.052,-0.262 c 0.104,0.153 0.364,0.314 0.364,0 0,-0.371 -0.364,-0.371 -0.364,-0.636 0.104,0 0.262,0.373 0.314,0.112 0,-0.162 -0.101,-0.524 -0.314,-0.524 -0.108,-0.06 -0.052,-0.322 0,-0.477 0.052,0.052 0.104,0.102 0.262,0.263 0.155,0.105 -0.158,0.214 0.102,0.472 0.11,0.104 0.11,-0.106 0.264,-0.106 0.109,0.106 0.315,0.21 0.575,0.106 0,-0.211 0.058,-0.367 -0.364,-0.521 0,-0.059 0.211,-0.214 -0.051,-0.322 l -0.16,0 c -0.102,0 -0.102,0.16 -0.154,0.21 -0.11,-0.21 -0.261,-0.21 -0.37,-0.364 0,-0.107 0.26,-0.107 0.37,-0.107 0.052,0.156 0.203,0.208 0.365,0.208 0.104,0 0,-0.208 0,-0.312 0.104,0.159 0.314,0.211 0.422,0.211 0.103,0 0,-0.263 0,-0.314 0.207,0.051 0.577,-0.263 0.263,-0.372 -0.16,-0.049 -0.211,-0.049 -0.371,0 -0.051,-0.106 -0.051,-0.262 -0.153,-0.21 -0.11,0.057 -0.263,0.21 -0.263,0.421 0,-0.161 0,-0.364 -0.109,-0.317 -0.211,0.106 -0.264,0.266 -0.264,0.417 -0.102,0.061 -0.151,0.112 -0.26,0.112 0,-0.212 0.049,-0.472 0.109,-0.576 M 3.465,0.946 C 3.777,0.997 4.254,0.789 4.515,0.734 4.413,0.581 4.254,0.422 4.2,0.261 3.887,-0.891 5.251,-1.1 4.989,-2.152 c 0,-0.102 -0.052,-0.21 -0.104,-0.21 -0.524,-0.206 -0.998,0.371 -1.472,0.371 -0.212,0.048 -0.363,-0.108 -0.576,-0.108 -0.109,0.156 -0.161,0.213 -0.372,0.262 -0.204,-0.315 0,-0.466 -0.366,-0.63 -0.21,-0.049 -0.473,-0.049 -0.682,-0.101 0,0.206 0.057,0.416 0.107,0.577 0.05,0.105 0.102,0.576 0.213,0.626 0.362,0.315 1.78,-0.05 2.202,-0.05 C 3.887,-1.253 3.777,-1.1 3.727,-0.992 3.517,-0.789 3.253,-0.628 3.15,-0.363 3.1,-0.102 3.201,0.898 3.465,0.946 m -9.292,-7.138 c -0.211,-0.053 -0.737,0.313 -1.1,0.313 0,-0.05 0.203,-0.524 0.311,-0.996 -0.572,-0.156 -1.098,0.368 -1.574,0.31 0,-0.416 -0.05,-0.891 0.154,-1.203 -0.467,-0.159 -0.941,0.474 -1.313,0.415 0,-0.154 0.059,-0.415 0.111,-0.574 0.05,-0.152 0.05,-0.263 0.15,-0.365 -0.15,-0.052 -0.202,0.05 -0.415,0.154 -0.209,0.109 -0.789,0.474 -1.05,0.631 -0.05,0.314 -0.263,0.679 -0.211,1.054 0.161,-0.112 0.425,-0.054 0.576,0 0.209,0.05 0.476,-0.054 0.685,-0.054 -0.052,0.262 -0.052,0.73 0,0.995 0.315,-0.206 0.578,-0.055 0.839,-0.055 0.161,0 0.312,-0.099 0.528,-0.151 0,0.417 0.048,0.789 0.259,1.1 0.735,-0.576 1.68,-0.212 2.05,-1.261 0.365,-0.263 0.153,-0.313 0,-0.313 m 7.825,1.68 c 0.101,-0.265 0,-0.893 -0.059,-1.055 -0.05,0.055 0.898,0.213 1.314,0.055 0.11,-0.265 -0.203,-0.941 -0.153,-0.941 0.313,0 0.787,0 1.05,-0.054 C 4.15,-6.77 3.989,-7.399 3.989,-7.614 3.727,-7.768 2.524,-8.666 2.728,-8.292 3.413,-7.14 3.05,-7.353 1.676,-7.716 1.787,-7.399 2.099,-7.507 1.998,-6.507 1.151,-6.668 1,-6.77 0.424,-7.031 c 0.154,0.415 0.365,0.578 0.365,1.152 -0.685,-0.104 -1.05,-0.05 -1.526,-0.313 -0.414,-0.261 -0.313,-0.112 0,0.313 0.576,0.788 1.365,0.95 1.998,1.154 l 0.263,0.057 0.474,0.156 z M -1.574,-8.19 c 0.052,0.052 -0.526,-0.26 -1,-0.527 -0.05,0.425 -0.365,0.688 -0.679,0.899 -0.056,-0.158 -0.056,-0.158 -0.16,-0.261 -0.103,-0.213 -0.161,-0.587 -0.364,-0.587 -0.263,0 -0.636,0.374 -0.847,0.528 -0.153,-0.206 0.06,-1.152 -0.049,-0.995 -0.156,0.266 -0.841,0.367 -0.841,0.315 0.104,-0.261 -0.16,-0.472 0,-0.635 -0.683,0.057 -1.102,0.163 -1.674,0.374 -0.111,0.05 -0.213,0.05 -0.111,0.1 0.213,0.161 0.526,0.213 0.837,0.262 0,0.051 -0.102,0.112 -0.102,0.112 -0.052,0.204 0.052,0.467 0,0.728 0,0.109 -0.052,0.161 -0.052,0.263 0.474,0.057 0.839,-0.154 1.262,-0.313 -0.056,0.42 0.206,0.633 0.155,1.099 0.159,-0.099 0.211,-0.203 0.314,-0.262 0.37,-0.15 0.684,-0.204 0.947,-0.366 0.211,0.263 0.422,0.529 0.685,0.788 0.314,-0.259 0.84,-0.472 0.942,-0.839 0.373,0.213 0.897,0.417 1.261,0.476 -0.05,-0.263 0.161,-0.368 0.161,-0.633 0.052,-0.104 0.052,-0.263 0.052,-0.365 0.415,0.053 0.889,0.102 1.202,0.152 -0.052,-0.099 -0.102,-0.152 -0.102,-0.313 0.05,-0.211 0.102,-0.315 0.05,-0.476 0.213,-0.1 0.315,-0.152 0.524,-0.259 0.113,0 0.267,-0.104 0.267,-0.104 C 0.628,-9.242 0,-9.341 -0.363,-9.453 c -0.526,-0.1 -0.059,0.163 -0.32,0.528 -0.206,0.259 -0.578,0.058 -0.891,-0.054 0.052,0.578 0.052,0.687 0,0.789 M 5.565,3.572 C 5.302,2.998 5.41,2.422 5.778,1.898 6.09,1.373 6.565,0.789 6.565,0.06 6.616,-0.313 6.513,-0.729 6.403,-0.992 c 0,0 -0.154,0.049 -0.203,0.101 C 6.565,0 6.249,0.789 5.674,1.522 4.778,2.47 5.302,2.887 4.937,3.36 4.778,3.524 4.778,3.412 4.463,3.311 4.413,3.259 4.515,3.311 4.254,3.207 3.939,3.048 3.837,2.998 3.574,2.787 3.517,2.733 3.363,2.683 3.311,2.623 3.253,2.522 3.253,2.422 3.253,2.311 3.413,1.898 3.626,1.787 3.939,1.635 4.041,1.522 4.098,1.422 4.254,1.373 4.413,1.313 4.515,1.313 4.676,1.161 4.778,1.109 4.937,0.898 4.989,0.734 5.038,0.161 4.778,-0.891 5.354,-1.625 c 0.056,-0.053 0.262,-0.212 0.32,-0.261 0.205,-0.105 0.575,-0.105 0.679,-0.368 0.05,-0.213 0,-0.369 0.05,-0.685 0,-0.312 0.162,-0.576 0.11,-0.942 -0.11,-0.422 -0.579,-0.631 -0.474,-1.261 0,-0.052 0.21,-0.212 0.103,-0.212 l 0.211,-0.213 0.05,0 c 0.261,0.162 0.424,0.313 0.526,0.737 0,0.162 -0.313,0.212 -0.102,0.527 0.102,0.315 0.474,-0.315 0.474,0.315 0.052,0.37 -0.051,0.836 -0.109,1.158 -0.054,0.527 0.524,0.944 0.209,1.465 -0.209,0.052 -0.524,-0.209 -0.888,-0.05 0.263,0.209 0.416,0.472 0.526,0.889 0.153,0.787 1.099,0.261 1.099,-0.203 0.424,0.262 0.424,0.464 0.424,0.841 C 8.503,0.373 8.503,0.474 8.138,0.523 8.503,0.946 8.664,1.313 8.349,1.898 8.302,1.998 8.242,2.159 8.138,2.209 7.927,2.311 7.614,2.263 7.513,2.361 7.401,2.422 7.453,2.835 7.513,2.887 7.666,3.36 8.404,3.787 8.825,3.259 9.292,2.683 8.036,1.263 9.553,0.946 l 0,0.051 c 0.109,0.212 -0.261,0.376 -0.1,0.736 0.1,0.104 0.209,0.317 0.1,0.476 0.109,0.054 0.322,0.313 0.161,0.474 -0.161,0.204 -0.422,0.152 -0.476,0.315 -0.048,0.209 0,0.414 0.054,0.574 l -2.415,0 C 6.827,3.311 6.877,3.098 6.929,2.787 6.776,2.47 6.513,2.522 6.616,1.898 7.453,1.946 8.036,1.837 7.878,0.581 7.825,0.474 7.192,0.161 6.987,0.261 7.039,0.422 7.039,0.789 6.877,1.109 6.2,1.998 5.827,2.47 6.353,3.524 L 5.565,3.572 z m -3.25,0 L 2.261,3.524 C 1.998,3.36 1.787,3.472 1.626,3.207 1.524,2.887 1.787,2.733 1.787,2.522 1.839,2.159 1.626,1.898 1.626,1.522 1.676,1.313 1.787,0.997 1.787,0.789 1.737,0.32 1.524,0.06 1.737,-0.363 1.998,-0.265 2.261,-0.052 2.465,0.112 3.05,0.633 2.363,0.633 2.363,1.109 2.315,1.373 2.465,1.263 2.785,1.373 2.837,1.898 2.413,2.05 2.676,2.574 l 0,0.109 c 0.052,0 0.052,0.104 0.052,0.104 0.109,0.159 0.372,0.1 0.525,0.211 0.212,0.05 0.524,0.261 0.736,0.362 0.211,0.112 0.424,0.164 0.577,0.212 l -2.251,0 z m -7.355,0 c 0.211,-0.261 0.476,-0.574 0.68,-0.949 0.211,0.323 0.526,0.688 0.896,0.949 l -1.576,0 z m -1.422,0.051 c 0.265,-0.151 0.32,-0.416 0.424,-0.677 0.211,-0.635 0.787,-1.159 1.474,-1.311 0.415,-0.165 0.99,-0.165 1.362,-0.526 0.315,-0.32 0.578,-1.049 0.74,-1.635 0.099,-0.263 0.414,-0.727 0.729,-0.941 0.735,-0.524 2.622,-0.476 2.994,-0.476 0,0.213 0.054,0.424 0.054,0.63 l 0,4.885 -0.58,0 0,-4.885 c -0.472,0 -1.363,0 -1.996,0.37 -0.261,0.154 -0.576,0.58 -0.737,1.003 -0.153,0.573 -0.263,1.149 -0.678,1.575 -0.371,0.415 -0.898,0.415 -1.364,0.524 -0.685,0.202 -1,0.311 -1.474,1.365 l 0,0.048 -0.948,0.051 z m -1.465,-0.051 0,-4.885 c 0,-1.466 0.739,-2.831 1.889,-3.675 l 0,-0.048 c 0.839,-0.581 1.787,-1.156 2.785,-1.529 0.992,0.423 1.888,0.899 2.729,1.529 0.837,0.68 1.474,1.521 1.735,2.569 l -0.107,0 c -0.419,0.052 -2.518,-0.049 -3.308,0.476 -0.37,0.214 -0.632,0.678 -0.735,0.941 -0.159,0.583 -0.422,1.311 -0.685,1.631 -0.416,0.365 -0.94,0.365 -1.416,0.528 -0.685,0.154 -1.261,0.678 -1.472,1.313 -0.052,0.152 -0.104,0.261 -0.154,0.365 l 0,-1.414 c 0.263,-0.427 0.73,-0.74 1.204,-0.85 0.474,-0.15 1.049,-0.15 1.422,-0.523 0.263,-0.265 0.524,-1.1 0.731,-1.625 0.056,-0.261 0.37,-0.737 0.685,-0.943 C -1.837,-3.093 0,-3.042 0.365,-3.042 0.159,-3.515 -0.161,-3.939 -0.524,-4.303 -1.261,-4.88 -2.261,-5.567 -3.253,-5.929 c -0.998,0.362 -1.946,1.049 -2.785,1.677 -0.789,0.737 -1.261,1.785 -1.261,2.939 l 0,4.885 -0.628,0 z m -2.626,0 0,-0.261 c 0.214,0 0.474,0.101 0.678,0.101 0.21,0 0.687,-0.364 0.787,-0.525 0.059,-0.1 0.059,-0.204 0,-0.313 -0.1,-0.104 -0.577,-0.939 -0.363,-1 0.102,0 0.474,-0.052 0.422,-0.201 C -9.088,1.109 -9.503,1.161 -9.555,0.946 -9.665,0.633 -9.188,0 -9.029,-0.102 c 0.052,0.214 0.104,0.475 0.154,0.625 l 0.05,0 c 0.111,-0.203 0.111,-0.411 0.059,-0.68 0.263,0 0.576,0.579 0.576,0.79 l 0,0.265 c -0.162,0.152 -0.162,0.311 -0.211,0.572 0,0.476 0.313,1.578 0.049,1.841 -0.099,0.101 -0.262,0.213 -0.414,0.261 l -1.787,0 z m -1.526,0 c 0,-0.1 0.054,-0.16 0.163,-0.16 0.468,-0.101 0.678,0 0.891,0.16 l -1.054,0 z m -4.301,0 0,-0.16 c 0.365,0.112 0.889,0.32 1.104,0 0.048,-0.101 0.152,-0.258 0.152,-0.414 -0.053,-0.948 -0.943,-1.576 -0.789,-2.576 0.111,-0.626 0.637,-0.579 0.846,-0.889 0.154,-0.161 0.102,-0.684 0.05,-0.948 0.528,0.102 0.677,0.787 1.102,1.052 0.052,0 0.052,-0.104 0.052,-0.163 0.051,-0.574 0.372,-0.727 0.525,-1.152 -0.153,-0.099 -0.677,-0.208 -0.736,-0.421 -0.103,-0.263 0.32,-1.152 0.371,-1.47 0.051,-0.159 -0.051,-0.312 0,-0.524 0.051,-0.159 0.212,-0.159 0.415,-0.159 0.161,-0.26 0.058,-0.628 -0.203,-0.839 0.261,-0.21 0.466,-0.476 0.73,-0.686 0.059,0.111 0.262,0.319 0.32,0.476 0.102,0.421 0.051,-0.266 0.153,-0.417 0.209,0.313 0.576,0.941 0.474,1.315 -0.051,0.203 -0.627,0.522 -0.789,0.574 -0.099,0.054 -0.211,0 -0.261,0.101 -0.161,0.213 -0.161,0.635 -0.213,0.949 0.424,0.052 0.789,0.052 0.839,0.525 0.059,0.052 0.159,0.052 0.266,0.102 0.369,0.161 0.422,1.001 0.107,1.261 0.051,0.162 0.101,0.315 0.101,0.476 -0.05,0.15 -0.101,0.258 -0.101,0.363 0.051,0.474 1.312,1.049 1.151,-0.105 -0.05,-0.419 -0.734,-0.943 -0.626,-1.208 0.102,-0.102 0.264,-0.154 0.365,-0.154 0.636,-0.258 0.683,-0.367 0.839,-0.683 0.157,-0.314 0.261,0.316 0.424,0.365 0.363,0.107 0.1,-0.417 0.157,-0.525 0,-0.261 0.63,-0.629 0.891,-0.68 0.05,0.212 0.102,0.526 0.102,0.68 0.059,0.108 0.262,-0.529 0.372,-0.529 0.213,0.476 0.054,1.372 -0.576,1.476 -0.322,0.05 -0.583,-0.052 -0.899,0.05 -0.21,0 -0.414,0.214 -0.627,0.265 0,0.371 0.367,0.472 0.417,0.835 0.06,0.213 -0.05,0.426 -0.104,0.638 0.215,0.677 0.215,1.049 -0.837,0.836 -0.159,-0.048 -0.209,-0.1 -0.372,-0.048 0,0.152 1,0.524 1.209,0.676 0.164,0.161 0.424,0.685 0.164,0.95 -0.321,0.261 -1.735,0.42 -2.157,0.1 -0.207,-0.1 -0.418,-1.252 -0.469,-1.514 -0.058,0 -0.162,-0.11 -0.162,-0.164 l 0,-0.263 c -0.05,-0.048 -0.211,-0.157 -0.211,-0.212 -0.211,-0.734 -0.313,-1.362 -0.153,-2.047 0.103,-0.154 0.103,-0.365 0,-0.206 -1.16,1.519 0.995,3.465 0.628,5.091 l -0.738,0 c 0.11,-0.737 -0.153,-1.261 -0.364,-1.785 -0.05,-0.365 -0.11,-0.79 -0.262,-1.102 -0.109,-0.211 -0.371,-0.365 -0.637,-0.424 -1.573,-0.261 -0.414,1.898 -0.201,2.362 0.099,0.264 0.313,0.584 0.364,0.901 l 0,0.048 -2.203,0 z"
             style="fill:#00483a;fill-opacity:1;fill-rule:evenodd;stroke:none"
             id="path35170" />
        </g>
        <g
           id="g35172"
           transform="translate(407.983,63.4308)">
          <path
             inkscape:connector-curvature="0"
             d="m 0,0 c 0.156,0.052 0.729,-0.476 0.68,-0.581 -0.211,0.06 -0.367,-0.313 -0.628,-0.467 -0.161,-0.109 -0.313,-0.059 -0.524,0.051 -0.054,0 -0.315,-0.16 -0.374,0 0,0.052 -0.202,0.366 -0.202,0.476 -0.061,0 -0.061,0.045 0.048,0.101 0.052,0.05 0.265,0.102 0.528,0.211 C -0.372,-0.106 -0.159,0.052 0,0 m -0.159,-0.261 c 0,0 -0.102,-0.057 -0.161,-0.109 -0.052,-0.151 0.109,-0.211 0.211,-0.151 0.109,0.045 0.265,0.151 0.265,0.151 -0.104,0.052 -0.215,0.161 -0.315,0.109 m 1.1,0.576 C 1.154,0.315 1.254,0.154 1.204,0 1.415,-0.106 1.467,-0.318 1.365,-0.521 1.254,-0.581 1.576,-0.37 1.678,-0.581 1.78,-0.735 1.73,-0.786 1.78,-0.844 1.519,-0.945 1.415,-1.157 1.204,-0.997 c 0,-0.051 0,-0.371 -0.05,-0.371 -0.052,0 -0.889,0.058 -1.102,0 -0.474,0 -0.578,-0.051 -0.474,0.107 0.837,-0.049 0.735,0.417 1.102,0.526 0.109,0.053 0.211,0 0.261,0.053 0,0.161 -0.104,0.312 -0.261,0.421 C 0.628,-0.157 0.265,0.266 -0.059,0.154 -0.211,0.266 0,0.628 0.313,0.417 0.524,0.315 0.578,0.628 0.941,0.315 m -3.465,-10.347 c 0.425,0.372 0.789,0.633 1.156,0.996 0.633,0.111 1.107,-0.263 1.733,-0.211 0.159,0 0.364,0.111 0.526,0.211 -0.054,0.111 0,0.111 -0.102,0.164 -0.211,-0.053 -0.374,-0.164 -0.633,-0.164 -0.528,0.052 -0.789,0.213 -1.365,0.213 0.1,0.213 0.261,0.365 0.363,0.528 0,0.1 0,0.157 0.059,0.259 0.052,0.054 1.516,0.102 1.728,0.102 0.161,0.059 0.263,0 0.372,-0.048 C 1.415,-8.56 1.626,-9.036 1.941,-9.347 2.1,-9.506 2.152,-9.56 2.202,-9.714 l -4.726,-0.318 z m -4.726,3.993 c -0.159,0.055 -0.422,0.157 -0.575,0.105 0.049,0.211 0.153,0.422 0.049,0.576 0,0.05 -0.099,0.261 -0.049,0.261 0.472,0.052 0.68,-0.626 0.575,-0.942 M 4.2,-7.823 c 0,0.414 0.206,1.315 0.418,1.676 -0.153,0.108 -0.315,0.108 -0.526,0.163 L 3.881,-6.564 C 3.567,-6.508 3.306,-6.41 3.04,-6.358 l 0.112,0.583 c -0.213,0 -0.528,0.052 -0.785,0.052 l -0.062,-0.526 0,-0.052 c -0.468,0.052 -0.786,0.052 -1.255,0 l -0.055,0.578 c -0.266,0 -0.471,-0.052 -0.73,-0.052 L 0.313,-6.41 c -0.261,0 -0.524,-0.098 -0.785,-0.212 l -0.263,0.638 c -0.213,-0.055 -0.313,-0.055 -0.474,-0.163 0.161,-0.361 0.363,-1.202 0.422,-1.676 0.991,0.261 3.939,0.316 4.987,0 m -10.087,5.406 c 0.317,-0.315 0.688,-0.68 1.264,-0.841 0.364,-0.1 0.89,0 1.211,-0.207 0.203,-0.057 0.203,-0.473 0.103,-0.632 -0.052,-0.053 0.05,-0.103 0.05,-0.103 0.372,0.05 0,0.366 0.211,0.465 0.213,-0.258 0.839,-1.31 0.686,-1.777 0,-0.263 -0.212,-0.37 -0.371,-0.527 -0.526,-0.734 -1.263,-1.31 -1.364,-2.308 -0.263,0.052 -0.313,0.311 -0.526,0.413 -0.103,0.111 -0.16,0.059 -0.103,-0.102 0.206,-0.363 0.366,-0.474 0.891,-0.422 0.948,0.059 1.787,0.163 2.726,0.583 0.109,0 0.061,-0.369 -0.048,-0.42 -0.476,-0.478 -2.839,-1.265 -3.203,-1.004 -0.366,0.263 -0.423,0.374 -0.477,0.638 -0.047,0.151 -0.26,0.366 -0.313,0.466 -0.362,0.846 1.154,2.472 1.526,3.098 0.1,0.111 0.415,0.372 0.263,0.473 -0.525,0.266 -1.736,-0.05 -2.102,-0.524 -0.312,-0.262 -0.684,0.162 -0.784,0.577 -0.739,-0.053 -1.162,0.159 -1.529,0.525 0.367,0.311 1.155,0.477 1.629,0.581 -0.052,0.368 0,0.785 0.26,1.048 m -4.351,-4.147 c 0.261,-0.107 0.467,-0.209 0.887,-0.209 l 0,-0.526 c -0.574,-0.05 -0.887,0.152 -0.887,0.735 m 4.616,-2.209 c 0,-0.099 0.261,-0.733 0.261,-0.733 -0.998,-0.263 -2.251,-0.945 -3.253,-1.89 -0.048,-0.051 -0.159,0.208 -0.211,0.263 -0.102,0.108 -0.159,0.108 -0.261,0.211 0.159,0.265 1.211,1.051 1.414,1.153 0.162,0.109 0.847,0.583 2.05,0.996 m -2.627,2.315 c 0.052,-0.106 0.161,-0.213 0.052,-0.315 -0.206,-0.263 -0.465,0.151 -0.465,-0.209 0.152,-0.054 0.362,-0.106 0.465,-0.165 0.161,0 0.211,0.262 0.265,0.374 0.156,0.265 -0.206,0.151 -0.104,0.524 0,0.21 0,0.21 0.161,0.265 0.05,0 0.05,-0.055 0.152,-0.109 0.051,-0.054 0.314,0 0.424,-0.054 0.154,0 0.102,-0.263 0.313,-0.211 0.051,0 0.102,0.109 0.211,0.161 0.154,0 0.263,-0.052 0.474,0 0,-0.261 0.054,-0.688 -0.32,-0.785 0,-0.165 0.109,-0.054 0.109,-0.213 0.052,-0.214 -0.161,-0.417 -0.161,-0.58 0.052,-0.207 0.161,-0.311 0.161,-0.469 -0.109,-0.417 -0.576,-0.155 -0.841,-0.214 -0.259,-0.102 -0.522,-0.678 -0.896,-0.626 -0.261,0.048 0,0.212 -0.261,0.626 -0.104,0.163 -0.263,-0.052 -0.152,-0.152 0.259,-0.163 -0.111,-0.526 0.152,-0.689 0.578,-0.149 0.898,0.374 1.157,0.638 0.156,0.101 0.367,0 0.578,0 0.211,0.051 0.263,0.262 0.416,0.366 0.212,0 0.321,-0.215 0.423,-0.315 0,0 0.103,-0.051 0.049,0 -0.414,0 -2.727,-1.31 -2.988,-1.89 -0.052,0.525 0.152,0.891 -0.211,1.201 -0.159,0.113 -0.213,-0.048 -0.365,-0.1 -0.211,0.363 -0.163,0.626 -0.163,1.155 -0.311,0 -0.47,0.208 -0.834,0.262 0.21,0.42 0.523,0.573 1.149,0.573 0.161,0.524 -0.1,1.16 0.637,1.051 0.1,0.109 0.202,0.265 0.362,0.319 0.103,0.055 0,-0.319 0.051,-0.419 m 0.84,-0.524 c -0.101,-0.106 -0.153,-0.213 -0.203,-0.317 0.415,-0.11 0.677,0.052 0.576,0.472 0,-0.155 -0.317,-0.107 -0.373,-0.155 m -1.153,-0.525 c -0.313,0 -0.313,-0.164 -0.474,-0.368 0.211,0 0.422,-0.107 0.526,0 0.313,0.417 0.163,0.263 -0.052,0.368 m 0.474,-0.529 c -0.05,-0.208 0,-0.422 0.052,-0.625 0,-0.058 0.313,0 0.26,0.151 -0.473,0.687 0,0.315 0.316,0.635 0,0 0.21,0.263 0.051,0.204 -0.101,-0.048 -0.627,-0.263 -0.679,-0.365 m 1.052,-0.102 c 0.152,0 0.152,0.263 -0.052,0.204 0,-0.048 0,-0.204 0.052,-0.204 M 9.19,-8.925 c 1.048,-0.111 2.991,-1.107 3.303,-2.263 -0.151,-0.047 -0.263,-0.099 -0.526,-0.36 -0.573,0.94 -1.94,1.573 -2.938,1.888 0.101,0.212 0.161,0.413 0.161,0.735 m 2.515,2.361 c 0.161,-0.058 0.161,-0.107 0.262,-0.058 0,0.114 0.162,0.264 0.214,0.425 0.049,0.315 0.101,0.364 0.261,0.05 0.161,-0.361 -0.052,-0.68 -0.212,-0.889 0.16,-0.111 0.423,-0.263 0.263,-0.635 C 12.442,-7.823 12.342,-7.823 12.23,-7.982 12.181,-8.036 12.181,-8.244 12.129,-8.295 12.02,-8.51 11.653,-8.773 11.231,-8.661 11.077,-8.61 10.816,-8.458 10.607,-8.458 10.503,-8.51 10.34,-8.61 10.238,-8.61 c -0.785,0 -1.259,0.152 -1.048,0.315 l 0.052,-0.052 c 0.261,0.052 0.261,0.103 0.472,0.261 0.052,0.05 0.417,0.05 0.265,0.152 -0.113,0 -0.265,0.059 -0.374,0.059 -0.211,-0.059 -0.787,-0.583 -0.678,0.052 -0.109,0.104 -0.161,0.152 -0.109,0.316 0.052,0.098 0.263,0.312 0.424,0.26 0.048,0 0.211,-0.162 0.261,-0.26 0.263,-0.164 0.576,-0.105 0.837,0 0.104,0 0.315,0.098 0.367,0.158 0.161,-0.06 0.322,-0.158 0.524,-0.06 0.059,0 0.111,0.06 0.111,0.06 0.052,0 0.415,-0.06 0.625,-0.06 -0.101,0.06 -0.21,0.06 -0.21,0.06 -0.415,0.202 -0.363,0.367 -0.626,0.415 -0.263,0.049 -0.315,-0.102 -0.424,-0.154 -0.263,-0.107 -0.891,-0.261 -0.993,-0.159 l -0.109,0.1 c 0.211,0.111 0.526,0.165 0.687,0.262 0.315,0.263 0.211,0.427 0.678,0.321 -0.052,0.154 -0.102,0.154 -0.208,0.206 -0.155,0.109 0.369,0.109 0.469,0 0.059,0 0.163,0.211 0.163,0.374 0,0.367 0.311,-0.055 0.311,-0.58 m 1.262,-0.107 c 0.266,-0.214 0.423,-0.476 0.365,-1 0.16,0.059 0.16,0.109 0.264,0.213 0.26,-0.417 0.056,-1.052 -0.206,-1.414 0.262,-0.264 0.576,0.473 0.576,0.262 0,-0.637 -0.474,-1.261 -1.102,-1.422 -0.058,-0.265 -0.261,-0.839 -0.32,-0.625 -0.154,0.625 -2.204,1.732 -2.413,1.673 -0.052,-0.052 0,0.059 0,0.112 0,0 0.052,0.049 0.107,0.099 0.68,-0.099 1.415,-0.211 2.104,-0.099 l 0,-0.264 c -0.112,-0.211 -0.375,-0.37 -0.161,-0.524 0.049,-0.054 0.101,-0.109 0.209,0.051 0.416,0.473 0.942,1.471 0.213,1.997 0.102,0.154 0.203,0.263 0.261,0.417 0.103,0.213 0,0.31 0.103,0.524 M 7.455,-8.244 c -0.528,0.632 -1.104,1.417 -1.628,2.097 -0.109,0.108 -0.263,0.265 -0.313,0.424 -0.108,0.211 -0.057,0.415 0,0.626 0.05,0.314 0.204,0.577 0.313,0.838 0.05,0.162 0.105,0.321 0.152,0.425 0.213,0.369 0.163,-0.686 0.323,-0.578 l 0.049,0.106 c -0.049,0.156 -0.159,0.571 0,0.841 0.104,0.107 0.317,0.107 0.576,0.156 0.216,0.051 0.528,-0.049 0.685,0.051 0.317,0.109 0.63,0.526 0.843,0.788 0.415,-0.051 0.574,-0.262 0.675,-0.528 0.06,-0.099 -0.049,-0.209 0,-0.26 0.214,-0.155 0.897,-0.1 1.21,-0.264 0.367,-0.101 0.367,-0.101 0.163,-0.416 -0.265,-0.321 -0.637,-0.524 -1.261,-0.524 0,-0.212 -0.263,-0.524 -0.637,-0.686 -0.052,0 -0.993,0.686 -1.415,0.628 0,0 -0.311,0 -0.472,-0.104 C 6.302,-4.725 6.827,-5.358 7.031,-5.617 7.353,-5.984 8.503,-7.299 8.294,-7.982 8.192,-8.399 8.081,-8.773 7.878,-9.186 7.768,-9.347 7.455,-9.347 7.294,-9.399 c -0.891,-0.21 -1.94,-0.107 -2.779,0.213 -0.787,0.261 -0.948,0.728 -2.21,0.787 0.211,-0.424 0.899,-0.787 1.472,-0.787 0.315,-0.113 -0.471,-0.846 0,-1.161 0.212,-0.153 0.475,-0.261 0.629,-0.524 0.262,-0.474 0.109,0.574 0.059,0.738 l 0.05,0.101 0,-0.052 c 0,0.109 0.314,0 0.416,-0.049 0.057,0 0.16,-0.475 0.321,-0.629 0.727,-0.426 0.68,0.73 0.94,0.842 0.11,0.049 0.263,0.049 0.372,0.049 0.154,0 -0.161,-1.154 -0.632,-1.628 -0.368,0.154 -0.738,0.311 -1.103,0.366 -0.052,-0.154 -0.161,-0.524 -0.423,-0.415 -0.206,0.101 -0.261,0.261 -0.467,0.415 -0.475,0.262 -1.159,0.682 -0.899,1.573 -0.416,-0.1 -1.049,0.476 -1.151,0.841 -0.109,0.209 -0.422,0.581 -0.159,0.737 0.37,0.207 1.209,0.107 1.576,0 0.209,0 0.524,-0.054 0.735,-0.104 0.104,-0.052 0.159,-0.109 0.314,-0.158 0.736,-0.366 2.1,-0.417 2.835,-0.266 0.367,0.111 0.739,0.215 0.739,0.635 0,0.052 -0.051,0 -0.051,0.1 -0.06,-0.1 -0.266,-0.624 -0.423,-0.469 m -8.301,6.613 -0.05,0.058 0.05,0.049 c 0.263,0.105 1.737,0.053 2.05,-0.049 l 0.05,0 c -0.05,-0.157 -0.05,-0.157 -0.1,-0.37 l 0,-0.053 c -0.63,0.053 -1.263,0.053 -1.889,0 l -0.052,0 c 0,0.162 -0.059,0.313 -0.059,0.365 m 4.152,-4.67 c -0.102,0.052 -0.102,0.468 0,0.578 0.049,0.106 0.158,0.106 0.158,0.263 0.051,0.363 0.155,0.836 0.103,1.201 -0.787,0.109 -0.84,0.524 -0.943,0.737 L 2.516,-3.623 c 0.162,-0.315 0.475,-0.636 0.79,-0.735 0.158,-0.104 0,-0.526 -0.367,-0.367 -0.212,-0.261 -0.474,-0.474 -0.634,-0.633 -0.103,-0.052 -0.103,0 -0.103,0.21 -0.05,0 -0.159,-0.051 -0.159,-0.16 0,-0.204 0.109,-0.102 0.109,-0.365 -0.052,-0.102 -0.474,-0.42 -0.633,-0.366 -0.154,0.055 -0.154,0.316 -0.104,0.527 0.052,0.052 0.052,0.102 0.052,0.102 0.052,0.052 0.052,0.102 0.109,0.161 0.05,0.152 0.415,0.365 0.791,0.625 C 2.254,-4.52 2.202,-4.358 2.152,-4.306 1.837,-4.097 1.154,-4.624 0.789,-4.52 0.68,-4.462 0.891,-3.938 0.941,-3.887 l -0.104,0 C 0.729,-3.993 0.524,-4.725 0.415,-5.199 0.365,-5.512 0.265,-5.249 0.052,-5.41 0.156,-5.723 0.313,-5.775 0,-6.093 c -0.109,-0.104 -0.372,-0.365 -0.422,-0.265 -0.161,0.319 -0.161,0.583 -0.104,0.741 0.054,0.105 0.526,0.787 0.467,1.155 0,0.104 -0.202,0.05 -0.261,0.104 -0.263,0.099 -0.467,0.365 -0.526,0.623 l -0.415,0 c -0.107,0 0.313,-0.415 0.213,-0.524 -0.061,0 -0.32,-0.099 -0.161,-0.203 0.161,-0.109 0.363,0.05 0.363,-0.263 0.111,-0.159 0.059,-0.685 -0.05,-0.685 -0.052,0 -0.261,0.102 -0.313,0.161 -0.104,0.05 -0.474,0.365 -0.526,0.466 -0.104,0.263 0,0.524 -0.052,0.79 0,0.106 -0.052,0.317 -0.052,0.37 -0.159,0.158 -0.105,0.365 0,0.474 0.206,0.151 0.526,0.208 0.791,0.315 0.1,0.102 0.1,0.573 0.202,0.678 0,0.056 0.374,0.056 0.526,0.108 0.372,0.052 1.109,0 1.474,-0.052 0.05,0 0.1,0.104 0.159,0.104 0.417,0.266 0.941,0.211 1.102,0.266 0.415,0.157 0.415,0.099 0.838,0.157 l 0.524,0 c 1.154,0.102 1.577,-0.737 1.314,-1.736 -0.05,-0.156 -0.05,-0.314 -0.16,-0.426 0,-0.047 -0.102,-0.152 -0.154,-0.152 -0.577,0 -0.159,0.529 -0.21,0.998 0,0.316 -0.102,0.472 -0.264,0.683 l -0.103,0 C 4.515,-2.941 4.406,-3.522 4.145,-3.735 4.303,-3.834 4.618,-4.097 4.515,-4.15 4.406,-4.306 4.303,-4.306 4.303,-4.358 4.252,-4.52 4.303,-4.462 4.2,-4.624 4.2,-4.674 4.145,-4.674 4.092,-4.783 4.041,-5.097 4.145,-5.41 3.939,-5.358 c 0,0 -0.109,0 -0.058,-0.154 L 3.939,-5.723 C 4.092,-6.039 3.676,-6.147 3.306,-6.301 m 8.399,-6.197 c 0.052,0.262 0.213,0.474 0.525,0.739 0.373,0.26 0.475,0.571 0.788,0.784 0.314,0.154 0.526,-0.421 0.424,-0.573 0.21,0.049 0.414,0.101 0.576,-0.06 0.263,-0.317 0.21,-0.576 0.103,-0.89 l -2.416,0 z m -4.562,0 c 0.362,0.314 0.573,0.685 1.049,0.95 0.05,0.101 0.152,0.261 0.361,0.313 0.528,0.21 0.737,0.047 1.161,-0.264 0.052,0.103 0.152,0.154 0.265,0.311 -0.689,0.688 -1.213,0.476 -1.737,0.163 0,0 -0.948,-0.788 -0.889,-0.632 0.152,0.786 0.676,1.261 1.313,1.573 0.05,0.052 0.152,0.164 0.261,0.164 0.263,0 0.576,-0.112 0.787,-0.213 0.152,-0.052 2.253,-1.154 1.939,-1.626 -0.209,-0.318 -0.363,-0.524 -0.472,-0.789 l -0.787,0.05 c 0.109,0.262 0.261,0.525 0.474,0.739 -0.161,0.102 -0.261,0.312 -0.474,0.047 -0.263,-0.213 -0.474,-0.472 -0.789,-0.687 -0.05,-0.05 -0.102,-0.05 -0.211,-0.099 l -2.251,0 z m -1.579,0 0,0.158 -3.31,0 c 0,0 0.262,0.415 0.737,0.628 l 3.151,0 0,-0.786 -0.578,0 z m -5.775,0 c -0.474,0.573 -0.898,0.841 -1.157,1.051 0.055,0.051 0.055,0.16 0.159,0.212 0.313,0.414 1.365,-0.842 1.678,-1.164 0.581,0.586 1.157,1.054 1.898,1.424 0.048,0 -0.267,0.475 -0.324,0.524 -1.102,-0.311 -1.628,-0.109 -2.515,0.055 0.676,-0.366 1.05,-0.688 1.201,-0.949 -0.205,-0.263 -0.26,-0.367 -0.364,-0.468 -0.576,0.68 -1.211,1.051 -2.309,1.628 l 4.249,0.265 0.11,0 c 0.101,0 0.94,-1.105 0.891,-1.315 -0.053,-0.161 -0.682,-0.422 -0.841,-0.477 -0.365,-0.158 -0.735,-0.472 -1.1,-0.786 l -1.576,0 z m -2.889,0 0,0.786 1.261,0 c 0.471,0.055 0.943,-0.365 1.154,-0.786 l -0.889,0 c -0.161,0.099 -0.424,0.158 -0.896,0.158 l 0,-0.158 -0.63,0 z m -5.149,0 0,0.158 c 0,0.263 -0.413,0.581 -0.261,0.792 1.101,1.048 1.998,1.464 3.1,1.834 0.313,0.105 0.787,0.105 1.099,-0.524 0.162,-0.322 0.162,-0.524 0.263,-0.846 0.052,-0.203 0.263,-0.363 0.373,-0.573 0.051,-0.102 -0.321,-0.156 -0.321,-0.156 -0.205,0 -0.315,0.156 -0.466,0.265 -0.375,0.36 -0.526,0.727 -1.05,0.94 -0.058,0.048 -0.162,0.108 -0.213,0.108 -0.108,0 -0.839,-0.422 -0.998,-0.525 -0.212,-0.163 -0.263,-0.21 -0.161,-0.523 0.685,0.152 1.159,0.727 1.838,0 0.11,-0.06 0.162,-0.211 0.209,-0.265 0.054,-0.057 0.163,-0.057 0.214,-0.112 0.213,-0.099 0.364,-0.358 0.526,-0.474 0.049,0 0.101,-0.05 0.158,-0.099 l -1.786,0 c 0,0.158 -0.05,0.366 -0.162,0.215 -0.101,-0.057 -0.209,-0.166 -0.312,-0.215 l -1.051,0 c -0.103,0.158 -0.103,0.421 -0.159,0.573 -0.203,0.426 -0.466,0.166 -0.314,-0.048 0.111,-0.159 0.161,-0.31 0.213,-0.525 l -0.739,0 z m -3.302,0 c 0.052,0.573 0.467,0.999 0.991,0.95 -0.263,0.415 -0.626,0.836 -0.626,1.516 0,0.161 0.05,0.423 0.05,0.633 0.211,-0.472 0.474,-0.576 0.841,-0.839 0.681,-0.474 1.209,-1.158 0.944,-2.26 l -2.2,0 z"
             style="fill:#00483a;fill-opacity:1;fill-rule:evenodd;stroke:none"
             id="path35174" />
        </g>
        <g
           id="g35176"
           transform="translate(440.5203,44.6618)">
          <path
             inkscape:connector-curvature="0"
             d="m 0,0 c 0,-2.274 -1.792,-3.864 -3.993,-3.864 -2.214,0 -4.073,1.59 -4.073,3.864 0,2.067 1.859,3.792 4.137,3.792 C -1.579,3.792 0,2 0,0 m -3.993,-2.616 c 1.513,0 2.345,0.958 2.345,2.412 0,1.381 -0.832,2.681 -2.345,2.681 -1.522,0 -2.415,-1.032 -2.415,-2.477 0,-1.382 0.965,-2.616 2.415,-2.616"
             style="fill:#00483a;fill-opacity:1;fill-rule:evenodd;stroke:none"
             id="path35178" />
        </g>
        <g
           id="g35180"
           transform="translate(430.7967,46.4518)">
          <path
             inkscape:connector-curvature="0"
             d="m 0,0 c -0.479,0.343 -1.033,0.554 -1.725,0.554 -1.311,0 -2.271,-0.899 -2.271,-2.281 0,-1.445 0.96,-2.679 2.482,-2.679 0.692,0 1.38,0.341 2.005,0.612 0,0.079 0.134,0.079 0.134,0.079 L 0.901,-3.996 0.348,-5.098 0.276,-5.306 c -0.132,-0.136 -0.82,-0.414 -1.723,-0.414 -2.69,0 -4.202,1.655 -4.202,3.794 -0.071,2.345 1.789,3.793 3.924,3.793 0.621,0 1.246,-0.068 1.869,-0.211 L 0.348,1.38 0.348,0.209 0,0 z"
             style="fill:#00483a;fill-opacity:1;fill-rule:evenodd;stroke:none"
             id="path35182" />
        </g>
        <g
           id="g35184"
           transform="translate(446.311,41.2793)">
          <path
             inkscape:connector-curvature="0"
             d="m 0,0 c -0.198,-0.204 -0.963,-0.546 -1.787,-0.546 -1.656,0.064 -2.692,0.965 -2.624,2.959 l 0,2.759 c 0,0.42 0.078,1.109 -0.269,1.248 l -0.144,0.207 0,0.069 0.212,0.199 1.924,0 0.281,-0.199 0,-0.069 L -2.609,6.42 C -2.954,6.281 -2.887,5.726 -2.887,5.172 l 0,-2.68 c 0,-0.97 0.199,-1.805 1.514,-1.805 C -0.821,0.767 0,0.968 0,2.065 L 0,5.247 C 0,5.592 0,6.281 -0.343,6.42 l -0.131,0.207 0,0.069 0.276,0.199 1.992,0 L 2.006,6.696 1.794,6.42 C 1.527,6.349 1.594,5.726 1.594,5.247 l 0,-3.867 C 1.594,0.901 1.45,0.276 1.939,0.142 l 0.067,-0.209 0,-0.067 -0.212,-0.213 -1.513,0 L 0,-0.134 0,0 z"
             style="fill:#00483a;fill-opacity:1;fill-rule:evenodd;stroke:none"
             id="path35186" />
        </g>
        <g
           id="g35188"
           transform="translate(451.5556,42.659)">
          <path
             inkscape:connector-curvature="0"
             d="m 0,0 c 0,-0.613 -0.067,-0.96 0.489,-1.306 l 0.067,-0.141 0,-0.067 -0.209,-0.276 -1.858,0 -0.216,0.276 0,0.067 0.146,0.141 c 0.343,0.202 0.414,0.346 0.414,1.033 l 0,4.276 c 0,0.558 0,0.757 -0.414,1.037 l -0.146,0.207 0,0.069 0.216,0.199 1.586,0 0.134,-0.199 3.662,-4.629 0,3.249 c 0,0.625 0,0.824 -0.426,1.104 l -0.131,0.207 0,0.069 0.277,0.199 1.859,0 0.209,-0.199 0,-0.069 L 5.514,5.04 C 5.172,4.827 5.103,4.693 5.103,4.137 l 0,-5.998 L 4.76,-2.07 C 4.003,-1.79 3.792,-1.583 3.314,-0.96 L 0,3.179 0,0 z"
             style="fill:#00483a;fill-opacity:1;fill-rule:evenodd;stroke:none"
             id="path35190" />
        </g>
        <g
           id="g35192"
           transform="translate(461.2881,42.3867)">
          <path
             inkscape:connector-curvature="0"
             d="m 0,0 c 0,-0.62 0,-0.688 0.409,-1.033 l 0.135,-0.141 0,-0.067 -0.199,-0.276 -2.073,0 -0.275,0.276 0,0.067 0.201,0.209 c 0.342,0.133 0.209,0.623 0.209,1.104 l 0.067,4.48 -0.619,0 c -0.481,0 -0.757,-0.07 -1.102,-0.343 L -3.45,4.14 l -0.278,0.345 0.345,1.236 0.278,0.211 0.203,-0.144 0.276,0 4.207,0 0.41,0.144 L 2.201,5.589 1.857,4.343 1.581,4.14 1.378,4.343 C 1.167,4.619 1.033,4.619 0.688,4.619 L 0,4.619 0,0 z"
             style="fill:#00483a;fill-opacity:1;fill-rule:evenodd;stroke:none"
             id="path35194" />
        </g>
        <g
           id="g35196"
           transform="translate(467.9735,42.2475)">
          <path
             inkscape:connector-curvature="0"
             d="m 0,0 c 0.069,-0.347 0,-0.481 0.477,-0.894 l 0.146,-0.208 -0.278,-0.276 -2.07,0 -0.211,0.276 0.146,0.208 c 0.278,0.201 0.278,0.547 0.278,1.103 l 0,1.581 -1.662,2.692 C -3.517,5.038 -3.797,5.381 -4.07,5.45 l 0.144,0.477 0.955,0 c 0.214,0 0.767,0 1.035,-0.546 l 1.378,-2.211 0.97,1.518 c 0.278,0.35 0.345,0.693 0,0.762 l -0.134,0.208 0,0.07 0.278,0.199 1.79,0 L 2.479,5.584 0,1.79 0,0 z"
             style="fill:#00483a;fill-opacity:1;fill-rule:evenodd;stroke:none"
             id="path35198" />
        </g>
        <g
           id="g35200"
           transform="translate(523.2789,42.7374)">
          <path
             inkscape:connector-curvature="0"
             d="m 0,0 0.144,0 0.203,-0.281 -0.481,-1.38 -0.276,-0.208 -4.202,0 -0.213,0.276 0,0.067 0.079,0.211 c 0.41,0.133 0.343,0.692 0.343,1.168 l 0,3.935 c 0,0.203 0.136,1.034 -0.28,1.173 l -0.208,0.208 0,0.068 0.279,0.201 1.999,0 0.203,-0.201 0,-0.068 -0.137,-0.208 C -2.959,4.822 -2.824,4.267 -2.824,3.788 l 0,-4.277 1.179,-0.134 C -0.613,-0.692 -0.134,-0.079 0,0"
             style="fill:#00483a;fill-opacity:1;fill-rule:evenodd;stroke:none"
             id="path35202" />
        </g>
        <g
           id="g35204"
           transform="translate(515.0815,46.5949)">
          <path
             inkscape:connector-curvature="0"
             d="m 0,0 c 0,0.477 0.067,0.891 -0.343,1.104 l -0.146,0.207 0,0.069 0.28,0.199 1.999,0 0.2,-0.199 0,-0.069 -0.2,-0.207 C 1.442,1.033 1.512,0.342 1.512,-0.069 l 0,-3.937 C 1.579,-4.549 1.442,-5.04 1.79,-5.172 l 0.2,-0.211 -0.267,-0.343 -1.932,0 -0.28,0.343 0.146,0.211 C 0.067,-5.04 0,-4.549 0,-4.07 L 0,0 z"
             style="fill:#00483a;fill-opacity:1;fill-rule:evenodd;stroke:none"
             id="path35206" />
        </g>
        <g
           id="g35208"
           transform="translate(489.5639,44.6618)">
          <path
             inkscape:connector-curvature="0"
             d="m 0,0 c 0,-2.274 -1.8,-3.864 -4.07,-3.864 -2.137,0 -4.006,1.59 -4.006,3.864 0,2.067 1.869,3.792 4.14,3.792 C -1.589,3.792 0,2 0,0 m -4.006,-2.616 c 1.517,0 2.348,0.958 2.348,2.412 0,1.381 -0.831,2.681 -2.348,2.681 -1.511,0 -2.41,-1.032 -2.41,-2.477 0,-1.382 0.966,-2.616 2.41,-2.616"
             style="fill:#00483a;fill-opacity:1;fill-rule:evenodd;stroke:none"
             id="path35210" />
        </g>
        <g
           id="g35212"
           transform="translate(479.9737,46.5262)">
          <path
             inkscape:connector-curvature="0"
             d="m 0,0 c -0.487,0.27 -1.102,0.546 -1.79,0.546 -1.245,0 -2.213,-0.888 -2.213,-2.266 0,-1.461 0.968,-2.692 2.415,-2.692 0.756,0 1.446,0.272 2.065,0.624 0,0 0.072,0 0.149,0.063 L 0.893,-4.001 0.345,-5.103 0.28,-5.314 c -0.21,-0.136 -0.834,-0.414 -1.724,-0.414 -2.693,0 -4.282,1.588 -4.282,3.795 0,2.343 1.865,3.792 3.936,3.792 0.688,0 1.303,-0.065 1.926,-0.278 L 0.345,1.38 0.345,0.203 0,0 z"
             style="fill:#00483a;fill-opacity:1;fill-rule:evenodd;stroke:none"
             id="path35214" />
        </g>
        <g
           id="g35216"
           transform="translate(512.8685,46.4518)">
          <path
             inkscape:connector-curvature="0"
             d="m 0,0 c -0.479,0.343 -1.035,0.554 -1.79,0.554 -1.245,0 -2.204,-0.899 -2.204,-2.281 0,-1.445 0.959,-2.679 2.483,-2.679 0.685,0 1.377,0.341 2.002,0.612 0,0.079 0.132,0.079 0.132,0.079 L 0.901,-3.996 0.343,-5.098 0.278,-5.306 C 0.142,-5.442 -0.546,-5.72 -1.449,-5.72 c -2.688,0 -4.202,1.655 -4.202,3.794 -0.067,2.345 1.791,3.793 3.861,3.793 0.688,0 1.311,-0.068 1.932,-0.211 L 0.343,1.38 0.343,0.209 0,0 z"
             style="fill:#00483a;fill-opacity:1;fill-rule:evenodd;stroke:none"
             id="path35218" />
        </g>
        <g
           id="g35220"
           transform="translate(495.4937,41.353)">
          <path
             inkscape:connector-curvature="0"
             d="m 0,0 c -0.209,-0.208 -0.968,-0.556 -1.792,-0.62 -1.66,0.136 -2.759,0.967 -2.625,2.96 l 0,2.834 c 0,0.408 0.064,1.102 -0.343,1.172 l -0.136,0.276 0.267,0.277 1.936,0 0.278,-0.277 -0.211,-0.276 C -2.969,6.276 -2.902,5.653 -2.902,5.174 l 0,-2.692 c 0,-0.97 0.142,-1.789 1.522,-1.789 C -0.834,0.693 0,0.96 0,2.07 l 0,3.104 c 0,0.408 0.07,1.102 -0.28,1.172 l -0.209,0.276 0.209,0.277 2.003,0 L 2,6.622 1.857,6.346 C 1.514,6.276 1.514,5.653 1.514,5.174 l 0,-3.868 C 1.514,0.894 1.445,0.203 1.857,0.07 L 2,-0.141 1.723,-0.42 0.199,-0.42 0,-0.208 0,0 z"
             style="fill:#00483a;fill-opacity:1;fill-rule:evenodd;stroke:none"
             id="path35222" />
        </g>
        <g
           id="g35224"
           transform="translate(500.5975,42.7374)">
          <path
             inkscape:connector-curvature="0"
             d="m 0,0 c 0,-0.623 -0.074,-1.038 0.414,-1.315 l 0.135,-0.211 -0.204,-0.279 -1.869,0 -0.199,0.279 0.135,0.211 c 0.345,0.201 0.345,0.345 0.345,0.965 l 0,4.274 c 0,0.623 0.067,0.824 -0.345,1.1 l -0.135,0.213 0.199,0.277 1.591,0 0.134,-0.211 3.661,-4.618 0,3.239 c 0,0.623 0,0.824 -0.415,1.1 L 3.304,5.237 3.581,5.514 5.373,5.438 5.653,5.237 5.519,5.024 C 5.174,4.748 5.03,4.681 5.03,4.133 l 0,-6.002 -0.28,-0.28 C 3.996,-1.805 3.713,-1.593 3.304,-1.038 L 0,3.102 0,0 z"
             style="fill:#00483a;fill-opacity:1;fill-rule:evenodd;stroke:none"
             id="path35226" />
        </g>
        <g
           id="g35228"
           transform="translate(435.4238,56.3831)">
          <path
             inkscape:connector-curvature="0"
             d="m 0,0 c 0,-2.824 -2.346,-4.961 -5.17,-4.961 -2.76,0 -5.107,2.003 -5.107,4.897 0,2.69 2.347,4.891 5.308,4.827 C -2.001,4.763 0,2.557 0,0 m -8.277,0 c 0,-1.725 1.236,-3.515 3.17,-3.515 1.927,0 3.106,1.378 3.106,3.239 0,1.8 -1.102,3.589 -3.106,3.589 -1.934,0 -3.17,-1.444 -3.17,-3.313"
             style="fill:#00483a;fill-opacity:1;fill-rule:evenodd;stroke:none"
             id="path35230" />
        </g>
        <g
           id="g35232"
           transform="translate(463.4888,56.3831)">
          <path
             inkscape:connector-curvature="0"
             d="m 0,0 c 0,-2.824 -2.343,-4.961 -5.172,-4.961 -2.758,0 -5.105,2.003 -5.105,4.897 0,2.69 2.281,4.891 5.241,4.827 C -2.067,4.763 0,2.557 0,0 m -8.274,0 c 0,-1.725 1.168,-3.515 3.171,-3.515 1.866,0 3.103,1.378 3.103,3.239 0,1.8 -1.17,3.589 -3.172,3.589 -1.934,0 -3.102,-1.444 -3.102,-3.313"
             style="fill:#00483a;fill-opacity:1;fill-rule:evenodd;stroke:none"
             id="path35234" />
        </g>
        <g
           id="g35236"
           transform="translate(438.7931,52.1101)">
          <path
             inkscape:connector-curvature="0"
             d="m 0,0 0.214,-0.208 -0.279,-0.281 -2.692,0 -0.202,0.281 3.651,4.693 -1.925,2.824 C -1.444,7.721 -1.856,8.21 -2.266,8.346 l 0.064,0.477 1.591,0 c 0.48,0 0.611,-0.134 0.825,-0.41 L 2.005,5.865 3.251,7.585 C 3.527,7.997 3.732,8.275 3.184,8.346 L 2.904,8.555 3.184,8.9 5.664,8.823 5.864,8.413 2.904,4.619 5.175,1.172 C 5.864,0.132 6.353,0 6.488,0 l -0.067,-0.489 -1.591,0 C 4.351,-0.489 4.075,-0.342 3.797,0 L 1.658,3.174 -0.131,0.826 C -0.266,0.549 -0.543,0.132 0,0"
             style="fill:#00483a;fill-opacity:1;fill-rule:evenodd;stroke:none"
             id="path35238" />
        </g>
        <g
           id="g35240"
           transform="translate(449.4178,52.1101)">
          <path
             inkscape:connector-curvature="0"
             d="m 0,0 0.213,-0.208 -0.345,-0.281 -2.625,0 -0.202,0.281 L -2.757,0 c 0.553,0.132 0.488,1.45 0.488,1.45 l 0,5.239 c -0.074,1.032 0.065,1.447 -0.488,1.657 l -0.135,0.209 0.345,0.268 4.684,0 L 2.348,8.9 2.626,8.689 2.626,7.1 2.348,6.9 C 2.214,6.9 2.137,6.9 2.072,6.964 1.866,7.177 1.524,7.378 0.97,7.378 c -0.481,0 -0.9,0 -1.38,-0.069 l 0,-2.067 1.587,0 c 0.203,0 0.203,0.067 0.416,0.067 L 1.866,5.108 1.866,3.654 1.524,3.452 1.311,3.586 C 1.177,3.654 1.035,3.795 0.556,3.795 l -0.966,0 0,-2.345 C -0.41,0.415 -0.479,0.347 0,0"
             style="fill:#00483a;fill-opacity:1;fill-rule:evenodd;stroke:none"
             id="path35242" />
        </g>
        <g
           id="g35244"
           transform="translate(471.2863,58.5192)">
          <path
             inkscape:connector-curvature="0"
             d="m 0,0 c 0,-1.3 -1.033,-2.269 -1.933,-2.477 l 1.791,-2.271 C 0.76,-5.782 1.579,-6.277 2.07,-6.41 l -0.278,-0.489 -0.966,0 c -0.479,0 -1.245,-0.129 -1.859,0.622 l -2.972,3.941 0.134,0.477 c 1.035,0.28 2.069,0.623 2.069,1.725 0,0.688 -0.412,1.167 -1.379,1.248 -0.343,0.063 -0.547,0 -0.757,-0.144 l 0,-5.929 c 0.067,-0.968 0,-1.171 0.414,-1.451 l 0.211,-0.207 -0.278,-0.282 -2.618,0 -0.209,0.282 0.134,0.207 c 0.422,0.133 0.422,0.483 0.491,1.451 l 0,5.239 c 0,1.102 0,1.447 -0.491,1.656 l -0.065,0.275 0.207,0.202 3.241,0 C -0.966,2.492 0.065,1.382 0,0"
             style="fill:#00483a;fill-opacity:1;fill-rule:evenodd;stroke:none"
             id="path35246" />
        </g>
        <g
           id="g35248"
           transform="translate(515.0053,58.4505)">
          <path
             inkscape:connector-curvature="0"
             d="m 0,0 c 0,-1.231 -1.035,-2.201 -1.924,-2.477 l 1.79,-2.203 C 0.688,-5.713 1.519,-6.209 2,-6.408 L 1.799,-6.83 0.834,-6.895 c -0.491,0.065 -1.246,-0.064 -1.936,0.686 l -2.893,3.866 0.068,0.489 c 1.101,0.276 2.133,0.687 2.133,1.72 0,0.693 -0.477,1.172 -1.378,1.236 -0.345,0.08 -0.546,0 -0.755,-0.134 l 0,-5.927 c 0,-0.967 0,-1.179 0.41,-1.449 l 0.211,-0.141 -0.28,-0.346 -2.621,0.065 -0.204,0.281 0.137,0.141 c 0.343,0.199 0.41,0.482 0.487,1.449 l 0,5.24 c 0,1.169 0,1.444 -0.487,1.655 l -0.137,0.28 0.279,0.201 3.169,0 C -0.96,2.482 0.075,1.38 0,0"
             style="fill:#00483a;fill-opacity:1;fill-rule:evenodd;stroke:none"
             id="path35250" />
        </g>
        <g
           id="g35252"
           transform="translate(480.6664,56.1835)">
          <path
             inkscape:connector-curvature="0"
             d="m 0,0 c 0,2.825 -1.936,3.584 -4.284,3.236 l 0,-6.341 C -2.137,-3.445 -0.067,-2.49 0,0 m -6.554,4.202 -0.144,0.345 0.144,0.201 3.384,0 C -1.794,4.827 1.998,4.202 2.065,0.199 2.065,-2.49 0,-4.564 -3.249,-4.564 l -3.305,0 -0.207,0.347 0.14,0.144 c 0.411,0.202 0.478,0.415 0.478,1.66 l 0,5.029 c 0,1.1 0.067,1.447 -0.411,1.586"
             style="fill:#00483a;fill-opacity:1;fill-rule:evenodd;stroke:none"
             id="path35254" />
        </g>
        <g
           id="g35256"
           transform="translate(490.1077,59.0735)">
          <path
             inkscape:connector-curvature="0"
             d="m 0,0 -0.41,-0.064 c -0.479,0.345 -1.034,0.687 -1.935,0.687 -0.758,0 -1.449,-0.208 -1.512,-0.965 0,-1.659 4.693,-1.512 4.693,-4.353 0,-1.443 -1.456,-2.956 -3.869,-2.956 -0.824,0 -1.727,0.069 -2.481,0.411 l -0.204,0.134 -0.42,1.658 0.42,0.279 c 0.757,-0.693 1.724,-1.038 2.76,-1.038 0.824,0 1.648,0.278 1.724,1.104 0.067,1.934 -4.626,1.445 -4.626,4.629 0,1.787 1.79,2.611 3.659,2.546 0.623,0 1.312,-0.067 2.069,-0.278 L 0.07,1.593 0,0 z"
             style="fill:#00483a;fill-opacity:1;fill-rule:evenodd;stroke:none"
             id="path35258" />
        </g>
        <g
           id="g35260"
           transform="translate(494.8019,55.9734)">
          <path
             inkscape:connector-curvature="0"
             d="m 0,0 0,-2.413 c 0,-0.968 0.069,-1.319 0.412,-1.451 l 0.28,-0.208 -0.28,-0.281 -2.623,0 -0.202,0.281 0.135,0.208 c 0.409,0.203 0.409,0.416 0.488,1.451 l 0,5.171 c 0,1.169 -0.079,1.655 -0.555,1.724 l -0.068,0.275 0.202,0.202 2.623,0 L 0.623,4.757 0.546,4.482 C 0.069,4.272 0,3.927 0,2.825 l 0,-1.445 4.415,0 0,1.445 C 4.341,3.927 4.482,4.202 3.929,4.482 l -0.132,0.275 0.199,0.202 2.556,0 0.278,-0.202 0,-0.275 C 6.274,4.272 6.21,3.927 6.274,2.825 l 0,-5.238 C 6.21,-3.448 6.344,-3.661 6.686,-3.864 l 0.276,-0.208 -0.41,-0.346 -2.479,0.065 -0.343,0.281 0.266,0.208 c 0.345,0.28 0.419,0.416 0.419,1.382 l 0,2.413 L 0,0 z"
             style="fill:#00483a;fill-opacity:1;fill-rule:evenodd;stroke:none"
             id="path35262" />
        </g>
        <g
           id="g35264"
           transform="translate(504.2482,58.8667)">
          <path
             inkscape:connector-curvature="0"
             d="M 0,0 C 0,1.112 -0.07,1.454 -0.481,1.519 L -0.623,1.799 -0.347,2.144 2.137,2.065 2.413,1.799 2.209,1.589 C 1.869,1.38 1.79,1.112 1.79,-0.067 l 0,-5.239 c 0,-0.822 0,-1.172 0.419,-1.45 l 0.27,-0.208 -0.342,-0.283 -2.551,0 -0.276,0.283 0.209,0.208 c 0.347,0.132 0.411,0.482 0.481,1.45 L 0,0 z"
             style="fill:#00483a;fill-opacity:1;fill-rule:evenodd;stroke:none"
             id="path35266" />
        </g>
        <g
           id="g35268"
           transform="translate(521.2893,53.0783)">
          <path
             inkscape:connector-curvature="0"
             d="M 0,0 C 0.754,-0.142 1.511,0.067 2.204,0.692 L 2.413,0.827 2.613,0.482 1.99,-1.31 1.787,-1.459 l -5.582,0 -0.278,0.283 0.202,0.208 c 0.347,0.132 0.421,0.415 0.489,1.45 l 0,5.239 c -0.068,1.101 0,1.308 -0.556,1.657 l -0.065,0.209 0,0.065 0.208,0.28 4.684,-0.079 0.278,0.079 0.28,-0.28 -0.07,-1.52 -0.21,-0.2 -0.211,0.064 C 0.543,6.341 0.477,6.341 -0.492,6.41 l -1.034,-0.069 0,-2.067 1.593,0 0.343,0.067 0.278,-0.201 0,-1.454 -0.211,-0.204 -0.132,0 -0.146,0.065 c -0.341,0.349 -0.341,0.28 -1.033,0.28 l -0.692,0 0,-2.76 L 0,0 z"
             style="fill:#00483a;fill-opacity:1;fill-rule:evenodd;stroke:none"
             id="path35270" />
        </g>
      </g>
    </g>
  </g>
</svg>
