<?xml version="1.0" encoding="UTF-8" standalone="no"?>
<svg
   xmlns:dc="http://purl.org/dc/elements/1.1/"
   xmlns:cc="http://creativecommons.org/ns#"
   xmlns:rdf="http://www.w3.org/1999/02/22-rdf-syntax-ns#"
   xmlns:svg="http://www.w3.org/2000/svg"
   xmlns="http://www.w3.org/2000/svg"
   xmlns:sodipodi="http://sodipodi.sourceforge.net/DTD/sodipodi-0.dtd"
   xmlns:inkscape="http://www.inkscape.org/namespaces/inkscape"
   viewBox="0 0 1130.5333 501.64267"
   height="501.64267"
   width="1130.5333"
   xml:space="preserve"
   id="svg2"
   version="1.1"
   sodipodi:docname="pg_16.svg"
   inkscape:version="0.92.1 r15371"><sodipodi:namedview
     pagecolor="#ffffff"
     bordercolor="#666666"
     borderopacity="1"
     objecttolerance="10"
     gridtolerance="10"
     guidetolerance="10"
     inkscape:pageopacity="0"
     inkscape:pageshadow="2"
     inkscape:window-width="1920"
     inkscape:window-height="1016"
     id="namedview247"
     showgrid="false"
     fit-margin-top="10"
     fit-margin-left="10"
     fit-margin-right="10"
     fit-margin-bottom="10"
     inkscape:zoom="0.4875"
     inkscape:cx="535.79642"
     inkscape:cy="313.376"
     inkscape:window-x="0"
     inkscape:window-y="27"
     inkscape:window-maximized="1"
     inkscape:current-layer="svg2" /><metadata
     id="metadata8"><rdf:RDF><cc:Work
         rdf:about=""><dc:format>image/svg+xml</dc:format><dc:type
           rdf:resource="http://purl.org/dc/dcmitype/StillImage" /><dc:title></dc:title></cc:Work></rdf:RDF></metadata><defs
     id="defs6"><clipPath
       id="clipPath18"
       clipPathUnits="userSpaceOnUse"><path
         style="clip-rule:evenodd"
         id="path16"
         d="M 0,1.2207e-4 H 960 V 540.00012 H 0 Z"
         inkscape:connector-curvature="0" /></clipPath><clipPath
       id="clipPath28"
       clipPathUnits="userSpaceOnUse"><path
         style="clip-rule:evenodd"
         id="path26"
         d="M 0,1.8311e-4 H 960 V 540.00018 H 0 Z"
         inkscape:connector-curvature="0" /></clipPath><clipPath
       id="clipPath38"
       clipPathUnits="userSpaceOnUse"><path
         style="clip-rule:evenodd"
         id="path36"
         d="M 0,1.8311e-4 H 960 V 540.00018 H 0 Z"
         inkscape:connector-curvature="0" /></clipPath><clipPath
       id="clipPath50"
       clipPathUnits="userSpaceOnUse"><path
         style="clip-rule:evenodd"
         id="path48"
         d="M 1.4305e-5,0 H 960.00001 V 540 H 1.4305e-5 Z"
         inkscape:connector-curvature="0" /></clipPath><clipPath
       id="clipPath104"
       clipPathUnits="userSpaceOnUse"><path
         style="clip-rule:evenodd"
         id="path102"
         d="M 86.28,313.2 H 212.04 V 464.52 H 86.28 Z"
         inkscape:connector-curvature="0" /></clipPath><clipPath
       id="clipPath116"
       clipPathUnits="userSpaceOnUse"><path
         style="clip-rule:evenodd"
         id="path114"
         d="m 211.92,313.2 h 397.8 v 151.32 h -397.8 z"
         inkscape:connector-curvature="0" /></clipPath><clipPath
       id="clipPath128"
       clipPathUnits="userSpaceOnUse"><path
         style="clip-rule:evenodd"
         id="path126"
         d="M 609.6,313.2 H 918.36 V 464.52 H 609.6 Z"
         inkscape:connector-curvature="0" /></clipPath><clipPath
       id="clipPath140"
       clipPathUnits="userSpaceOnUse"><path
         style="clip-rule:evenodd"
         id="path138"
         d="M 86.28,185.04 H 212.04 V 487.56 H 86.28 Z"
         inkscape:connector-curvature="0" /></clipPath><clipPath
       id="clipPath152"
       clipPathUnits="userSpaceOnUse"><path
         style="clip-rule:evenodd"
         id="path150"
         d="M 86.28,185.04 H 212.04 V 487.56 H 86.28 Z"
         inkscape:connector-curvature="0" /></clipPath><clipPath
       id="clipPath164"
       clipPathUnits="userSpaceOnUse"><path
         style="clip-rule:evenodd"
         id="path162"
         d="m 211.92,98.64 h 397.8 V 540 h -397.8 z"
         inkscape:connector-curvature="0" /></clipPath><clipPath
       id="clipPath176"
       clipPathUnits="userSpaceOnUse"><path
         style="clip-rule:evenodd"
         id="path174"
         d="m 211.92,98.64 h 397.8 V 540 h -397.8 z"
         inkscape:connector-curvature="0" /></clipPath><clipPath
       id="clipPath188"
       clipPathUnits="userSpaceOnUse"><path
         style="clip-rule:evenodd"
         id="path186"
         d="m 211.92,98.64 h 397.8 V 540 h -397.8 z"
         inkscape:connector-curvature="0" /></clipPath><clipPath
       id="clipPath200"
       clipPathUnits="userSpaceOnUse"><path
         style="clip-rule:evenodd"
         id="path198"
         d="M 609.6,185.04 H 918.36 V 487.56 H 609.6 Z"
         inkscape:connector-curvature="0" /></clipPath><clipPath
       id="clipPath212"
       clipPathUnits="userSpaceOnUse"><path
         style="clip-rule:evenodd"
         id="path210"
         d="M 609.6,185.04 H 918.36 V 487.56 H 609.6 Z"
         inkscape:connector-curvature="0" /></clipPath><clipPath
       id="clipPath224"
       clipPathUnits="userSpaceOnUse"><path
         style="clip-rule:evenodd"
         id="path222"
         d="M 86.28,6.6 H 212.04 V 460.32 H 86.28 Z"
         inkscape:connector-curvature="0" /></clipPath><clipPath
       id="clipPath236"
       clipPathUnits="userSpaceOnUse"><path
         style="clip-rule:evenodd"
         id="path234"
         d="M 86.28,6.6 H 212.04 V 460.32 H 86.28 Z"
         inkscape:connector-curvature="0" /></clipPath><clipPath
       id="clipPath248"
       clipPathUnits="userSpaceOnUse"><path
         style="clip-rule:evenodd"
         id="path246"
         d="M 1.4305e-5,0 H 960.00001 V 540 H 1.4305e-5 Z"
         inkscape:connector-curvature="0" /></clipPath><clipPath
       id="clipPath260"
       clipPathUnits="userSpaceOnUse"><path
         style="clip-rule:evenodd"
         id="path258"
         d="M 86.28,6.6 H 212.04 V 460.32 H 86.28 Z"
         inkscape:connector-curvature="0" /></clipPath><clipPath
       id="clipPath272"
       clipPathUnits="userSpaceOnUse"><path
         style="clip-rule:evenodd"
         id="path270"
         d="m 211.92,0 h 397.8 v 525.12 h -397.8 z"
         inkscape:connector-curvature="0" /></clipPath><clipPath
       id="clipPath284"
       clipPathUnits="userSpaceOnUse"><path
         style="clip-rule:evenodd"
         id="path282"
         d="m 211.92,0 h 397.8 v 525.12 h -397.8 z"
         inkscape:connector-curvature="0" /></clipPath><clipPath
       id="clipPath296"
       clipPathUnits="userSpaceOnUse"><path
         style="clip-rule:evenodd"
         id="path294"
         d="m 211.92,0 h 397.8 v 525.12 h -397.8 z"
         inkscape:connector-curvature="0" /></clipPath><clipPath
       id="clipPath308"
       clipPathUnits="userSpaceOnUse"><path
         style="clip-rule:evenodd"
         id="path306"
         d="m 211.92,0 h 397.8 v 525.12 h -397.8 z"
         inkscape:connector-curvature="0" /></clipPath><clipPath
       id="clipPath320"
       clipPathUnits="userSpaceOnUse"><path
         style="clip-rule:evenodd"
         id="path318"
         d="M 609.6,93 H 918.36 V 395.52 H 609.6 Z"
         inkscape:connector-curvature="0" /></clipPath><clipPath
       id="clipPath332"
       clipPathUnits="userSpaceOnUse"><path
         style="clip-rule:evenodd"
         id="path330"
         d="M 609.6,93 H 918.36 V 395.52 H 609.6 Z"
         inkscape:connector-curvature="0" /></clipPath><clipPath
       id="clipPath344"
       clipPathUnits="userSpaceOnUse"><path
         style="clip-rule:evenodd"
         id="path342"
         d="M 86.28,0 H 212.04 V 287.04 H 86.28 Z"
         inkscape:connector-curvature="0" /></clipPath><clipPath
       id="clipPath356"
       clipPathUnits="userSpaceOnUse"><path
         style="clip-rule:evenodd"
         id="path354"
         d="M 1.4305e-5,0 H 960.00001 V 540 H 1.4305e-5 Z"
         inkscape:connector-curvature="0" /></clipPath><clipPath
       id="clipPath368"
       clipPathUnits="userSpaceOnUse"><path
         style="clip-rule:evenodd"
         id="path366"
         d="M 1.4305e-5,0 H 960.00001 V 540 H 1.4305e-5 Z"
         inkscape:connector-curvature="0" /></clipPath><clipPath
       id="clipPath380"
       clipPathUnits="userSpaceOnUse"><path
         style="clip-rule:evenodd"
         id="path378"
         d="M 86.28,0 H 212.04 V 287.04 H 86.28 Z"
         inkscape:connector-curvature="0" /></clipPath><clipPath
       id="clipPath392"
       clipPathUnits="userSpaceOnUse"><path
         style="clip-rule:evenodd"
         id="path390"
         d="m 211.92,0 h 397.8 v 351.84 h -397.8 z"
         inkscape:connector-curvature="0" /></clipPath><clipPath
       id="clipPath404"
       clipPathUnits="userSpaceOnUse"><path
         style="clip-rule:evenodd"
         id="path402"
         d="m 211.92,0 h 397.8 v 351.84 h -397.8 z"
         inkscape:connector-curvature="0" /></clipPath><clipPath
       id="clipPath416"
       clipPathUnits="userSpaceOnUse"><path
         style="clip-rule:evenodd"
         id="path414"
         d="M 1.4305e-5,0 H 960.00001 V 540 H 1.4305e-5 Z"
         inkscape:connector-curvature="0" /></clipPath><clipPath
       id="clipPath428"
       clipPathUnits="userSpaceOnUse"><path
         style="clip-rule:evenodd"
         id="path426"
         d="M 1.4305e-5,0 H 960.00001 V 540 H 1.4305e-5 Z"
         inkscape:connector-curvature="0" /></clipPath><clipPath
       id="clipPath440"
       clipPathUnits="userSpaceOnUse"><path
         style="clip-rule:evenodd"
         id="path438"
         d="m 211.92,0 h 397.8 v 351.84 h -397.8 z"
         inkscape:connector-curvature="0" /></clipPath><clipPath
       id="clipPath452"
       clipPathUnits="userSpaceOnUse"><path
         style="clip-rule:evenodd"
         id="path450"
         d="M 609.6,0 H 918.36 V 416.64 H 609.6 Z"
         inkscape:connector-curvature="0" /></clipPath><clipPath
       id="clipPath464"
       clipPathUnits="userSpaceOnUse"><path
         style="clip-rule:evenodd"
         id="path462"
         d="M 609.6,0 H 918.36 V 416.64 H 609.6 Z"
         inkscape:connector-curvature="0" /></clipPath><clipPath
       id="clipPath476"
       clipPathUnits="userSpaceOnUse"><path
         style="clip-rule:evenodd"
         id="path474"
         d="M 609.6,0 H 918.36 V 416.64 H 609.6 Z"
         inkscape:connector-curvature="0" /></clipPath><clipPath
       id="clipPath488"
       clipPathUnits="userSpaceOnUse"><path
         style="clip-rule:evenodd"
         id="path486"
         d="M 609.6,0 H 918.36 V 416.64 H 609.6 Z"
         inkscape:connector-curvature="0" /></clipPath></defs><path
     inkscape:connector-curvature="0"
     d="M 20.74667,10.666667 H 1067.1467"
     style="fill:none;stroke:#7f7f7f;stroke-width:0.63999999;stroke-linecap:butt;stroke-linejoin:round;stroke-miterlimit:10;stroke-dasharray:none;stroke-opacity:1"
     id="path42" /><path
     inkscape:connector-curvature="0"
     d="M 10.66667,66.253337 H 178.12 V 10.666667 H 10.66667 Z"
     style="fill:#e48312;fill-opacity:1;fill-rule:evenodd;stroke:none;stroke-width:1.33333325"
     id="path56" /><path
     inkscape:connector-curvature="0"
     d="M 178.12,66.253337 H 708.34665 V 10.666667 H 178.12 Z"
     style="fill:#e48312;fill-opacity:1;fill-rule:evenodd;stroke:none;stroke-width:1.33333325"
     id="path58" /><path
     inkscape:connector-curvature="0"
     d="M 708.34665,66.253337 H 1119.8667 V 10.666667 H 708.34665 Z"
     style="fill:#e48312;fill-opacity:1;fill-rule:evenodd;stroke:none;stroke-width:1.33333325"
     id="path60" /><path
     inkscape:connector-curvature="0"
     d="M 10.66667,189 H 178.12 V 66.252007 H 10.66667 Z"
     style="fill:#f5d9cc;fill-opacity:1;fill-rule:evenodd;stroke:none;stroke-width:1.33333325"
     id="path62" /><path
     inkscape:connector-curvature="0"
     d="M 178.12,189 H 708.34665 V 66.252007 H 178.12 Z"
     style="fill:#f5d9cc;fill-opacity:1;fill-rule:evenodd;stroke:none;stroke-width:1.33333325"
     id="path64" /><path
     inkscape:connector-curvature="0"
     d="M 708.34665,189 H 1119.8667 V 66.252007 H 708.34665 Z"
     style="fill:#f5d9cc;fill-opacity:1;fill-rule:evenodd;stroke:none;stroke-width:1.33333325"
     id="path66" /><path
     inkscape:connector-curvature="0"
     d="M 10.66667,333.6 H 178.12 V 189 H 10.66667 Z"
     style="fill:#faede7;fill-opacity:1;fill-rule:evenodd;stroke:none;stroke-width:1.33333325"
     id="path68" /><path
     inkscape:connector-curvature="0"
     d="M 178.12,333.6 H 708.34665 V 189 H 178.12 Z"
     style="fill:#faede7;fill-opacity:1;fill-rule:evenodd;stroke:none;stroke-width:1.33333325"
     id="path70" /><path
     inkscape:connector-curvature="0"
     d="M 708.34665,333.6 H 1119.8667 V 189 H 708.34665 Z"
     style="fill:#faede7;fill-opacity:1;fill-rule:evenodd;stroke:none;stroke-width:1.33333325"
     id="path72" /><path
     inkscape:connector-curvature="0"
     d="M 10.66667,490.97599 H 178.12 V 333.60267 H 10.66667 Z"
     style="fill:#f5d9cc;fill-opacity:1;fill-rule:evenodd;stroke:none;stroke-width:1.33333325"
     id="path74" /><path
     inkscape:connector-curvature="0"
     d="M 178.12,490.97599 H 708.34665 V 333.60267 H 178.12 Z"
     style="fill:#f5d9cc;fill-opacity:1;fill-rule:evenodd;stroke:none;stroke-width:1.33333325"
     id="path76" /><path
     inkscape:connector-curvature="0"
     d="M 708.34665,490.97599 H 1119.8667 V 333.60267 H 708.34665 Z"
     style="fill:#f5d9cc;fill-opacity:1;fill-rule:evenodd;stroke:none;stroke-width:1.33333325"
     id="path78" /><path
     inkscape:connector-curvature="0"
     d="M 178.12,10.000007 V 491.64266"
     style="fill:none;stroke:#ffffff;stroke-width:1.33333325;stroke-linecap:butt;stroke-linejoin:round;stroke-miterlimit:10;stroke-dasharray:none;stroke-opacity:1"
     id="path80" /><path
     inkscape:connector-curvature="0"
     d="M 708.34665,10.000007 V 491.64266"
     style="fill:none;stroke:#ffffff;stroke-width:1.33333325;stroke-linecap:butt;stroke-linejoin:round;stroke-miterlimit:10;stroke-dasharray:none;stroke-opacity:1"
     id="path82" /><path
     inkscape:connector-curvature="0"
     d="M 10,66.253337 H 1120.5333"
     style="fill:none;stroke:#ffffff;stroke-width:4;stroke-linecap:butt;stroke-linejoin:round;stroke-miterlimit:10;stroke-dasharray:none;stroke-opacity:1"
     id="path84" /><path
     inkscape:connector-curvature="0"
     d="M 10,189 H 1120.5333"
     style="fill:none;stroke:#ffffff;stroke-width:1.33333325;stroke-linecap:butt;stroke-linejoin:round;stroke-miterlimit:10;stroke-dasharray:none;stroke-opacity:1"
     id="path86" /><path
     inkscape:connector-curvature="0"
     d="M 10,333.6 H 1120.5333"
     style="fill:none;stroke:#ffffff;stroke-width:1.33333325;stroke-linecap:butt;stroke-linejoin:round;stroke-miterlimit:10;stroke-dasharray:none;stroke-opacity:1"
     id="path88" /><path
     inkscape:connector-curvature="0"
     d="M 10.66667,10.000007 V 491.64266"
     style="fill:none;stroke:#ffffff;stroke-width:1.33333325;stroke-linecap:butt;stroke-linejoin:round;stroke-miterlimit:10;stroke-dasharray:none;stroke-opacity:1"
     id="path90" /><path
     inkscape:connector-curvature="0"
     d="M 1119.8667,10.000007 V 491.64266"
     style="fill:none;stroke:#ffffff;stroke-width:1.33333325;stroke-linecap:butt;stroke-linejoin:round;stroke-miterlimit:10;stroke-dasharray:none;stroke-opacity:1"
     id="path92" /><path
     inkscape:connector-curvature="0"
     d="M 10,10.666667 H 1120.5333"
     style="fill:none;stroke:#ffffff;stroke-width:1.33333325;stroke-linecap:butt;stroke-linejoin:round;stroke-miterlimit:10;stroke-dasharray:none;stroke-opacity:1"
     id="path94" /><path
     inkscape:connector-curvature="0"
     d="M 10,490.97599 H 1120.5333"
     style="fill:none;stroke:#ffffff;stroke-width:1.33333325;stroke-linecap:butt;stroke-linejoin:round;stroke-miterlimit:10;stroke-dasharray:none;stroke-opacity:1"
     id="path96" /><g
     id="g98"
     transform="matrix(1.3333333,0,0,-1.3333333,-104.53333,548.26666)"><g
       id="g100"
       clip-path="url(#clipPath104)"><text
         transform="matrix(1,0,0,-1,93.624,382.78)"
         style="font-variant:normal;font-weight:bold;font-size:18px;font-family:Calibri;-inkscape-font-specification:Calibri-Bold;writing-mode:lr-tb;fill:#ffffff;fill-opacity:1;fill-rule:nonzero;stroke:none"
         id="text108"><tspan
           x="0 9.8459997 18.954 26.136 35.262001 44.153999 50.256001 57.779999"
           y="0"
           id="tspan106">Research</tspan></text>
</g></g><g
     id="g110"
     transform="matrix(1.3333333,0,0,-1.3333333,-104.53333,548.26666)"><g
       id="g112"
       clip-path="url(#clipPath116)"><text
         transform="matrix(1,0,0,-1,219.22,382.78)"
         style="font-variant:normal;font-weight:bold;font-size:18px;font-family:Calibri;-inkscape-font-specification:Calibri-Bold;writing-mode:lr-tb;fill:#ffffff;fill-opacity:1;fill-rule:nonzero;stroke:none"
         id="text120"><tspan
           x="0 9.2340002 18.125999 24.516001 30.761999 35.189999 42.714001 47.141998 56.862 65.753998 75.348 81.594002 88.667999 92.736 105.426 109.188 124.92 133.90199 140.14799 149.814 159.57001 169.272"
           y="0"
           id="tspan118">Participants &amp; Methods</tspan></text>
</g></g><g
     id="g122"
     transform="matrix(1.3333333,0,0,-1.3333333,-104.53333,548.26666)"><g
       id="g124"
       clip-path="url(#clipPath128)"><text
         transform="matrix(1,0,0,-1,616.94,382.78)"
         style="font-variant:normal;font-weight:bold;font-size:18px;font-family:Calibri;-inkscape-font-specification:Calibri-Bold;writing-mode:lr-tb;fill:#ffffff;fill-opacity:1;fill-rule:nonzero;stroke:none"
         id="text132"><tspan
           x="0 8.2620001 12.69 22.427999 32.130001 36.557999 46.223999 54.683998"
           y="0"
           id="tspan130">Findings</tspan></text>
</g></g><g
     id="g134"
     transform="matrix(1.3333333,0,0,-1.3333333,-104.53333,548.26666)"><g
       id="g136"
       clip-path="url(#clipPath140)"><text
         transform="matrix(1,0,0,-1,93.624,341.06)"
         style="font-variant:normal;font-weight:normal;font-size:18px;font-family:Calibri;-inkscape-font-specification:Calibri;writing-mode:lr-tb;fill:#000000;fill-opacity:1;fill-rule:nonzero;stroke:none"
         id="text144"><tspan
           x="0 15.354 23.976 32.490002 41.939999 50.958 55.638 60.084 64.260002 75.617996 84.276001 90.269997 97.830002 101.916 110.538"
           y="0"
           id="tspan142">Wagner, Garcia </tspan></text>
</g></g><g
     id="g146"
     transform="matrix(1.3333333,0,0,-1.3333333,-104.53333,548.26666)"><g
       id="g148"
       clip-path="url(#clipPath152)"><text
         transform="matrix(1,0,0,-1,93.624,319.46)"
         style="font-variant:normal;font-weight:normal;font-size:18px;font-family:Calibri;-inkscape-font-specification:Calibri;writing-mode:lr-tb;fill:#000000;fill-opacity:1;fill-rule:nonzero;stroke:none"
         id="text156"><tspan
           x="0 5.454 14.526 23.652 32.778 41.903999"
           y="0"
           id="tspan154">(2015)</tspan></text>
</g></g><g
     id="g158"
     transform="matrix(1.3333333,0,0,-1.3333333,-104.53333,548.26666)"><g
       id="g160"
       clip-path="url(#clipPath164)"><text
         transform="matrix(1,0,0,-1,219.22,341.06)"
         style="font-variant:normal;font-weight:normal;font-size:18px;font-family:Calibri;-inkscape-font-specification:Calibri;writing-mode:lr-tb;fill:#000000;fill-opacity:1;fill-rule:nonzero;stroke:none"
         id="text168"><tspan
           x="0 15.966 25.200001 29.375999 33.462002 42.911999 47.124001 56.25 60.318001 64.403999 73.026001 82.475998 91.026001 100.476 109.098 117.576 126.54 133.578 138.078 142.146 149.58 159.06599 173.448 182.89799 191.556 197.55 206.51401 216.01801 220.194 233.064 237.114 243.144 252.59399 256.76999 262.76401 271.638 276.67801 285.642 291.672 300.63599 310.14001 317.70001 326.664"
           y="0"
           id="tspan166">WP in 6 languages, compared with reference </tspan></text>
</g></g><g
     id="g170"
     transform="matrix(1.3333333,0,0,-1.3333333,-104.53333,548.26666)"><g
       id="g172"
       clip-path="url(#clipPath176)"><text
         transform="matrix(1,0,0,-1,219.22,319.46)"
         style="font-variant:normal;font-weight:normal;font-size:18px;font-family:Calibri;-inkscape-font-specification:Calibri;writing-mode:lr-tb;fill:#000000;fill-opacity:1;fill-rule:nonzero;stroke:none"
         id="text180"><tspan
           x="0 9.4499998 18 23.76 32.382 39.456001 48.330002 54.360001 61.397999 65.375999 70.199997 74.358002 82.620003 88.632004 97.596001 106.614 116.064 124.686 131.79601 140.75999 145.25999 149.328 158.202 166.82401 176.202 182.23199 191.68201 200.646 210.132 219.618 224.064 228.24001 239.39999 248.85001 263.23199 271.90799 281.358"
           y="0"
           id="tspan178">datasets : Freebase, Pantheon, Human </tspan></text>
</g></g><g
     id="g182"
     transform="matrix(1.3333333,0,0,-1.3333333,-104.53333,548.26666)"><g
       id="g184"
       clip-path="url(#clipPath188)"><text
         transform="matrix(1,0,0,-1,219.22,297.86)"
         style="font-variant:normal;font-weight:normal;font-size:18px;font-family:Calibri;-inkscape-font-specification:Calibri;writing-mode:lr-tb;fill:#000000;fill-opacity:1;fill-rule:nonzero;stroke:none"
         id="text192"><tspan
           x="0 10.422 18.035999 25.434 34.919998 49.301998 58.751999 62.891998 66.959999 73.998001 83.501999 97.884003 106.848 116.298 122.256 126.702 130.87801 139.5 146.57401 153.612 162.63 169.668 176.778 185.742 195.246 199.08 204.246 213.73199 220.01401 224.082 233.532 242.98199 257.36401 266.86801 275.832 282.11401 286.29001 294.91199 304.362 313.866 318.04199 322.12799 331.09201 340.59601 348.87601 354.90601"
           y="0"
           id="tspan190">Accomplishment, assessed for number and length</tspan></text>
</g></g><g
     id="g194"
     transform="matrix(1.3333333,0,0,-1.3333333,-104.53333,548.26666)"><g
       id="g196"
       clip-path="url(#clipPath200)"><text
         transform="matrix(1,0,0,-1,616.94,341.06)"
         style="font-variant:normal;font-weight:normal;font-size:18px;font-family:Calibri;-inkscape-font-specification:Calibri;writing-mode:lr-tb;fill:#000000;fill-opacity:1;fill-rule:nonzero;stroke:none"
         id="text204"><tspan
           x="0 15.39 24.354 33.804001 38.015999 46.638 56.088001 65.592003 69.660004 82.386002 91.872002 106.254 115.218 124.722 128.89799 137.52 143.532 152.496 156.564 164.052 173.412 181.45799 190.422 196.452 205.416 214.92 219.09599 228.06 237.564 247.01401 255.636 259.776 263.84399 271.99799"
           y="0"
           id="tspan202">Men and women are covered equally </tspan></text>
</g></g><g
     id="g206"
     transform="matrix(1.3333333,0,0,-1.3333333,-104.53333,548.26666)"><g
       id="g208"
       clip-path="url(#clipPath212)"><text
         transform="matrix(1,0,0,-1,616.94,319.46)"
         style="font-variant:normal;font-weight:normal;font-size:18px;font-family:Calibri;-inkscape-font-specification:Calibri;writing-mode:lr-tb;fill:#000000;fill-opacity:1;fill-rule:nonzero;stroke:none"
         id="text216"><tspan
           x="0 12.726 21.690001 25.83 29.879999 34.056 43.542 52.992001 57.203999 73.169998 77.255997 85.445999 89.496002 98.945999 107.964 117.414 121.554 130.17599"
           y="0"
           id="tspan214">well on Wikipedia.</tspan></text>
</g></g><g
     id="g218"
     transform="matrix(1.3333333,0,0,-1.3333333,-104.53333,548.26666)"><g
       id="g220"
       clip-path="url(#clipPath224)"><text
         transform="matrix(1,0,0,-1,93.624,249)"
         style="font-variant:normal;font-weight:normal;font-size:18px;font-family:Calibri;-inkscape-font-specification:Calibri;writing-mode:lr-tb;fill:#000000;fill-opacity:1;fill-rule:nonzero;stroke:none"
         id="text228"><tspan
           x="0 15.354 23.976 32.490002 41.939999 50.958 55.638 60.084"
           y="0"
           id="tspan226">Wagner, </tspan></text>
</g></g><g
     id="g230"
     transform="matrix(1.3333333,0,0,-1.3333333,-104.53333,548.26666)"><g
       id="g232"
       clip-path="url(#clipPath236)"><text
         transform="matrix(1,0,0,-1,93.624,227.38)"
         style="font-variant:normal;font-weight:normal;font-size:18px;font-family:Calibri;-inkscape-font-specification:Calibri;writing-mode:lr-tb;fill:#000000;fill-opacity:1;fill-rule:nonzero;stroke:none"
         id="text240"><tspan
           x="0 11.358 17.280001 25.902 34.866001 39.006001 43.074001"
           y="0"
           id="tspan238">Graells</tspan></text>
</g></g><g
     id="g242"
     transform="matrix(1.3333333,0,0,-1.3333333,-104.53333,548.26666)"><g
       id="g244"
       clip-path="url(#clipPath248)"><text
         transform="matrix(1,0,0,-1,143.78,227.38)"
         style="font-variant:normal;font-weight:normal;font-size:18px;font-family:Calibri;-inkscape-font-specification:Calibri;writing-mode:lr-tb;fill:#000000;fill-opacity:1;fill-rule:nonzero;stroke:none"
         id="text252"><tspan
           x="0"
           y="0"
           id="tspan250">-</tspan></text>
</g></g><g
     id="g254"
     transform="matrix(1.3333333,0,0,-1.3333333,-104.53333,548.26666)"><g
       id="g256"
       clip-path="url(#clipPath260)"><text
         transform="matrix(1,0,0,-1,93.624,205.78)"
         style="font-variant:normal;font-weight:normal;font-size:18px;font-family:Calibri;-inkscape-font-specification:Calibri;writing-mode:lr-tb;fill:#000000;fill-opacity:1;fill-rule:nonzero;stroke:none"
         id="text264"><tspan
           x="0 11.358 20.016001 26.298 32.490002 36.576 46.026001 55.512001 59.723999 65.178001 74.25 83.375999 92.501999 101.628"
           y="0"
           id="tspan262">Garrido (2016)</tspan></text>
</g></g><g
     id="g266"
     transform="matrix(1.3333333,0,0,-1.3333333,-104.53333,548.26666)"><g
       id="g268"
       clip-path="url(#clipPath272)"><text
         transform="matrix(1,0,0,-1,219.22,249)"
         style="font-variant:normal;font-weight:normal;font-size:18px;font-family:Calibri;-inkscape-font-specification:Calibri;writing-mode:lr-tb;fill:#000000;fill-opacity:1;fill-rule:nonzero;stroke:none"
         id="text276"><tspan
           x="0 11.07 20.862 30.312 39.348 48.798 52.938"
           y="0"
           id="tspan274">DBpedia</tspan></text>
</g></g><g
     id="g278"
     transform="matrix(1.3333333,0,0,-1.3333333,-104.53333,548.26666)"><g
       id="g280"
       clip-path="url(#clipPath284)"><text
         transform="matrix(1,0,0,-1,285,249)"
         style="font-variant:normal;font-weight:normal;font-size:18px;font-family:Calibri;-inkscape-font-specification:Calibri;writing-mode:lr-tb;fill:#000000;fill-opacity:1;fill-rule:nonzero;stroke:none"
         id="text288"><tspan
           x="0 9.1260004 18.252001 27.378 36.504002 40.571999 50.021999 58.554001 64.314003 72.935997 80.010002 88.884003 94.914001 99.323997 103.5 107.586 116.946 121.986 130.95 137.23199 143.226 152.19 161.694 165.87 174.276 183.24001 192.744 202.194 211.21201 217.494 221.562 226.692 236.17799 242.46001 246.60001 262.56601 271.79999 275.97601 285.42599 289.56601 299.052 306.09 310.53601"
           y="0"
           id="tspan286">2014 dataset, inferred gender for WP bios, </tspan></text>
</g></g><g
     id="g290"
     transform="matrix(1.3333333,0,0,-1.3333333,-104.53333,548.26666)"><g
       id="g292"
       clip-path="url(#clipPath296)"><text
         transform="matrix(1,0,0,-1,219.22,227.38)"
         style="font-variant:normal;font-weight:normal;font-size:18px;font-family:Calibri;-inkscape-font-specification:Calibri;writing-mode:lr-tb;fill:#000000;fill-opacity:1;fill-rule:nonzero;stroke:none"
         id="text300"><tspan
           x="0 8.4779997 12.618 22.104 31.554001 40.175999 44.316002 48.456001 57.905998 67.391998 73.169998 81.792 91.241997 95.382004 99.449997 103.536 109.566 117.72 122.004 129.438 138.06 142.2 149.724 159.174 163.314 171.81 177.57001 186.534 196.03799 200.34 209.7 217.854 221.922 231.37199 240.858 245.448 249.62399 259.10999 264.60001 268.668 272.80801 281.42999 290.88 299.41199 308.862 317.48401 325.96201 334.92599 341.96399 346.06799 358.93799 362.98801 369.01801 378.46799"
           y="0"
           id="tspan298">global notability calculated by no. of languages with </tspan></text>
</g></g><g
     id="g302"
     transform="matrix(1.3333333,0,0,-1.3333333,-104.53333,548.26666)"><g
       id="g304"
       clip-path="url(#clipPath308)"><text
         transform="matrix(1,0,0,-1,219.22,205.78)"
         style="font-variant:normal;font-weight:normal;font-size:18px;font-family:Calibri;-inkscape-font-specification:Calibri;writing-mode:lr-tb;fill:#000000;fill-opacity:1;fill-rule:nonzero;stroke:none"
         id="text312"><tspan
           x="0 6.0300002 15.48 24.444 28.656 38.105999 42.245998 51.731998 55.872002 68.148003 72.216003 83.573997 93.059998 102.546 111.024 115.164 124.128 128.34 135.37801 144.396 153.01801 159.03 166.59 176.03999 180.108 188.244 197.67599 201.76199 211.21201 225.59399 234.63"
           y="0"
           id="tspan310">the bio &amp; Google search volume </tspan></text>
</g></g><g
     id="g314"
     transform="matrix(1.3333333,0,0,-1.3333333,-104.53333,548.26666)"><g
       id="g316"
       clip-path="url(#clipPath320)"><text
         transform="matrix(1,0,0,-1,616.94,249)"
         style="font-variant:normal;font-weight:normal;font-size:18px;font-family:Calibri;-inkscape-font-specification:Calibri;writing-mode:lr-tb;fill:#000000;fill-opacity:1;fill-rule:nonzero;stroke:none"
         id="text324"><tspan
           x="0 15.246 24.732 39.113998 48.077999 57.582001 61.757999 65.844002 75.293999 79.362 95.382004 99.449997 107.64 111.69 121.14 130.158 139.608 143.748 152.37 156.65401 165.276 171.28799 180.252 184.464 191.502 195.642 199.71001 208.188 217.638 223.59599 227.68201 235.836 243.972 258.354 267.84 273.888 282.85199"
           y="0"
           id="tspan322">Women in Wikipedia are slightly more </tspan></text>
</g></g><g
     id="g326"
     transform="matrix(1.3333333,0,0,-1.3333333,-104.53333,548.26666)"><g
       id="g328"
       clip-path="url(#clipPath332)"><text
         transform="matrix(1,0,0,-1,616.94,227.38)"
         style="font-variant:normal;font-weight:normal;font-size:18px;font-family:Calibri;-inkscape-font-specification:Calibri;writing-mode:lr-tb;fill:#000000;fill-opacity:1;fill-rule:nonzero;stroke:none"
         id="text336"><tspan
           x="0 9.4499998 18.936001 24.714001 33.335999 42.785999 46.925999 55.889999 60.102001 66.132004 75.582001 84.204002 93.653999 97.884003 112.266 121.23 130.752 135.28799"
           y="0"
           id="tspan334">notable than men. </tspan></text>
</g></g><g
     id="g338"
     transform="matrix(1.3333333,0,0,-1.3333333,-104.53333,548.26666)"><g
       id="g340"
       clip-path="url(#clipPath344)"><text
         transform="matrix(1,0,0,-1,93.624,140.52)"
         style="font-variant:normal;font-weight:normal;font-size:18px;font-family:Calibri;-inkscape-font-specification:Calibri;writing-mode:lr-tb;fill:#000000;fill-opacity:1;fill-rule:nonzero;stroke:none"
         id="text348"><tspan
           x="0 9.3599997 18.323999 26.945999 35.495998 39.582001"
           y="0"
           id="tspan346">Reagle</tspan></text>
</g></g><g
     id="g350"
     transform="matrix(1.3333333,0,0,-1.3333333,-104.53333,548.26666)"><g
       id="g352"
       clip-path="url(#clipPath356)"><text
         transform="matrix(1,0,0,-1,142.22,140.52)"
         style="font-variant:normal;font-weight:normal;font-size:18px;font-family:Calibri;-inkscape-font-specification:Calibri;writing-mode:lr-tb;fill:#000000;fill-opacity:1;fill-rule:nonzero;stroke:none"
         id="text360"><tspan
           x="0 4.4400001"
           y="0"
           id="tspan358">, </tspan></text>
</g></g><g
     id="g362"
     transform="matrix(1.3333333,0,0,-1.3333333,-104.53333,548.26666)"><g
       id="g364"
       clip-path="url(#clipPath368)"><text
         transform="matrix(1,0,0,-1,150.98,140.52)"
         style="font-variant:normal;font-weight:normal;font-size:18px;font-family:Calibri;-inkscape-font-specification:Calibri;writing-mode:lr-tb;fill:#000000;fill-opacity:1;fill-rule:nonzero;stroke:none"
         id="text372"><tspan
           x="0 9.7740002 19.224001 28.674"
           y="0"
           id="tspan370">Rhue</tspan></text>
</g></g><g
     id="g374"
     transform="matrix(1.3333333,0,0,-1.3333333,-104.53333,548.26666)"><g
       id="g376"
       clip-path="url(#clipPath380)"><text
         transform="matrix(1,0,0,-1,93.624,118.92)"
         style="font-variant:normal;font-weight:normal;font-size:18px;font-family:Calibri;-inkscape-font-specification:Calibri;writing-mode:lr-tb;fill:#000000;fill-opacity:1;fill-rule:nonzero;stroke:none"
         id="text384"><tspan
           x="0 5.454 14.526 23.652 32.778 41.903999"
           y="0"
           id="tspan382">(2011)</tspan></text>
</g></g><g
     id="g386"
     transform="matrix(1.3333333,0,0,-1.3333333,-104.53333,548.26666)"><g
       id="g388"
       clip-path="url(#clipPath392)"><text
         transform="matrix(1,0,0,-1,219.22,140.52)"
         style="font-variant:normal;font-weight:normal;font-size:18px;font-family:Calibri;-inkscape-font-specification:Calibri;writing-mode:lr-tb;fill:#000000;fill-opacity:1;fill-rule:nonzero;stroke:none"
         id="text396"><tspan
           x="0 9.7919998 13.932 23.417999 31.896 37.799999 46.422001 55.872002 65.375999 69.461998 76.896004 85.517998 89.657997 93.797997 100.836 110.34 119.79 124.092 133.12801 140.688 146.718 153.756 157.73399 163.224 169.254 178.74001 193.12199 197.19 206.31599 210.50999 217.548 227.034 236.53799 242.532 250.092 259.056 266.14801 270.216 277.668 287.15399 301.53601 310.98599 319.64401 325.638 334.60199 344.10599 348.17401 354.06 363.54599"
           y="0"
           id="tspan394">Biographical subjects from 6 sources compared to </tspan></text>
</g></g><g
     id="g398"
     transform="matrix(1.3333333,0,0,-1.3333333,-104.53333,548.26666)"><g
       id="g400"
       clip-path="url(#clipPath404)"><text
         transform="matrix(1,0,0,-1,219.22,118.92)"
         style="font-variant:normal;font-weight:normal;font-size:18px;font-family:Calibri;-inkscape-font-specification:Calibri;writing-mode:lr-tb;fill:#000000;fill-opacity:1;fill-rule:nonzero;stroke:none"
         id="text408"><tspan
           x="0 9"
           y="0"
           id="tspan406">en</tspan></text>
</g></g><g
     id="g410"
     transform="matrix(1.3333333,0,0,-1.3333333,-104.53333,548.26666)"><g
       id="g412"
       clip-path="url(#clipPath416)"><text
         transform="matrix(1,0,0,-1,237.7,118.92)"
         style="font-variant:normal;font-weight:normal;font-size:18px;font-family:Calibri;-inkscape-font-specification:Calibri;writing-mode:lr-tb;fill:#000000;fill-opacity:1;fill-rule:nonzero;stroke:none"
         id="text420"><tspan
           x="0"
           y="0"
           id="tspan418">-</tspan></text>
</g></g><g
     id="g422"
     transform="matrix(1.3333333,0,0,-1.3333333,-104.53333,548.26666)"><g
       id="g424"
       clip-path="url(#clipPath428)"><text
         transform="matrix(1,0,0,-1,243.22,118.92)"
         style="font-variant:normal;font-weight:normal;font-size:18px;font-family:Calibri;-inkscape-font-specification:Calibri;writing-mode:lr-tb;fill:#000000;fill-opacity:1;fill-rule:nonzero;stroke:none"
         id="text432"><tspan
           x="0 12.87 16.92 25.110001 29.16 33.335999 41.958 51.408001 60.911999 65.087997 74.879997 81.162003 85.248001 91.008003 99.629997 109.08 118.584 122.67 130.104 138.726 143.226 147.366 155.772 164.73599 174.24001 183.69 192.70799 198.99001 203.13 211.608 221.112 230.076 237.168 244.20599 253.224 262.67401 266.67001 274.806 278.94601 287.56799 291.63599 301.086 309.70801 313.84799 322.47 331.92001 339.534 348.49799"
           y="0"
           id="tspan430">wiki and Britannica, gender guessed via balance </tspan></text>
</g></g><g
     id="g434"
     transform="matrix(1.3333333,0,0,-1.3333333,-104.53333,548.26666)"><g
       id="g436"
       clip-path="url(#clipPath440)"><text
         transform="matrix(1,0,0,-1,219.22,97.32)"
         style="font-variant:normal;font-weight:normal;font-size:18px;font-family:Calibri;-inkscape-font-specification:Calibri;writing-mode:lr-tb;fill:#000000;fill-opacity:1;fill-rule:nonzero;stroke:none"
         id="text444"><tspan
           x="0 9.4860001 14.976 19.044001 27.521999 36.486 45.936001 55.386002 64.421997 70.416 79.379997 88.884003 93.059998 102.51 108.54 118.026 127.476 136.96201 146.412 155.916"
           y="0"
           id="tspan442">of gendered pronouns</tspan></text>
</g></g><g
     id="g446"
     transform="matrix(1.3333333,0,0,-1.3333333,-104.53333,548.26666)"><g
       id="g448"
       clip-path="url(#clipPath452)"><text
         transform="matrix(1,0,0,-1,616.94,140.52)"
         style="font-variant:normal;font-weight:normal;font-size:18px;font-family:Calibri;-inkscape-font-specification:Calibri;writing-mode:lr-tb;fill:#000000;fill-opacity:1;fill-rule:nonzero;stroke:none"
         id="text456"><tspan
           x="0 15.966 20.052 28.242001 32.292 41.742001 50.759998 60.209999 64.349998 72.972 77.255997 86.706001 95.328003 102.438 106.398 115.848 124.758 130.51801 136.278 145.242 151.524 155.826 163.25999 172.62 180.666 189.63 195.552 204.174 212.59801 221.562 226.062 230.13 234.198 243.68401 253.134 261.55801 270.522 276.80399"
           y="0"
           id="tspan454">Wikipedia has better coverage, longer </tspan></text>
</g></g><g
     id="g458"
     transform="matrix(1.3333333,0,0,-1.3333333,-104.53333,548.26666)"><g
       id="g460"
       clip-path="url(#clipPath464)"><text
         transform="matrix(1,0,0,-1,616.94,118.92)"
         style="font-variant:normal;font-weight:normal;font-size:18px;font-family:Calibri;-inkscape-font-specification:Calibri;writing-mode:lr-tb;fill:#000000;fill-opacity:1;fill-rule:nonzero;stroke:none"
         id="text468"><tspan
           x="0 8.6219997 14.904 20.879999 24.966 32.526001 36.612 45.576 52.667999 57.203999 61.271999 77.292 81.342003 89.531998 93.582001 103.032 112.05 121.5 125.64 134.26199 138.54601 147.168 153.45 159.42599 163.51199 171.07201 175.158 184.12199 191.214 195.39 204.87601 214.326 218.53799 231.26401 240.75 255.132 264.09601 273.60001"
           y="0"
           id="tspan466">articles. Wikipedia articles on women </tspan></text>
</g></g><g
     id="g470"
     transform="matrix(1.3333333,0,0,-1.3333333,-104.53333,548.26666)"><g
       id="g472"
       clip-path="url(#clipPath476)"><text
         transform="matrix(1,0,0,-1,616.94,97.32)"
         style="font-variant:normal;font-weight:normal;font-size:18px;font-family:Calibri;-inkscape-font-specification:Calibri;writing-mode:lr-tb;fill:#000000;fill-opacity:1;fill-rule:nonzero;stroke:none"
         id="text480"><tspan
           x="0 8.6219997 14.634 23.598 27.666 42.102001 51.588001 57.582001 66.545998 70.758003 74.844002 78.93 86.489998 95.454002 99.594002 107.748 111.906 117.792 127.278 131.34599 140.79601 149.814 153.99001 168.37199 172.51199 179.55 186.588 190.728 200.17799 208.692 212.65199 218.68201 228.132 236.754 246.20399 250.43401 256.46399 265.914 274.42801 280.45801"
           y="0"
           id="tspan478">are more likely to be missing than that </tspan></text>
</g></g><g
     id="g482"
     transform="matrix(1.3333333,0,0,-1.3333333,-104.53333,548.26666)"><g
       id="g484"
       clip-path="url(#clipPath488)"><text
         transform="matrix(1,0,0,-1,616.94,75.72)"
         style="font-variant:normal;font-weight:normal;font-size:18.02400017px;font-family:Calibri;-inkscape-font-specification:Calibri;writing-mode:lr-tb;fill:#000000;fill-opacity:1;fill-rule:nonzero;stroke:none"
         id="text492"><tspan
           x="0 9.4986477 14.995968 19.069391 33.47057 42.446522 51.909119 56.14476 63.588673 73.087318 87.488495 96.951096 105.58459 111.58659 120.56254 130.02513 134.24275 140.11858 149.61722 153.69064 163.4957 169.78609 173.84148 179.60916 188.24266 197.70526 207.16786 211.31337 218.72124 227.35474"
           y="0"
           id="tspan490">of men compared to Britannica.</tspan></text>
</g></g></svg>