<?xml version="1.0" encoding="UTF-8" standalone="no"?>
<svg
   xmlns:dc="http://purl.org/dc/elements/1.1/"
   xmlns:cc="http://creativecommons.org/ns#"
   xmlns:rdf="http://www.w3.org/1999/02/22-rdf-syntax-ns#"
   xmlns:svg="http://www.w3.org/2000/svg"
   xmlns="http://www.w3.org/2000/svg"
   xmlns:sodipodi="http://sodipodi.sourceforge.net/DTD/sodipodi-0.dtd"
   xmlns:inkscape="http://www.inkscape.org/namespaces/inkscape"
   viewBox="0 0 1280 149.10641"
   height="149.10641"
   width="1280"
   xml:space="preserve"
   id="svg2"
   version="1.1"
   sodipodi:docname="pg_12.svg"
   inkscape:version="0.92.1 r15371"><sodipodi:namedview
     pagecolor="#ffffff"
     bordercolor="#666666"
     borderopacity="1"
     objecttolerance="10"
     gridtolerance="10"
     guidetolerance="10"
     inkscape:pageopacity="0"
     inkscape:pageshadow="2"
     inkscape:window-width="1920"
     inkscape:window-height="1016"
     id="namedview650"
     showgrid="false"
     fit-margin-top="0"
     fit-margin-left="0"
     fit-margin-right="0"
     fit-margin-bottom="0"
     inkscape:zoom="0.4875"
     inkscape:cx="589.98327"
     inkscape:cy="177.99967"
     inkscape:window-x="0"
     inkscape:window-y="27"
     inkscape:window-maximized="1"
     inkscape:current-layer="svg2" /><metadata
     id="metadata8"><rdf:RDF><cc:Work
         rdf:about=""><dc:format>image/svg+xml</dc:format><dc:type
           rdf:resource="http://purl.org/dc/dcmitype/StillImage" /><dc:title></dc:title></cc:Work></rdf:RDF></metadata><defs
     id="defs6"><clipPath
       id="clipPath18"
       clipPathUnits="userSpaceOnUse"><path
         style="clip-rule:evenodd"
         id="path16"
         d="M 0,1.2207e-4 H 960 V 540.00012 H 0 Z"
         inkscape:connector-curvature="0" /></clipPath><clipPath
       id="clipPath28"
       clipPathUnits="userSpaceOnUse"><path
         style="clip-rule:evenodd"
         id="path26"
         d="M 0,1.8311e-4 H 960 V 540.00018 H 0 Z"
         inkscape:connector-curvature="0" /></clipPath><clipPath
       id="clipPath38"
       clipPathUnits="userSpaceOnUse"><path
         style="clip-rule:evenodd"
         id="path36"
         d="M 0,1.8311e-4 H 960 V 540.00018 H 0 Z"
         inkscape:connector-curvature="0" /></clipPath><clipPath
       id="clipPath50"
       clipPathUnits="userSpaceOnUse"><path
         style="clip-rule:evenodd"
         id="path48"
         d="M 0,2.4414e-4 H 960 V 540.00024 H 0 Z"
         inkscape:connector-curvature="0" /></clipPath><clipPath
       id="clipPath60"
       clipPathUnits="userSpaceOnUse"><path
         style="clip-rule:evenodd"
         id="path58"
         d="M 0,2.4414e-4 H 960 V 540.00024 H 0 Z"
         inkscape:connector-curvature="0" /></clipPath><clipPath
       id="clipPath70"
       clipPathUnits="userSpaceOnUse"><path
         style="clip-rule:evenodd"
         id="path68"
         d="M 0,2.4414e-4 H 960 V 540.00024 H 0 Z"
         inkscape:connector-curvature="0" /></clipPath><clipPath
       id="clipPath80"
       clipPathUnits="userSpaceOnUse"><path
         style="clip-rule:evenodd"
         id="path78"
         d="M 0,2.4414e-4 H 960 V 540.00024 H 0 Z"
         inkscape:connector-curvature="0" /></clipPath><clipPath
       id="clipPath96"
       clipPathUnits="userSpaceOnUse"><path
         style="clip-rule:evenodd"
         id="path94"
         d="M 0,2.4414e-4 H 960 V 540.00024 H 0 Z"
         inkscape:connector-curvature="0" /></clipPath><clipPath
       id="clipPath108"
       clipPathUnits="userSpaceOnUse"><path
         style="clip-rule:evenodd"
         id="path106"
         d="M 0,2.4414e-4 H 960 V 540.00024 H 0 Z"
         inkscape:connector-curvature="0" /></clipPath><clipPath
       id="clipPath124"
       clipPathUnits="userSpaceOnUse"><path
         style="clip-rule:evenodd"
         id="path122"
         d="M 0,2.4414e-4 H 960 V 540.00024 H 0 Z"
         inkscape:connector-curvature="0" /></clipPath><clipPath
       id="clipPath140"
       clipPathUnits="userSpaceOnUse"><path
         style="clip-rule:evenodd"
         id="path138"
         d="M 0,2.4414e-4 H 960 V 540.00024 H 0 Z"
         inkscape:connector-curvature="0" /></clipPath><clipPath
       id="clipPath150"
       clipPathUnits="userSpaceOnUse"><path
         style="clip-rule:evenodd"
         id="path148"
         d="M 0,2.4414e-4 H 960 V 540.00024 H 0 Z"
         inkscape:connector-curvature="0" /></clipPath><clipPath
       id="clipPath160"
       clipPathUnits="userSpaceOnUse"><path
         style="clip-rule:evenodd"
         id="path158"
         d="M 0,2.4414e-4 H 960 V 540.00024 H 0 Z"
         inkscape:connector-curvature="0" /></clipPath><clipPath
       id="clipPath170"
       clipPathUnits="userSpaceOnUse"><path
         style="clip-rule:evenodd"
         id="path168"
         d="M 0,2.4414e-4 H 960 V 540.00024 H 0 Z"
         inkscape:connector-curvature="0" /></clipPath><clipPath
       id="clipPath180"
       clipPathUnits="userSpaceOnUse"><path
         style="clip-rule:evenodd"
         id="path178"
         d="M 0,2.4414e-4 H 960 V 540.00024 H 0 Z"
         inkscape:connector-curvature="0" /></clipPath><clipPath
       id="clipPath190"
       clipPathUnits="userSpaceOnUse"><path
         style="clip-rule:evenodd"
         id="path188"
         d="M 0,2.4414e-4 H 960 V 540.00024 H 0 Z"
         inkscape:connector-curvature="0" /></clipPath><clipPath
       id="clipPath200"
       clipPathUnits="userSpaceOnUse"><path
         style="clip-rule:evenodd"
         id="path198"
         d="M 0,2.4414e-4 H 960 V 540.00024 H 0 Z"
         inkscape:connector-curvature="0" /></clipPath><clipPath
       id="clipPath210"
       clipPathUnits="userSpaceOnUse"><path
         style="clip-rule:evenodd"
         id="path208"
         d="M 0,2.4414e-4 H 960 V 540.00024 H 0 Z"
         inkscape:connector-curvature="0" /></clipPath><clipPath
       id="clipPath220"
       clipPathUnits="userSpaceOnUse"><path
         style="clip-rule:evenodd"
         id="path218"
         d="M 0,2.4414e-4 H 960 V 540.00024 H 0 Z"
         inkscape:connector-curvature="0" /></clipPath><clipPath
       id="clipPath230"
       clipPathUnits="userSpaceOnUse"><path
         style="clip-rule:evenodd"
         id="path228"
         d="M 0,2.4414e-4 H 960 V 540.00024 H 0 Z"
         inkscape:connector-curvature="0" /></clipPath><clipPath
       id="clipPath240"
       clipPathUnits="userSpaceOnUse"><path
         style="clip-rule:evenodd"
         id="path238"
         d="M 0,2.4414e-4 H 960 V 540.00024 H 0 Z"
         inkscape:connector-curvature="0" /></clipPath><clipPath
       id="clipPath250"
       clipPathUnits="userSpaceOnUse"><path
         style="clip-rule:evenodd"
         id="path248"
         d="M 0,2.4414e-4 H 960 V 540.00024 H 0 Z"
         inkscape:connector-curvature="0" /></clipPath><clipPath
       id="clipPath260"
       clipPathUnits="userSpaceOnUse"><path
         style="clip-rule:evenodd"
         id="path258"
         d="M 0,2.4414e-4 H 960 V 540.00024 H 0 Z"
         inkscape:connector-curvature="0" /></clipPath><clipPath
       id="clipPath270"
       clipPathUnits="userSpaceOnUse"><path
         style="clip-rule:evenodd"
         id="path268"
         d="M 0,2.4414e-4 H 960 V 540.00024 H 0 Z"
         inkscape:connector-curvature="0" /></clipPath><clipPath
       id="clipPath280"
       clipPathUnits="userSpaceOnUse"><path
         style="clip-rule:evenodd"
         id="path278"
         d="M 0,2.4414e-4 H 960 V 540.00024 H 0 Z"
         inkscape:connector-curvature="0" /></clipPath><clipPath
       id="clipPath290"
       clipPathUnits="userSpaceOnUse"><path
         style="clip-rule:evenodd"
         id="path288"
         d="M 0,2.4414e-4 H 960 V 540.00024 H 0 Z"
         inkscape:connector-curvature="0" /></clipPath><clipPath
       id="clipPath300"
       clipPathUnits="userSpaceOnUse"><path
         style="clip-rule:evenodd"
         id="path298"
         d="M 0,2.4414e-4 H 960 V 540.00024 H 0 Z"
         inkscape:connector-curvature="0" /></clipPath><clipPath
       id="clipPath310"
       clipPathUnits="userSpaceOnUse"><path
         style="clip-rule:evenodd"
         id="path308"
         d="M 3.09e-6,463.32 H 207.36 V 540 H 3.09e-6 Z"
         inkscape:connector-curvature="0" /></clipPath><clipPath
       id="clipPath322"
       clipPathUnits="userSpaceOnUse"><path
         style="clip-rule:evenodd"
         id="path320"
         d="m 207.24,463.32 h 88.68 V 540 h -88.68 z"
         inkscape:connector-curvature="0" /></clipPath><clipPath
       id="clipPath334"
       clipPathUnits="userSpaceOnUse"><path
         style="clip-rule:evenodd"
         id="path332"
         d="M 295.8,463.32 H 667.56 V 540 H 295.8 Z"
         inkscape:connector-curvature="0" /></clipPath><clipPath
       id="clipPath346"
       clipPathUnits="userSpaceOnUse"><path
         style="clip-rule:evenodd"
         id="path344"
         d="M 667.44,463.32 H 960 V 540 H 667.44 Z"
         inkscape:connector-curvature="0" /></clipPath><clipPath
       id="clipPath358"
       clipPathUnits="userSpaceOnUse"><path
         style="clip-rule:evenodd"
         id="path356"
         d="M 3.09e-6,329.16 H 207.36 V 540 H 3.09e-6 Z"
         inkscape:connector-curvature="0" /></clipPath><clipPath
       id="clipPath370"
       clipPathUnits="userSpaceOnUse"><path
         style="clip-rule:evenodd"
         id="path368"
         d="M 3.09e-6,329.16 H 207.36 V 540 H 3.09e-6 Z"
         inkscape:connector-curvature="0" /></clipPath><clipPath
       id="clipPath382"
       clipPathUnits="userSpaceOnUse"><path
         style="clip-rule:evenodd"
         id="path380"
         d="m 207.24,69.96 h 88.68 V 540 h -88.68 z"
         inkscape:connector-curvature="0" /></clipPath><clipPath
       id="clipPath394"
       clipPathUnits="userSpaceOnUse"><path
         style="clip-rule:evenodd"
         id="path392"
         d="M 1.4305e-5,0 H 960.00001 V 540 H 1.4305e-5 Z"
         inkscape:connector-curvature="0" /></clipPath><clipPath
       id="clipPath406"
       clipPathUnits="userSpaceOnUse"><path
         style="clip-rule:evenodd"
         id="path404"
         d="m 207.24,69.96 h 88.68 V 540 h -88.68 z"
         inkscape:connector-curvature="0" /></clipPath><clipPath
       id="clipPath418"
       clipPathUnits="userSpaceOnUse"><path
         style="clip-rule:evenodd"
         id="path416"
         d="m 207.24,69.96 h 88.68 V 540 h -88.68 z"
         inkscape:connector-curvature="0" /></clipPath><clipPath
       id="clipPath430"
       clipPathUnits="userSpaceOnUse"><path
         style="clip-rule:evenodd"
         id="path428"
         d="m 207.24,69.96 h 88.68 V 540 h -88.68 z"
         inkscape:connector-curvature="0" /></clipPath><clipPath
       id="clipPath442"
       clipPathUnits="userSpaceOnUse"><path
         style="clip-rule:evenodd"
         id="path440"
         d="m 207.24,69.96 h 88.68 V 540 h -88.68 z"
         inkscape:connector-curvature="0" /></clipPath><clipPath
       id="clipPath454"
       clipPathUnits="userSpaceOnUse"><path
         style="clip-rule:evenodd"
         id="path452"
         d="M 295.8,242.76 H 667.56 V 540 H 295.8 Z"
         inkscape:connector-curvature="0" /></clipPath><clipPath
       id="clipPath466"
       clipPathUnits="userSpaceOnUse"><path
         style="clip-rule:evenodd"
         id="path464"
         d="M 295.8,242.76 H 667.56 V 540 H 295.8 Z"
         inkscape:connector-curvature="0" /></clipPath><clipPath
       id="clipPath478"
       clipPathUnits="userSpaceOnUse"><path
         style="clip-rule:evenodd"
         id="path476"
         d="M 1.4305e-5,0 H 960.00001 V 540 H 1.4305e-5 Z"
         inkscape:connector-curvature="0" /></clipPath><clipPath
       id="clipPath490"
       clipPathUnits="userSpaceOnUse"><path
         style="clip-rule:evenodd"
         id="path488"
         d="M 1.4305e-5,0 H 960.00001 V 540 H 1.4305e-5 Z"
         inkscape:connector-curvature="0" /></clipPath><clipPath
       id="clipPath502"
       clipPathUnits="userSpaceOnUse"><path
         style="clip-rule:evenodd"
         id="path500"
         d="M 1.4305e-5,0 H 960.00001 V 540 H 1.4305e-5 Z"
         inkscape:connector-curvature="0" /></clipPath><clipPath
       id="clipPath514"
       clipPathUnits="userSpaceOnUse"><path
         style="clip-rule:evenodd"
         id="path512"
         d="M 1.4305e-5,0 H 960.00001 V 540 H 1.4305e-5 Z"
         inkscape:connector-curvature="0" /></clipPath><clipPath
       id="clipPath526"
       clipPathUnits="userSpaceOnUse"><path
         style="clip-rule:evenodd"
         id="path524"
         d="M 1.4305e-5,0 H 960.00001 V 540 H 1.4305e-5 Z"
         inkscape:connector-curvature="0" /></clipPath><clipPath
       id="clipPath538"
       clipPathUnits="userSpaceOnUse"><path
         style="clip-rule:evenodd"
         id="path536"
         d="M 295.8,242.76 H 667.56 V 540 H 295.8 Z"
         inkscape:connector-curvature="0" /></clipPath><clipPath
       id="clipPath550"
       clipPathUnits="userSpaceOnUse"><path
         style="clip-rule:evenodd"
         id="path548"
         d="M 667.44,242.76 H 960 V 540 H 667.44 Z"
         inkscape:connector-curvature="0" /></clipPath><clipPath
       id="clipPath562"
       clipPathUnits="userSpaceOnUse"><path
         style="clip-rule:evenodd"
         id="path560"
         d="M 1.4305e-5,0 H 960.00001 V 540 H 1.4305e-5 Z"
         inkscape:connector-curvature="0" /></clipPath><clipPath
       id="clipPath574"
       clipPathUnits="userSpaceOnUse"><path
         style="clip-rule:evenodd"
         id="path572"
         d="M 667.44,242.76 H 960 V 540 H 667.44 Z"
         inkscape:connector-curvature="0" /></clipPath><clipPath
       id="clipPath586"
       clipPathUnits="userSpaceOnUse"><path
         style="clip-rule:evenodd"
         id="path584"
         d="M 1.4305e-5,0 H 960.00001 V 540 H 1.4305e-5 Z"
         inkscape:connector-curvature="0" /></clipPath><clipPath
       id="clipPath598"
       clipPathUnits="userSpaceOnUse"><path
         style="clip-rule:evenodd"
         id="path596"
         d="M 1.4305e-5,0 H 960.00001 V 540 H 1.4305e-5 Z"
         inkscape:connector-curvature="0" /></clipPath><clipPath
       id="clipPath610"
       clipPathUnits="userSpaceOnUse"><path
         style="clip-rule:evenodd"
         id="path608"
         d="M 667.44,242.76 H 960 V 540 H 667.44 Z"
         inkscape:connector-curvature="0" /></clipPath><clipPath
       id="clipPath622"
       clipPathUnits="userSpaceOnUse"><path
         style="clip-rule:evenodd"
         id="path620"
         d="M 3.09e-6,240.48 H 207.36 V 540 H 3.09e-6 Z"
         inkscape:connector-curvature="0" /></clipPath><clipPath
       id="clipPath634"
       clipPathUnits="userSpaceOnUse"><path
         style="clip-rule:evenodd"
         id="path632"
         d="M 3.09e-6,240.48 H 207.36 V 540 H 3.09e-6 Z"
         inkscape:connector-curvature="0" /></clipPath><clipPath
       id="clipPath646"
       clipPathUnits="userSpaceOnUse"><path
         style="clip-rule:evenodd"
         id="path644"
         d="M 667.44,154.08 H 960 V 540 H 667.44 Z"
         inkscape:connector-curvature="0" /></clipPath><clipPath
       id="clipPath658"
       clipPathUnits="userSpaceOnUse"><path
         style="clip-rule:evenodd"
         id="path656"
         d="M 667.44,154.08 H 960 V 540 H 667.44 Z"
         inkscape:connector-curvature="0" /></clipPath><clipPath
       id="clipPath670"
       clipPathUnits="userSpaceOnUse"><path
         style="clip-rule:evenodd"
         id="path668"
         d="M 667.44,154.08 H 960 V 540 H 667.44 Z"
         inkscape:connector-curvature="0" /></clipPath><clipPath
       id="clipPath682"
       clipPathUnits="userSpaceOnUse"><path
         style="clip-rule:evenodd"
         id="path680"
         d="M 3.09e-6,167.76 H 207.36 V 470.28 H 3.09e-6 Z"
         inkscape:connector-curvature="0" /></clipPath><clipPath
       id="clipPath694"
       clipPathUnits="userSpaceOnUse"><path
         style="clip-rule:evenodd"
         id="path692"
         d="M 3.09e-6,167.76 H 207.36 V 470.28 H 3.09e-6 Z"
         inkscape:connector-curvature="0" /></clipPath><clipPath
       id="clipPath706"
       clipPathUnits="userSpaceOnUse"><path
         style="clip-rule:evenodd"
         id="path704"
         d="m 207.24,81.36 h 88.68 v 453.72 h -88.68 z"
         inkscape:connector-curvature="0" /></clipPath><clipPath
       id="clipPath718"
       clipPathUnits="userSpaceOnUse"><path
         style="clip-rule:evenodd"
         id="path716"
         d="M 1.4305e-5,0 H 960.00001 V 540 H 1.4305e-5 Z"
         inkscape:connector-curvature="0" /></clipPath><clipPath
       id="clipPath730"
       clipPathUnits="userSpaceOnUse"><path
         style="clip-rule:evenodd"
         id="path728"
         d="m 207.24,81.36 h 88.68 v 453.72 h -88.68 z"
         inkscape:connector-curvature="0" /></clipPath><clipPath
       id="clipPath742"
       clipPathUnits="userSpaceOnUse"><path
         style="clip-rule:evenodd"
         id="path740"
         d="m 207.24,81.36 h 88.68 v 453.72 h -88.68 z"
         inkscape:connector-curvature="0" /></clipPath><clipPath
       id="clipPath754"
       clipPathUnits="userSpaceOnUse"><path
         style="clip-rule:evenodd"
         id="path752"
         d="M 295.8,81.36 H 667.56 V 535.08 H 295.8 Z"
         inkscape:connector-curvature="0" /></clipPath><clipPath
       id="clipPath766"
       clipPathUnits="userSpaceOnUse"><path
         style="clip-rule:evenodd"
         id="path764"
         d="M 295.8,81.36 H 667.56 V 535.08 H 295.8 Z"
         inkscape:connector-curvature="0" /></clipPath><clipPath
       id="clipPath778"
       clipPathUnits="userSpaceOnUse"><path
         style="clip-rule:evenodd"
         id="path776"
         d="M 1.4305e-5,0 H 960.00001 V 540 H 1.4305e-5 Z"
         inkscape:connector-curvature="0" /></clipPath><clipPath
       id="clipPath790"
       clipPathUnits="userSpaceOnUse"><path
         style="clip-rule:evenodd"
         id="path788"
         d="M 1.4305e-5,0 H 960.00001 V 540 H 1.4305e-5 Z"
         inkscape:connector-curvature="0" /></clipPath><clipPath
       id="clipPath802"
       clipPathUnits="userSpaceOnUse"><path
         style="clip-rule:evenodd"
         id="path800"
         d="M 1.4305e-5,0 H 960.00001 V 540 H 1.4305e-5 Z"
         inkscape:connector-curvature="0" /></clipPath><clipPath
       id="clipPath814"
       clipPathUnits="userSpaceOnUse"><path
         style="clip-rule:evenodd"
         id="path812"
         d="M 295.8,81.36 H 667.56 V 535.08 H 295.8 Z"
         inkscape:connector-curvature="0" /></clipPath><clipPath
       id="clipPath826"
       clipPathUnits="userSpaceOnUse"><path
         style="clip-rule:evenodd"
         id="path824"
         d="M 667.44,0 H 960 V 540 H 667.44 Z"
         inkscape:connector-curvature="0" /></clipPath><clipPath
       id="clipPath838"
       clipPathUnits="userSpaceOnUse"><path
         style="clip-rule:evenodd"
         id="path836"
         d="M 667.44,0 H 960 V 540 H 667.44 Z"
         inkscape:connector-curvature="0" /></clipPath><clipPath
       id="clipPath850"
       clipPathUnits="userSpaceOnUse"><path
         style="clip-rule:evenodd"
         id="path848"
         d="M 1.4305e-5,0 H 960.00001 V 540 H 1.4305e-5 Z"
         inkscape:connector-curvature="0" /></clipPath><clipPath
       id="clipPath862"
       clipPathUnits="userSpaceOnUse"><path
         style="clip-rule:evenodd"
         id="path860"
         d="M 1.4305e-5,0 H 960.00001 V 540 H 1.4305e-5 Z"
         inkscape:connector-curvature="0" /></clipPath><clipPath
       id="clipPath874"
       clipPathUnits="userSpaceOnUse"><path
         style="clip-rule:evenodd"
         id="path872"
         d="M 667.44,0 H 960 V 540 H 667.44 Z"
         inkscape:connector-curvature="0" /></clipPath><clipPath
       id="clipPath886"
       clipPathUnits="userSpaceOnUse"><path
         style="clip-rule:evenodd"
         id="path884"
         d="M 667.44,0 H 960 V 540 H 667.44 Z"
         inkscape:connector-curvature="0" /></clipPath><clipPath
       id="clipPath898"
       clipPathUnits="userSpaceOnUse"><path
         style="clip-rule:evenodd"
         id="path896"
         d="M 667.44,0 H 960 V 540 H 667.44 Z"
         inkscape:connector-curvature="0" /></clipPath><clipPath
       id="clipPath910"
       clipPathUnits="userSpaceOnUse"><path
         style="clip-rule:evenodd"
         id="path908"
         d="M 3.09e-6,0 H 207.36 V 418.56 H 3.09e-6 Z"
         inkscape:connector-curvature="0" /></clipPath><clipPath
       id="clipPath922"
       clipPathUnits="userSpaceOnUse"><path
         style="clip-rule:evenodd"
         id="path920"
         d="M 3.09e-6,0 H 207.36 V 418.56 H 3.09e-6 Z"
         inkscape:connector-curvature="0" /></clipPath><clipPath
       id="clipPath934"
       clipPathUnits="userSpaceOnUse"><path
         style="clip-rule:evenodd"
         id="path932"
         d="M 3.09e-6,0 H 207.36 V 418.56 H 3.09e-6 Z"
         inkscape:connector-curvature="0" /></clipPath><clipPath
       id="clipPath946"
       clipPathUnits="userSpaceOnUse"><path
         style="clip-rule:evenodd"
         id="path944"
         d="m 207.24,0 h 88.68 v 418.56 h -88.68 z"
         inkscape:connector-curvature="0" /></clipPath><clipPath
       id="clipPath958"
       clipPathUnits="userSpaceOnUse"><path
         style="clip-rule:evenodd"
         id="path956"
         d="M 1.4305e-5,0 H 960.00001 V 540 H 1.4305e-5 Z"
         inkscape:connector-curvature="0" /></clipPath><clipPath
       id="clipPath970"
       clipPathUnits="userSpaceOnUse"><path
         style="clip-rule:evenodd"
         id="path968"
         d="m 207.24,0 h 88.68 v 418.56 h -88.68 z"
         inkscape:connector-curvature="0" /></clipPath><clipPath
       id="clipPath982"
       clipPathUnits="userSpaceOnUse"><path
         style="clip-rule:evenodd"
         id="path980"
         d="m 207.24,0 h 88.68 v 418.56 h -88.68 z"
         inkscape:connector-curvature="0" /></clipPath><clipPath
       id="clipPath994"
       clipPathUnits="userSpaceOnUse"><path
         style="clip-rule:evenodd"
         id="path992"
         d="M 295.8,0 H 667.56 V 540 H 295.8 Z"
         inkscape:connector-curvature="0" /></clipPath><clipPath
       id="clipPath1006"
       clipPathUnits="userSpaceOnUse"><path
         style="clip-rule:evenodd"
         id="path1004"
         d="M 1.4305e-5,0 H 960.00001 V 540 H 1.4305e-5 Z"
         inkscape:connector-curvature="0" /></clipPath><clipPath
       id="clipPath1018"
       clipPathUnits="userSpaceOnUse"><path
         style="clip-rule:evenodd"
         id="path1016"
         d="M 295.8,0 H 667.56 V 540 H 295.8 Z"
         inkscape:connector-curvature="0" /></clipPath><clipPath
       id="clipPath1030"
       clipPathUnits="userSpaceOnUse"><path
         style="clip-rule:evenodd"
         id="path1028"
         d="M 295.8,0 H 667.56 V 540 H 295.8 Z"
         inkscape:connector-curvature="0" /></clipPath><clipPath
       id="clipPath1042"
       clipPathUnits="userSpaceOnUse"><path
         style="clip-rule:evenodd"
         id="path1040"
         d="M 295.8,0 H 667.56 V 540 H 295.8 Z"
         inkscape:connector-curvature="0" /></clipPath><clipPath
       id="clipPath1054"
       clipPathUnits="userSpaceOnUse"><path
         style="clip-rule:evenodd"
         id="path1052"
         d="M 295.8,0 H 667.56 V 540 H 295.8 Z"
         inkscape:connector-curvature="0" /></clipPath><clipPath
       id="clipPath1066"
       clipPathUnits="userSpaceOnUse"><path
         style="clip-rule:evenodd"
         id="path1064"
         d="M 667.44,0 H 960 V 540 H 667.44 Z"
         inkscape:connector-curvature="0" /></clipPath><clipPath
       id="clipPath1078"
       clipPathUnits="userSpaceOnUse"><path
         style="clip-rule:evenodd"
         id="path1076"
         d="M 667.44,0 H 960 V 540 H 667.44 Z"
         inkscape:connector-curvature="0" /></clipPath><clipPath
       id="clipPath1090"
       clipPathUnits="userSpaceOnUse"><path
         style="clip-rule:evenodd"
         id="path1088"
         d="M 667.44,0 H 960 V 540 H 667.44 Z"
         inkscape:connector-curvature="0" /></clipPath><clipPath
       id="clipPath1102"
       clipPathUnits="userSpaceOnUse"><path
         style="clip-rule:evenodd"
         id="path1100"
         d="M 667.44,0 H 960 V 540 H 667.44 Z"
         inkscape:connector-curvature="0" /></clipPath><clipPath
       id="clipPath1114"
       clipPathUnits="userSpaceOnUse"><path
         style="clip-rule:evenodd"
         id="path1112"
         d="M 667.44,0 H 960 V 540 H 667.44 Z"
         inkscape:connector-curvature="0" /></clipPath><clipPath
       id="clipPath1126"
       clipPathUnits="userSpaceOnUse"><path
         style="clip-rule:evenodd"
         id="path1124"
         d="M 3.09e-6,0 H 207.36 V 237.36 H 3.09e-6 Z"
         inkscape:connector-curvature="0" /></clipPath><clipPath
       id="clipPath1138"
       clipPathUnits="userSpaceOnUse"><path
         style="clip-rule:evenodd"
         id="path1136"
         d="M 3.09e-6,0 H 207.36 V 237.36 H 3.09e-6 Z"
         inkscape:connector-curvature="0" /></clipPath><clipPath
       id="clipPath1150"
       clipPathUnits="userSpaceOnUse"><path
         style="clip-rule:evenodd"
         id="path1148"
         d="m 207.24,0 h 88.68 v 302.16 h -88.68 z"
         inkscape:connector-curvature="0" /></clipPath><clipPath
       id="clipPath1162"
       clipPathUnits="userSpaceOnUse"><path
         style="clip-rule:evenodd"
         id="path1160"
         d="m 207.24,0 h 88.68 v 302.16 h -88.68 z"
         inkscape:connector-curvature="0" /></clipPath><clipPath
       id="clipPath1174"
       clipPathUnits="userSpaceOnUse"><path
         style="clip-rule:evenodd"
         id="path1172"
         d="m 207.24,0 h 88.68 v 302.16 h -88.68 z"
         inkscape:connector-curvature="0" /></clipPath><clipPath
       id="clipPath1186"
       clipPathUnits="userSpaceOnUse"><path
         style="clip-rule:evenodd"
         id="path1184"
         d="M 1.4305e-5,0 H 960.00001 V 540 H 1.4305e-5 Z"
         inkscape:connector-curvature="0" /></clipPath><clipPath
       id="clipPath1198"
       clipPathUnits="userSpaceOnUse"><path
         style="clip-rule:evenodd"
         id="path1196"
         d="M 1.4305e-5,0 H 960.00001 V 540 H 1.4305e-5 Z"
         inkscape:connector-curvature="0" /></clipPath><clipPath
       id="clipPath1210"
       clipPathUnits="userSpaceOnUse"><path
         style="clip-rule:evenodd"
         id="path1208"
         d="M 295.8,0 H 667.56 V 366.96 H 295.8 Z"
         inkscape:connector-curvature="0" /></clipPath><clipPath
       id="clipPath1222"
       clipPathUnits="userSpaceOnUse"><path
         style="clip-rule:evenodd"
         id="path1220"
         d="M 295.8,0 H 667.56 V 366.96 H 295.8 Z"
         inkscape:connector-curvature="0" /></clipPath><clipPath
       id="clipPath1234"
       clipPathUnits="userSpaceOnUse"><path
         style="clip-rule:evenodd"
         id="path1232"
         d="M 295.8,0 H 667.56 V 366.96 H 295.8 Z"
         inkscape:connector-curvature="0" /></clipPath><clipPath
       id="clipPath1246"
       clipPathUnits="userSpaceOnUse"><path
         style="clip-rule:evenodd"
         id="path1244"
         d="M 295.8,0 H 667.56 V 366.96 H 295.8 Z"
         inkscape:connector-curvature="0" /></clipPath><clipPath
       id="clipPath1258"
       clipPathUnits="userSpaceOnUse"><path
         style="clip-rule:evenodd"
         id="path1256"
         d="M 667.44,0 H 960 V 366.96 H 667.44 Z"
         inkscape:connector-curvature="0" /></clipPath><clipPath
       id="clipPath1270"
       clipPathUnits="userSpaceOnUse"><path
         style="clip-rule:evenodd"
         id="path1268"
         d="M 667.44,0 H 960 V 366.96 H 667.44 Z"
         inkscape:connector-curvature="0" /></clipPath><clipPath
       id="clipPath1282"
       clipPathUnits="userSpaceOnUse"><path
         style="clip-rule:evenodd"
         id="path1280"
         d="M 667.44,0 H 960 V 366.96 H 667.44 Z"
         inkscape:connector-curvature="0" /></clipPath><clipPath
       id="clipPath1294"
       clipPathUnits="userSpaceOnUse"><path
         style="clip-rule:evenodd"
         id="path1292"
         d="M 667.44,0 H 960 V 366.96 H 667.44 Z"
         inkscape:connector-curvature="0" /></clipPath></defs><g
     id="g22"
     transform="matrix(1.3333333,0,0,-1.3333333,0,149.10666)"><g
       id="g24"
       clip-path="url(#clipPath28)"><path
         inkscape:connector-curvature="0"
         d="M 0,6.1035e-5 H 960 V 36.000061 H 0 Z"
         style="fill:#bd582c;fill-opacity:1;fill-rule:evenodd;stroke:none"
         id="path30" /></g></g><g
     id="g32"
     transform="matrix(1.3333333,0,0,-1.3333333,0,149.10666)"><g
       id="g34"
       clip-path="url(#clipPath38)"><path
         inkscape:connector-curvature="0"
         d="m 0,36 h 960 v 5.28 H 0 Z"
         style="fill:#e48312;fill-opacity:1;fill-rule:evenodd;stroke:none"
         id="path40" /></g></g><g
     id="g144"
     transform="matrix(1.3333333,0,0,-1.3333333,0,149.10666)"><g
       id="g146"
       clip-path="url(#clipPath150)"><path
         inkscape:connector-curvature="0"
         d="M 0,1.8311e-4 H 207.3 V 111.33018 H 0 Z"
         style="fill:#f5d9cc;fill-opacity:1;fill-rule:evenodd;stroke:none"
         id="path152" /></g></g><g
     id="g154"
     transform="matrix(1.3333333,0,0,-1.3333333,0,149.10666)"><g
       id="g156"
       clip-path="url(#clipPath160)"><path
         inkscape:connector-curvature="0"
         d="m 207.3,1.8311e-4 h 88.598 V 111.33018 H 207.3 Z"
         style="fill:#f5d9cc;fill-opacity:1;fill-rule:evenodd;stroke:none"
         id="path162" /></g></g><g
     id="g164"
     transform="matrix(1.3333333,0,0,-1.3333333,0,149.10666)"><g
       id="g166"
       clip-path="url(#clipPath170)"><path
         inkscape:connector-curvature="0"
         d="M 295.9,1.8311e-4 H 667.55 V 111.33018 H 295.9 Z"
         style="fill:#f5d9cc;fill-opacity:1;fill-rule:evenodd;stroke:none"
         id="path172" /></g></g><g
     id="g174"
     transform="matrix(1.3333333,0,0,-1.3333333,0,149.10666)"><g
       id="g176"
       clip-path="url(#clipPath180)"><path
         inkscape:connector-curvature="0"
         d="M 667.55,1.8311e-4 H 960 V 111.33018 H 667.55 Z"
         style="fill:#f5d9cc;fill-opacity:1;fill-rule:evenodd;stroke:none"
         id="path182" /></g></g><g
     id="g184"
     transform="matrix(1.3333333,0,0,-1.3333333,0,331.10666)"><g
       id="g186"
       clip-path="url(#clipPath190)"><path
         inkscape:connector-curvature="0"
         d="M 207.3,553.87 V -0.49982"
         style="fill:none;stroke:#ffffff;stroke-width:1;stroke-linecap:butt;stroke-linejoin:round;stroke-miterlimit:10;stroke-dasharray:none;stroke-opacity:1"
         id="path192" /></g></g><g
     id="g194"
     transform="matrix(1.3333333,0,0,-1.3333333,0,331.10666)"><g
       id="g196"
       clip-path="url(#clipPath200)"><path
         inkscape:connector-curvature="0"
         d="M 295.9,553.87 V -0.49982"
         style="fill:none;stroke:#ffffff;stroke-width:1;stroke-linecap:butt;stroke-linejoin:round;stroke-miterlimit:10;stroke-dasharray:none;stroke-opacity:1"
         id="path202" /></g></g><g
     id="g204"
     transform="matrix(1.3333333,0,0,-1.3333333,0,331.10666)"><g
       id="g206"
       clip-path="url(#clipPath210)"><path
         inkscape:connector-curvature="0"
         d="M 667.55,553.87 V -0.49982"
         style="fill:none;stroke:#ffffff;stroke-width:1;stroke-linecap:butt;stroke-linejoin:round;stroke-miterlimit:10;stroke-dasharray:none;stroke-opacity:1"
         id="path212" /></g></g><g
     id="g264"
     transform="matrix(1.3333333,0,0,-1.3333333,0,149.10666)"><g
       id="g266"
       clip-path="url(#clipPath270)"><path
         inkscape:connector-curvature="0"
         d="m -0.5,111.33 h 961"
         style="fill:none;stroke:#ffffff;stroke-width:1;stroke-linecap:butt;stroke-linejoin:round;stroke-miterlimit:10;stroke-dasharray:none;stroke-opacity:1"
         id="path272" /></g></g><g
     id="g274"
     transform="matrix(1.3333333,0,0,-1.3333333,0,331.10666)"><g
       id="g276"
       clip-path="url(#clipPath280)"><path
         inkscape:connector-curvature="0"
         d="M 0,553.87 V -0.49982"
         style="fill:none;stroke:#ffffff;stroke-width:1;stroke-linecap:butt;stroke-linejoin:round;stroke-miterlimit:10;stroke-dasharray:none;stroke-opacity:1"
         id="path282" /></g></g><g
     id="g284"
     transform="matrix(1.3333333,0,0,-1.3333333,0,331.10666)"><g
       id="g286"
       clip-path="url(#clipPath290)"><path
         inkscape:connector-curvature="0"
         d="M 960,553.87 V -0.49982"
         style="fill:none;stroke:#ffffff;stroke-width:1;stroke-linecap:butt;stroke-linejoin:round;stroke-miterlimit:10;stroke-dasharray:none;stroke-opacity:1"
         id="path292" /></g></g><g
     id="g294"
     transform="matrix(1.3333333,0,0,-1.3333333,0,149.10666)"><g
       id="g296"
       clip-path="url(#clipPath300)"><path
         inkscape:connector-curvature="0"
         d="m -0.5,1.8311e-4 h 961"
         style="fill:none;stroke:#ffffff;stroke-width:1;stroke-linecap:butt;stroke-linejoin:round;stroke-miterlimit:10;stroke-dasharray:none;stroke-opacity:1"
         id="path302" /></g></g><g
     id="g1120"
     transform="matrix(1.3333333,0,0,-1.3333333,0,149.10666)"><g
       id="g1122"
       clip-path="url(#clipPath1126)"><text
         transform="matrix(1,0,0,-1,7.2,90.84)"
         style="font-variant:normal;font-weight:normal;font-size:18px;font-family:Calibri;-inkscape-font-specification:Calibri;writing-mode:lr-tb;fill:#000000;fill-opacity:1;fill-rule:nonzero;stroke:none"
         id="text1130"><tspan
           x="0 15.246 24.732 39.113998 48.077999 57.582001 61.757999 70.379997 79.830002 89.334 93.402 107.784 116.802 126.252 130.32001 139.338 148.78799 152.92799 158.90401"
           y="0"
           id="tspan1128">Women and men edit </tspan></text>
</g></g><g
     id="g1132"
     transform="matrix(1.3333333,0,0,-1.3333333,0,149.10666)"><g
       id="g1134"
       clip-path="url(#clipPath1138)"><text
         transform="matrix(1,0,0,-1,7.2,69.24)"
         style="font-variant:normal;font-weight:normal;font-size:18px;font-family:Calibri;-inkscape-font-specification:Calibri;writing-mode:lr-tb;fill:#000000;fill-opacity:1;fill-rule:nonzero;stroke:none"
         id="text1142"><tspan
           x="0 9.4499998 13.59 18.954 23.993999 32.958 38.987999 47.952 57.348 63.377998 67.445999 73.475998 81.629997 91.080002 100.044 107.136 111.204 120.69 126.18 130.248 138.924 145.20599 151.164 155.25 162.81 166.896 175.86"
           y="0"
           id="tspan1140">different types of articles</tspan></text>
</g></g><g
     id="g1144"
     transform="matrix(1.3333333,0,0,-1.3333333,0,149.10666)"><g
       id="g1146"
       clip-path="url(#clipPath1150)"><text
         transform="matrix(1,0,0,-1,214.54,90.84)"
         style="font-variant:normal;font-weight:normal;font-size:18px;font-family:Calibri;-inkscape-font-specification:Calibri;writing-mode:lr-tb;fill:#000000;fill-opacity:1;fill-rule:nonzero;stroke:none"
         id="text1154"><tspan
           x="0 8.2620001 15.876 25.326 31.608 35.639999 39.942001 48.006001 56.970001 63.251999"
           y="0"
           id="tspan1152">Schrijver </tspan></text>
</g></g><g
     id="g1156"
     transform="matrix(1.3333333,0,0,-1.3333333,0,149.10666)"><g
       id="g1158"
       clip-path="url(#clipPath1162)"><text
         transform="matrix(1,0,0,-1,214.54,69.24)"
         style="font-variant:normal;font-weight:normal;font-size:18px;font-family:Calibri;-inkscape-font-specification:Calibri;writing-mode:lr-tb;fill:#000000;fill-opacity:1;fill-rule:nonzero;stroke:none"
         id="text1166"><tspan
           x="0 5.454 14.526 23.652 32.778 41.903999 47.285999 51.731998"
           y="0"
           id="tspan1164">(2016), </tspan></text>
</g></g><g
     id="g1168"
     transform="matrix(1.3333333,0,0,-1.3333333,0,149.10666)"><g
       id="g1170"
       clip-path="url(#clipPath1174)"><text
         transform="matrix(1,0,0,-1,214.54,47.64)"
         style="font-variant:normal;font-weight:normal;font-size:18.02400017px;font-family:Calibri;-inkscape-font-specification:Calibri;writing-mode:lr-tb;fill:#000000;fill-opacity:1;fill-rule:nonzero;stroke:none"
         id="text1178"><tspan
           x="0 8.9999523"
           y="0"
           id="tspan1176">en</tspan></text>
</g></g><g
     id="g1180"
     transform="matrix(1.3333333,0,0,-1.3333333,0,149.10666)"><g
       id="g1182"
       clip-path="url(#clipPath1186)"><text
         transform="matrix(1,0,0,-1,233.02,47.64)"
         style="font-variant:normal;font-weight:normal;font-size:18.02400017px;font-family:Calibri;-inkscape-font-specification:Calibri;writing-mode:lr-tb;fill:#000000;fill-opacity:1;fill-rule:nonzero;stroke:none"
         id="text1190"><tspan
           x="0"
           y="0"
           id="tspan1188">-</tspan></text>
</g></g><g
     id="g1192"
     transform="matrix(1.3333333,0,0,-1.3333333,0,149.10666)"><g
       id="g1194"
       clip-path="url(#clipPath1198)"><text
         transform="matrix(1,0,0,-1,238.54,47.64)"
         style="font-variant:normal;font-weight:normal;font-size:18.02400017px;font-family:Calibri;-inkscape-font-specification:Calibri;writing-mode:lr-tb;fill:#000000;fill-opacity:1;fill-rule:nonzero;stroke:none"
         id="text1202"><tspan
           x="0 12.88716 16.924536 25.125456"
           y="0"
           id="tspan1200">wiki</tspan></text>
</g></g><g
     id="g1204"
     transform="matrix(1.3333333,0,0,-1.3333333,0,149.10666)"><g
       id="g1206"
       clip-path="url(#clipPath1210)"><text
         transform="matrix(1,0,0,-1,303.14,90.84)"
         style="font-variant:normal;font-weight:normal;font-size:18px;font-family:Calibri;-inkscape-font-specification:Calibri;writing-mode:lr-tb;fill:#000000;fill-opacity:1;fill-rule:nonzero;stroke:none"
         id="text1214"><tspan
           x="0 9.3599997 18.323999 26.856001 30.941999 37.782001 43.542 52.506001 58.535999 67.5 77.003998 81.306 90.755997 97.848 106.812 112.734 119.772 123.768 133.254 142.70399 146.916 162.882 166.968 175.158 179.20799 188.658 197.67599 207.12601 211.26601 219.888 224.172 237.04201 246.492 255.978 260.15399 269.604 278.02802 286.07401 295.03799"
           y="0"
           id="tspan1212">Registered users on Wikipedia who have </tspan></text>
</g></g><g
     id="g1216"
     transform="matrix(1.3333333,0,0,-1.3333333,0,149.10666)"><g
       id="g1218"
       clip-path="url(#clipPath1222)"><text
         transform="matrix(1,0,0,-1,303.14,69.24)"
         style="font-variant:normal;font-weight:normal;font-size:18px;font-family:Calibri;-inkscape-font-specification:Calibri;writing-mode:lr-tb;fill:#000000;fill-opacity:1;fill-rule:nonzero;stroke:none"
         id="text1226"><tspan
           x="0 14.382 23.346001 32.796001 38.754002 42.84 52.326 61.776001 70.776001 80.225998 84.438004 92.844002 101.808 111.312 120.762 129.78 136.062 140.13 149.58 155.57401 164.448 169.48801 178.452 184.48199 193.446 202.95 210.50999 219.474 223.686 232.308 241.758 251.26199 255.438 264.40201 273.90601 277.992 283.75201 292.716 302.22 306.522 315.03601 321.06601"
           y="0"
           id="tspan1224">mentioned gender preference and edited at </tspan></text>
</g></g><g
     id="g1228"
     transform="matrix(1.3333333,0,0,-1.3333333,0,149.10666)"><g
       id="g1230"
       clip-path="url(#clipPath1234)"><text
         transform="matrix(1,0,0,-1,303.14,47.64)"
         style="font-variant:normal;font-weight:normal;font-size:18.02400017px;font-family:Calibri;-inkscape-font-specification:Calibri;writing-mode:lr-tb;fill:#000000;fill-opacity:1;fill-rule:nonzero;stroke:none"
         id="text1238"><tspan
           x="0 4.0734239 13.049376 21.682873 28.550016 34.588055 38.66148 48.16013 57.622726 65.156761 74.132713 78.458473 83.865669 93.32827 97.527863 106.50381 110.57724 119.71541 128.85358 137.99174 142.40762 151.54579 160.68396 169.76805 175.17526 179.48299 188.11649 197.57909 207.04169 211.25931 220.23526 229.69786 233.84337 239.82735 244.00891 253.47151 257.61703 264.41208 270.2879 279.78656 286.07693 294.24179"
           y="0"
           id="tspan1236">least once (n = 257,157) and edit history </tspan></text>
</g></g><g
     id="g1240"
     transform="matrix(1.3333333,0,0,-1.3333333,0,149.10666)"><g
       id="g1242"
       clip-path="url(#clipPath1246)"><text
         transform="matrix(1,0,0,-1,303.14,26.016)"
         style="font-variant:normal;font-weight:normal;font-size:18px;font-family:Calibri;-inkscape-font-specification:Calibri;writing-mode:lr-tb;fill:#000000;fill-opacity:1;fill-rule:nonzero;stroke:none"
         id="text1250"><tspan
           x="0 7.5599999 11.646 20.268 27.341999 34.380001 38.52 44.009998 48.150002 57.113998 66.564003 70.758003 79.379997 86.994003 94.391998 103.878 109.872 119.322 123.462 132.912 141.39 145.62 151.506 160.992 165.168 181.134 185.22 193.41 197.46001 206.91 215.92799 225.37801 229.51801 238.14 241.48801 248.526 252.756 260.19 268.70401 274.46399 283.42801 291.90601 301.392 307.58401 311.67001 320.634"
           y="0"
           id="tspan1248">classified according to Wikipedia’s categories</tspan></text>
</g></g><g
     id="g1252"
     transform="matrix(1.3333333,0,0,-1.3333333,0,149.10666)"><g
       id="g1254"
       clip-path="url(#clipPath1258)"><text
         transform="matrix(1,0,0,-1,674.83,90.84)"
         style="font-variant:normal;font-weight:normal;font-size:18px;font-family:Calibri;-inkscape-font-specification:Calibri;writing-mode:lr-tb;fill:#000000;fill-opacity:1;fill-rule:nonzero;stroke:none"
         id="text1262"><tspan
           x="0 9.1260004 18.252001 31.122 35.262001 44.748001 50.237999 54.306 70.325996 74.375999 82.566002 86.615997 96.066002 105.084 114.534 118.674 127.296 130.644 137.68201 142.02 149.45399 157.968 163.728 172.692 181.17 190.65601 196.84801 200.93401 209.89799 216.99001 221.058 229.67999 235.71001 244.674"
           y="0"
           id="tspan1260">76% of Wikipedia’s categories are </tspan></text>
</g></g><g
     id="g1264"
     transform="matrix(1.3333333,0,0,-1.3333333,0,149.10666)"><g
       id="g1266"
       clip-path="url(#clipPath1270)"><text
         transform="matrix(1,0,0,-1,674.83,69.24)"
         style="font-variant:normal;font-weight:normal;font-size:18px;font-family:Calibri;-inkscape-font-specification:Calibri;writing-mode:lr-tb;fill:#000000;fill-opacity:1;fill-rule:nonzero;stroke:none"
         id="text1274"><tspan
           x="0 9.3599997 17.406 26.370001 32.652 38.646 47.610001 57.113998 63.108002 72.071999 79.164001 88.127998 97.524002 103.284 112.248 121.752 125.82 135.198 143.35201 147.54601 156.50999 160.64999 166.67999 176.13 185.09399 191.37601 195.534 203.94 212.90401 222.408 231.858 240.87601 245.556 250.002"
           y="0"
           id="tspan1272">overrepresented by either gender, </tspan></text>
</g></g><g
     id="g1276"
     transform="matrix(1.3333333,0,0,-1.3333333,0,149.10666)"><g
       id="g1278"
       clip-path="url(#clipPath1282)"><text
         transform="matrix(1,0,0,-1,674.83,47.64)"
         style="font-variant:normal;font-weight:normal;font-size:18.02400017px;font-family:Calibri;-inkscape-font-specification:Calibri;writing-mode:lr-tb;fill:#000000;fill-opacity:1;fill-rule:nonzero;stroke:none"
         id="text1286"><tspan
           x="0 9.4986477 18.961248 24.999289 29.144808 38.643456 44.140778 48.214199 61.10136 70.563957 74.619362 82.171417 91.634018 95.959778 105.09795 114.23611 127.03315 131.21472 138.65863 147.18399 152.95166 161.92761 170.34482 179.84348 186.06175 190.13518 199.11113 206.19456 210.26799 218.90147 224.92149 233.89745"
           y="0"
           id="tspan1284">out of which 35% categories are </tspan></text>
</g></g><g
     id="g1288"
     transform="matrix(1.3333333,0,0,-1.3333333,0,149.10666)"><g
       id="g1290"
       clip-path="url(#clipPath1294)"><text
         transform="matrix(1,0,0,-1,674.83,26.016)"
         style="font-variant:normal;font-weight:normal;font-size:18px;font-family:Calibri;-inkscape-font-specification:Calibri;writing-mode:lr-tb;fill:#000000;fill-opacity:1;fill-rule:nonzero;stroke:none"
         id="text1298"><tspan
           x="0 5.04 14.004 28.386 37.062 41.147999 50.112 54.18 62.855999 72.306 81.792 85.968002 95.094002 104.22 117.09 121.23 129.85201 135.864 144.828 148.896 163.332 171.95399 176.09399 185.058"
           y="0"
           id="tspan1296">female and 65% are male.</tspan></text>
</g></g></svg>