<?xml version="1.0" encoding="UTF-8" standalone="no"?>
<svg
   xmlns:dc="http://purl.org/dc/elements/1.1/"
   xmlns:cc="http://creativecommons.org/ns#"
   xmlns:rdf="http://www.w3.org/1999/02/22-rdf-syntax-ns#"
   xmlns:svg="http://www.w3.org/2000/svg"
   xmlns="http://www.w3.org/2000/svg"
   xmlns:sodipodi="http://sodipodi.sourceforge.net/DTD/sodipodi-0.dtd"
   xmlns:inkscape="http://www.inkscape.org/namespaces/inkscape"
   viewBox="0 0 1085.38 484.63867"
   height="484.63867"
   width="1085.38"
   xml:space="preserve"
   id="svg2"
   version="1.1"
   sodipodi:docname="pg_17.svg"
   inkscape:version="0.92.1 r15371"><sodipodi:namedview
     pagecolor="#ffffff"
     bordercolor="#666666"
     borderopacity="1"
     objecttolerance="10"
     gridtolerance="10"
     guidetolerance="10"
     inkscape:pageopacity="0"
     inkscape:pageshadow="2"
     inkscape:window-width="1920"
     inkscape:window-height="1016"
     id="namedview253"
     showgrid="false"
     fit-margin-top="0"
     fit-margin-left="0"
     fit-margin-right="0"
     fit-margin-bottom="0"
     inkscape:zoom="0.24375"
     inkscape:cx="533.70513"
     inkscape:cy="306.372"
     inkscape:window-x="0"
     inkscape:window-y="27"
     inkscape:window-maximized="1"
     inkscape:current-layer="svg2" /><metadata
     id="metadata8"><rdf:RDF><cc:Work
         rdf:about=""><dc:format>image/svg+xml</dc:format><dc:type
           rdf:resource="http://purl.org/dc/dcmitype/StillImage" /><dc:title></dc:title></cc:Work></rdf:RDF></metadata><defs
     id="defs6"><clipPath
       id="clipPath18"
       clipPathUnits="userSpaceOnUse"><path
         style="clip-rule:evenodd"
         id="path16"
         d="M 0,1.2207e-4 H 960 V 540.00012 H 0 Z"
         inkscape:connector-curvature="0" /></clipPath><clipPath
       id="clipPath28"
       clipPathUnits="userSpaceOnUse"><path
         style="clip-rule:evenodd"
         id="path26"
         d="M 0,1.8311e-4 H 960 V 540.00018 H 0 Z"
         inkscape:connector-curvature="0" /></clipPath><clipPath
       id="clipPath38"
       clipPathUnits="userSpaceOnUse"><path
         style="clip-rule:evenodd"
         id="path36"
         d="M 0,1.8311e-4 H 960 V 540.00018 H 0 Z"
         inkscape:connector-curvature="0" /></clipPath><clipPath
       id="clipPath50"
       clipPathUnits="userSpaceOnUse"><path
         style="clip-rule:evenodd"
         id="path48"
         d="M 1.4305e-5,0 H 960.00001 V 540 H 1.4305e-5 Z"
         inkscape:connector-curvature="0" /></clipPath><clipPath
       id="clipPath104"
       clipPathUnits="userSpaceOnUse"><path
         style="clip-rule:evenodd"
         id="path102"
         d="M 86.28,313.2 H 309.24 V 464.4 H 86.28 Z"
         inkscape:connector-curvature="0" /></clipPath><clipPath
       id="clipPath116"
       clipPathUnits="userSpaceOnUse"><path
         style="clip-rule:evenodd"
         id="path114"
         d="m 309.12,313.2 h 295.8 v 151.2 h -295.8 z"
         inkscape:connector-curvature="0" /></clipPath><clipPath
       id="clipPath128"
       clipPathUnits="userSpaceOnUse"><path
         style="clip-rule:evenodd"
         id="path126"
         d="M 604.8,313.2 H 899.52 V 464.4 H 604.8 Z"
         inkscape:connector-curvature="0" /></clipPath><clipPath
       id="clipPath140"
       clipPathUnits="userSpaceOnUse"><path
         style="clip-rule:evenodd"
         id="path138"
         d="M 86.28,248.88 H 309.24 V 400.2 H 86.28 Z"
         inkscape:connector-curvature="0" /></clipPath><clipPath
       id="clipPath152"
       clipPathUnits="userSpaceOnUse"><path
         style="clip-rule:evenodd"
         id="path150"
         d="m 309.12,76.08 h 295.8 V 529.8 h -295.8 z"
         inkscape:connector-curvature="0" /></clipPath><clipPath
       id="clipPath164"
       clipPathUnits="userSpaceOnUse"><path
         style="clip-rule:evenodd"
         id="path162"
         d="m 309.12,76.08 h 295.8 V 529.8 h -295.8 z"
         inkscape:connector-curvature="0" /></clipPath><clipPath
       id="clipPath176"
       clipPathUnits="userSpaceOnUse"><path
         style="clip-rule:evenodd"
         id="path174"
         d="m 309.12,76.08 h 295.8 V 529.8 h -295.8 z"
         inkscape:connector-curvature="0" /></clipPath><clipPath
       id="clipPath188"
       clipPathUnits="userSpaceOnUse"><path
         style="clip-rule:evenodd"
         id="path186"
         d="M 604.8,0 H 899.52 V 540 H 604.8 Z"
         inkscape:connector-curvature="0" /></clipPath><clipPath
       id="clipPath200"
       clipPathUnits="userSpaceOnUse"><path
         style="clip-rule:evenodd"
         id="path198"
         d="M 604.8,0 H 899.52 V 540 H 604.8 Z"
         inkscape:connector-curvature="0" /></clipPath><clipPath
       id="clipPath212"
       clipPathUnits="userSpaceOnUse"><path
         style="clip-rule:evenodd"
         id="path210"
         d="M 604.8,0 H 899.52 V 540 H 604.8 Z"
         inkscape:connector-curvature="0" /></clipPath><clipPath
       id="clipPath224"
       clipPathUnits="userSpaceOnUse"><path
         style="clip-rule:evenodd"
         id="path222"
         d="M 604.8,0 H 899.52 V 540 H 604.8 Z"
         inkscape:connector-curvature="0" /></clipPath><clipPath
       id="clipPath236"
       clipPathUnits="userSpaceOnUse"><path
         style="clip-rule:evenodd"
         id="path234"
         d="M 86.28,57.48 H 309.24 V 360 H 86.28 Z"
         inkscape:connector-curvature="0" /></clipPath><clipPath
       id="clipPath248"
       clipPathUnits="userSpaceOnUse"><path
         style="clip-rule:evenodd"
         id="path246"
         d="M 1.4305e-5,0 H 960.00001 V 540 H 1.4305e-5 Z"
         inkscape:connector-curvature="0" /></clipPath><clipPath
       id="clipPath260"
       clipPathUnits="userSpaceOnUse"><path
         style="clip-rule:evenodd"
         id="path258"
         d="M 1.4305e-5,0 H 960.00001 V 540 H 1.4305e-5 Z"
         inkscape:connector-curvature="0" /></clipPath><clipPath
       id="clipPath272"
       clipPathUnits="userSpaceOnUse"><path
         style="clip-rule:evenodd"
         id="path270"
         d="m 309.12,0 h 295.8 v 489.6 h -295.8 z"
         inkscape:connector-curvature="0" /></clipPath><clipPath
       id="clipPath284"
       clipPathUnits="userSpaceOnUse"><path
         style="clip-rule:evenodd"
         id="path282"
         d="M 1.4305e-5,0 H 960.00001 V 540 H 1.4305e-5 Z"
         inkscape:connector-curvature="0" /></clipPath><clipPath
       id="clipPath296"
       clipPathUnits="userSpaceOnUse"><path
         style="clip-rule:evenodd"
         id="path294"
         d="m 309.12,0 h 295.8 v 489.6 h -295.8 z"
         inkscape:connector-curvature="0" /></clipPath><clipPath
       id="clipPath308"
       clipPathUnits="userSpaceOnUse"><path
         style="clip-rule:evenodd"
         id="path306"
         d="m 309.12,0 h 295.8 v 489.6 h -295.8 z"
         inkscape:connector-curvature="0" /></clipPath><clipPath
       id="clipPath320"
       clipPathUnits="userSpaceOnUse"><path
         style="clip-rule:evenodd"
         id="path318"
         d="m 309.12,0 h 295.8 v 489.6 h -295.8 z"
         inkscape:connector-curvature="0" /></clipPath><clipPath
       id="clipPath332"
       clipPathUnits="userSpaceOnUse"><path
         style="clip-rule:evenodd"
         id="path330"
         d="M 604.8,0 H 899.52 V 424.8 H 604.8 Z"
         inkscape:connector-curvature="0" /></clipPath><clipPath
       id="clipPath344"
       clipPathUnits="userSpaceOnUse"><path
         style="clip-rule:evenodd"
         id="path342"
         d="M 604.8,0 H 899.52 V 424.8 H 604.8 Z"
         inkscape:connector-curvature="0" /></clipPath><clipPath
       id="clipPath356"
       clipPathUnits="userSpaceOnUse"><path
         style="clip-rule:evenodd"
         id="path354"
         d="M 604.8,0 H 899.52 V 424.8 H 604.8 Z"
         inkscape:connector-curvature="0" /></clipPath><clipPath
       id="clipPath368"
       clipPathUnits="userSpaceOnUse"><path
         style="clip-rule:evenodd"
         id="path366"
         d="M 86.28,0 H 309.24 V 255 H 86.28 Z"
         inkscape:connector-curvature="0" /></clipPath><clipPath
       id="clipPath380"
       clipPathUnits="userSpaceOnUse"><path
         style="clip-rule:evenodd"
         id="path378"
         d="M 1.4305e-5,0 H 960.00001 V 540 H 1.4305e-5 Z"
         inkscape:connector-curvature="0" /></clipPath><clipPath
       id="clipPath392"
       clipPathUnits="userSpaceOnUse"><path
         style="clip-rule:evenodd"
         id="path390"
         d="M 1.4305e-5,0 H 960.00001 V 540 H 1.4305e-5 Z"
         inkscape:connector-curvature="0" /></clipPath><clipPath
       id="clipPath404"
       clipPathUnits="userSpaceOnUse"><path
         style="clip-rule:evenodd"
         id="path402"
         d="M 1.4305e-5,0 H 960.00001 V 540 H 1.4305e-5 Z"
         inkscape:connector-curvature="0" /></clipPath><clipPath
       id="clipPath416"
       clipPathUnits="userSpaceOnUse"><path
         style="clip-rule:evenodd"
         id="path414"
         d="M 86.28,0 H 309.24 V 255 H 86.28 Z"
         inkscape:connector-curvature="0" /></clipPath><clipPath
       id="clipPath428"
       clipPathUnits="userSpaceOnUse"><path
         style="clip-rule:evenodd"
         id="path426"
         d="m 309.12,0 h 295.8 v 319.8 h -295.8 z"
         inkscape:connector-curvature="0" /></clipPath><clipPath
       id="clipPath440"
       clipPathUnits="userSpaceOnUse"><path
         style="clip-rule:evenodd"
         id="path438"
         d="M 1.4305e-5,0 H 960.00001 V 540 H 1.4305e-5 Z"
         inkscape:connector-curvature="0" /></clipPath><clipPath
       id="clipPath452"
       clipPathUnits="userSpaceOnUse"><path
         style="clip-rule:evenodd"
         id="path450"
         d="m 309.12,0 h 295.8 v 319.8 h -295.8 z"
         inkscape:connector-curvature="0" /></clipPath><clipPath
       id="clipPath464"
       clipPathUnits="userSpaceOnUse"><path
         style="clip-rule:evenodd"
         id="path462"
         d="m 309.12,0 h 295.8 v 319.8 h -295.8 z"
         inkscape:connector-curvature="0" /></clipPath><clipPath
       id="clipPath476"
       clipPathUnits="userSpaceOnUse"><path
         style="clip-rule:evenodd"
         id="path474"
         d="M 604.8,0 H 899.52 V 319.8 H 604.8 Z"
         inkscape:connector-curvature="0" /></clipPath><clipPath
       id="clipPath488"
       clipPathUnits="userSpaceOnUse"><path
         style="clip-rule:evenodd"
         id="path486"
         d="M 604.8,0 H 899.52 V 319.8 H 604.8 Z"
         inkscape:connector-curvature="0" /></clipPath><clipPath
       id="clipPath500"
       clipPathUnits="userSpaceOnUse"><path
         style="clip-rule:evenodd"
         id="path498"
         d="M 604.8,0 H 899.52 V 319.8 H 604.8 Z"
         inkscape:connector-curvature="0" /></clipPath></defs><path
     inkscape:connector-curvature="0"
     d="M 10.780007,0.66666663 H 1057.18"
     style="fill:none;stroke:#7f7f7f;stroke-width:0.63999999;stroke-linecap:butt;stroke-linejoin:round;stroke-miterlimit:10;stroke-dasharray:none;stroke-opacity:1"
     id="path42" /><path
     inkscape:connector-curvature="0"
     d="M 0.66666663,86.293337 H 297.76 V 0.66133663 H 0.66666663 Z"
     style="fill:#e48312;fill-opacity:1;fill-rule:evenodd;stroke:none;stroke-width:1.33333325"
     id="path56" /><path
     inkscape:connector-curvature="0"
     d="M 297.75333,86.293337 H 691.95332 V 0.66133663 H 297.75333 Z"
     style="fill:#e48312;fill-opacity:1;fill-rule:evenodd;stroke:none;stroke-width:1.33333325"
     id="path58" /><path
     inkscape:connector-curvature="0"
     d="M 691.95332,86.293337 H 1084.7133 V 0.66133663 H 691.95332 Z"
     style="fill:#e48312;fill-opacity:1;fill-rule:evenodd;stroke:none;stroke-width:1.33333325"
     id="path60" /><path
     inkscape:connector-curvature="0"
     d="M 0.66666663,226.29333 H 297.76 V 86.306667 H 0.66666663 Z"
     style="fill:#f5d9cc;fill-opacity:1;fill-rule:evenodd;stroke:none;stroke-width:1.33333325"
     id="path62" /><path
     inkscape:connector-curvature="0"
     d="M 297.75333,226.29333 H 691.95332 V 86.306667 H 297.75333 Z"
     style="fill:#f5d9cc;fill-opacity:1;fill-rule:evenodd;stroke:none;stroke-width:1.33333325"
     id="path64" /><path
     inkscape:connector-curvature="0"
     d="M 691.95332,226.29333 H 1084.7133 V 86.306667 H 691.95332 Z"
     style="fill:#f5d9cc;fill-opacity:1;fill-rule:evenodd;stroke:none;stroke-width:1.33333325"
     id="path66" /><path
     inkscape:connector-curvature="0"
     d="M 0.66666663,366.28 H 297.76 V 226.29333 H 0.66666663 Z"
     style="fill:#faede7;fill-opacity:1;fill-rule:evenodd;stroke:none;stroke-width:1.33333325"
     id="path68" /><path
     inkscape:connector-curvature="0"
     d="M 297.75333,366.28 H 691.95332 V 226.29333 H 297.75333 Z"
     style="fill:#faede7;fill-opacity:1;fill-rule:evenodd;stroke:none;stroke-width:1.33333325"
     id="path70" /><path
     inkscape:connector-curvature="0"
     d="M 691.95332,366.28 H 1084.7133 V 226.29333 H 691.95332 Z"
     style="fill:#faede7;fill-opacity:1;fill-rule:evenodd;stroke:none;stroke-width:1.33333325"
     id="path72" /><path
     inkscape:connector-curvature="0"
     d="M 0.66666663,483.97199 H 297.76 V 366.28533 H 0.66666663 Z"
     style="fill:#f5d9cc;fill-opacity:1;fill-rule:evenodd;stroke:none;stroke-width:1.33333325"
     id="path74" /><path
     inkscape:connector-curvature="0"
     d="M 297.75333,483.97199 H 691.95332 V 366.28533 H 297.75333 Z"
     style="fill:#f5d9cc;fill-opacity:1;fill-rule:evenodd;stroke:none;stroke-width:1.33333325"
     id="path76" /><path
     inkscape:connector-curvature="0"
     d="M 691.95332,483.97199 H 1084.7133 V 366.28533 H 691.95332 Z"
     style="fill:#f5d9cc;fill-opacity:1;fill-rule:evenodd;stroke:none;stroke-width:1.33333325"
     id="path78" /><path
     inkscape:connector-curvature="0"
     d="M 297.75333,6.6269302e-6 V 484.63866"
     style="fill:none;stroke:#ffffff;stroke-width:1.33333325;stroke-linecap:butt;stroke-linejoin:round;stroke-miterlimit:10;stroke-dasharray:none;stroke-opacity:1"
     id="path80" /><path
     inkscape:connector-curvature="0"
     d="M 691.95332,6.6269302e-6 V 484.63866"
     style="fill:none;stroke:#ffffff;stroke-width:1.33333325;stroke-linecap:butt;stroke-linejoin:round;stroke-miterlimit:10;stroke-dasharray:none;stroke-opacity:1"
     id="path82" /><path
     inkscape:connector-curvature="0"
     d="M 6.6269302e-6,86.293337 H 1085.38"
     style="fill:none;stroke:#ffffff;stroke-width:4;stroke-linecap:butt;stroke-linejoin:round;stroke-miterlimit:10;stroke-dasharray:none;stroke-opacity:1"
     id="path84" /><path
     inkscape:connector-curvature="0"
     d="M 6.6269302e-6,226.29333 H 1085.38"
     style="fill:none;stroke:#ffffff;stroke-width:1.33333325;stroke-linecap:butt;stroke-linejoin:round;stroke-miterlimit:10;stroke-dasharray:none;stroke-opacity:1"
     id="path86" /><path
     inkscape:connector-curvature="0"
     d="M 6.6269302e-6,366.28 H 1085.38"
     style="fill:none;stroke:#ffffff;stroke-width:1.33333325;stroke-linecap:butt;stroke-linejoin:round;stroke-miterlimit:10;stroke-dasharray:none;stroke-opacity:1"
     id="path88" /><path
     inkscape:connector-curvature="0"
     d="M 0.66666663,6.6269302e-6 V 484.63866"
     style="fill:none;stroke:#ffffff;stroke-width:1.33333325;stroke-linecap:butt;stroke-linejoin:round;stroke-miterlimit:10;stroke-dasharray:none;stroke-opacity:1"
     id="path90" /><path
     inkscape:connector-curvature="0"
     d="M 1084.7133,6.6269302e-6 V 484.63866"
     style="fill:none;stroke:#ffffff;stroke-width:1.33333325;stroke-linecap:butt;stroke-linejoin:round;stroke-miterlimit:10;stroke-dasharray:none;stroke-opacity:1"
     id="path92" /><path
     inkscape:connector-curvature="0"
     d="M 6.6269302e-6,0.66666663 H 1085.38"
     style="fill:none;stroke:#ffffff;stroke-width:1.33333325;stroke-linecap:butt;stroke-linejoin:round;stroke-miterlimit:10;stroke-dasharray:none;stroke-opacity:1"
     id="path94" /><g
     id="g98"
     transform="matrix(1.3333333,0,0,-1.3333333,-114.49999,538.26666)"><g
       id="g100"
       clip-path="url(#clipPath104)"><text
         transform="matrix(1,0,0,-1,93.576,382.78)"
         style="font-variant:normal;font-weight:bold;font-size:18px;font-family:Calibri;-inkscape-font-specification:Calibri-Bold;writing-mode:lr-tb;fill:#ffffff;fill-opacity:1;fill-rule:nonzero;stroke:none"
         id="text108"><tspan
           x="0 9.8459997 18.954 26.136 35.262001 44.153999 50.256001 57.779999"
           y="0"
           id="tspan106">Research</tspan></text>
</g></g><g
     id="g110"
     transform="matrix(1.3333333,0,0,-1.3333333,-114.49999,538.26666)"><g
       id="g112"
       clip-path="url(#clipPath116)"><text
         transform="matrix(1,0,0,-1,316.44,382.78)"
         style="font-variant:normal;font-weight:bold;font-size:18px;font-family:Calibri;-inkscape-font-specification:Calibri-Bold;writing-mode:lr-tb;fill:#ffffff;fill-opacity:1;fill-rule:nonzero;stroke:none"
         id="text120"><tspan
           x="0 9.2340002 18.125999 24.516001 30.761999 35.189999 42.714001 47.141998 56.862 65.753998 75.348 81.594002 88.667999 92.736 105.426 109.188 124.92 133.90199 140.14799 149.814 159.57001 169.272 176.45399"
           y="0"
           id="tspan118">Participants &amp; Methods </tspan></text>
</g></g><g
     id="g122"
     transform="matrix(1.3333333,0,0,-1.3333333,-114.49999,538.26666)"><g
       id="g124"
       clip-path="url(#clipPath128)"><text
         transform="matrix(1,0,0,-1,612.12,382.78)"
         style="font-variant:normal;font-weight:bold;font-size:18px;font-family:Calibri;-inkscape-font-specification:Calibri-Bold;writing-mode:lr-tb;fill:#ffffff;fill-opacity:1;fill-rule:nonzero;stroke:none"
         id="text132"><tspan
           x="0 8.2620001 12.69 22.427999 32.130001 36.557999 46.223999 54.683998"
           y="0"
           id="tspan130">Findings</tspan></text>
</g></g><g
     id="g134"
     transform="matrix(1.3333333,0,0,-1.3333333,-114.49999,538.26666)"><g
       id="g136"
       clip-path="url(#clipPath140)"><text
         transform="matrix(1,0,0,-1,93.576,318.53)"
         style="font-variant:normal;font-weight:normal;font-size:18px;font-family:Calibri;-inkscape-font-specification:Calibri;writing-mode:lr-tb;fill:#000000;fill-opacity:1;fill-rule:nonzero;stroke:none"
         id="text144"><tspan
           x="0 15.39 24.011999 32.526001 41.976002 50.993999 55.674 60.119999 64.295998 75.653999 84.311996 90.306 97.865997 101.952 110.574 114.768 120.222 129.29401 138.42 147.54601 156.672"
           y="0"
           id="tspan142">Wagner, Garcia (2015)</tspan></text>
</g></g><g
     id="g146"
     transform="matrix(1.3333333,0,0,-1.3333333,-114.49999,538.26666)"><g
       id="g148"
       clip-path="url(#clipPath152)"><text
         transform="matrix(1,0,0,-1,316.44,318.53)"
         style="font-variant:normal;font-weight:normal;font-size:18px;font-family:Calibri;-inkscape-font-specification:Calibri;writing-mode:lr-tb;fill:#000000;fill-opacity:1;fill-rule:nonzero;stroke:none"
         id="text156"><tspan
           x="0 15.966 25.200001 29.375999 33.462002 42.911999 47.124001 56.25 60.318001 64.403999 73.026001 82.475998 91.026001 100.476 109.098 117.576 126.54 133.578 138.078 142.146 149.58 159.06599 173.448 182.89799 191.556 197.55 206.51401 216.01801 220.194 233.064 237.114 243.144 252.59399"
           y="0"
           id="tspan154">WP in 6 languages, compared with </tspan></text>
</g></g><g
     id="g158"
     transform="matrix(1.3333333,0,0,-1.3333333,-114.49999,538.26666)"><g
       id="g160"
       clip-path="url(#clipPath164)"><text
         transform="matrix(1,0,0,-1,316.44,296.93)"
         style="font-variant:normal;font-weight:normal;font-size:18px;font-family:Calibri;-inkscape-font-specification:Calibri;writing-mode:lr-tb;fill:#000000;fill-opacity:1;fill-rule:nonzero;stroke:none"
         id="text168"><tspan
           x="0 5.994 14.868 19.908001 28.872 34.902 43.866001 53.369999 60.93 69.893997 74.106003 83.556 92.106003 97.865997 106.488 113.562 122.436 128.466 135.504 139.48199 144.306 148.464 156.726 162.73801 171.702 180.72 190.17 198.79201 205.90199 214.866 219.366"
           y="0"
           id="tspan166">reference datasets : Freebase, </tspan></text>
</g></g><g
     id="g170"
     transform="matrix(1.3333333,0,0,-1.3333333,-114.49999,538.26666)"><g
       id="g172"
       clip-path="url(#clipPath176)"><text
         transform="matrix(1,0,0,-1,316.44,275.33)"
         style="font-variant:normal;font-weight:normal;font-size:18px;font-family:Calibri;-inkscape-font-specification:Calibri;writing-mode:lr-tb;fill:#000000;fill-opacity:1;fill-rule:nonzero;stroke:none"
         id="text180"><tspan
           x="0 8.6219997 15.696 22.733999 31.752001 38.790001 45.900002 54.863998 64.367996 68.202003 73.367996 82.853996 89.136002 93.204002 101.826 108.522 116.676 131.058 145.44 154.40401 160.362 166.698 174.85201 178.812 187.43401 196.884 206.388 210.564 218.12399 227.088 236.48399 242.51401 248.364 256.98599 261.12601 265.15799 271.18799"
           y="0"
           id="tspan178">assessed for asymmetry and centrality</tspan></text>
</g></g><g
     id="g182"
     transform="matrix(1.3333333,0,0,-1.3333333,-114.49999,538.26666)"><g
       id="g184"
       clip-path="url(#clipPath188)"><text
         transform="matrix(1,0,0,-1,612.12,318.53)"
         style="font-variant:normal;font-weight:normal;font-size:18px;font-family:Calibri;-inkscape-font-specification:Calibri;writing-mode:lr-tb;fill:#000000;fill-opacity:1;fill-rule:nonzero;stroke:none"
         id="text192"><tspan
           x="0 10.422 16.704 22.68 26.766001 34.326 38.411999 47.375999 54.467999 58.644001 67.265999 76.716003 86.202003 95.706001 101.736 105.804 118.512 127.998 142.38 151.34399 160.84801 165.024 170.784 179.748 189.252 198.702 202.914 208.8 218.286 222.354 226.44 230.526 239.976 248.166"
           y="0"
           id="tspan190">Articles about women tend to link </tspan></text>
</g></g><g
     id="g194"
     transform="matrix(1.3333333,0,0,-1.3333333,-114.49999,538.26666)"><g
       id="g196"
       clip-path="url(#clipPath200)"><text
         transform="matrix(1,0,0,-1,612.12,296.93)"
         style="font-variant:normal;font-weight:normal;font-size:18px;font-family:Calibri;-inkscape-font-specification:Calibri;writing-mode:lr-tb;fill:#000000;fill-opacity:1;fill-rule:nonzero;stroke:none"
         id="text204"><tspan
           x="0 14.382 23.868 29.879999 38.844002 42.911999 48.834 58.32 62.495998 71.117996 77.400002 83.375999 87.461998 95.022003 99.108002 108.072 115.164 119.232 127.854 137.34 146.826 156.276 162.306 166.48199 180.864 189.828 199.35001 203.526 209.556 219.006 227.62801 237.078 241.18201 247.21201 256.66199 265.62601"
           y="0"
           id="tspan202">more to articles about men than the </tspan></text>
</g></g><g
     id="g206"
     transform="matrix(1.3333333,0,0,-1.3333333,-114.49999,538.26666)"><g
       id="g208"
       clip-path="url(#clipPath212)"><text
         transform="matrix(1,0,0,-1,612.12,275.33)"
         style="font-variant:normal;font-weight:normal;font-size:18px;font-family:Calibri;-inkscape-font-specification:Calibri;writing-mode:lr-tb;fill:#000000;fill-opacity:1;fill-rule:nonzero;stroke:none"
         id="text216"><tspan
           x="0 9.4860001 18.936001 28.386 37.872002 44.981998 49.068001 54.827999 63.792 68.363998 72.540001 87.93 96.893997 106.344 110.412 119.088 125.082 134.04601 138.258 145.29601 149.436 157.914 167.364 171.504 176.994 181.134 188.532 197.15401 206.532 212.562 216.612 224.76601 228.834 243.216 252.702 258.73199 267.69601"
           y="0"
           id="tspan214">opposite. Men are significantly more </tspan></text>
</g></g><g
     id="g218"
     transform="matrix(1.3333333,0,0,-1.3333333,-114.49999,538.26666)"><g
       id="g220"
       clip-path="url(#clipPath224)"><text
         transform="matrix(1,0,0,-1,612.12,253.73)"
         style="font-variant:normal;font-weight:normal;font-size:18px;font-family:Calibri;-inkscape-font-specification:Calibri;writing-mode:lr-tb;fill:#000000;fill-opacity:1;fill-rule:nonzero;stroke:none"
         id="text228"><tspan
           x="0 7.5599999 16.524 25.92 31.950001 37.799999 46.422001 50.562"
           y="0"
           id="tspan226">central.</tspan></text>
</g></g><g
     id="g230"
     transform="matrix(1.3333333,0,0,-1.3333333,-114.49999,538.26666)"><g
       id="g232"
       clip-path="url(#clipPath236)"><text
         transform="matrix(1,0,0,-1,93.576,213.53)"
         style="font-variant:normal;font-weight:normal;font-size:18.02400017px;font-family:Calibri;-inkscape-font-specification:Calibri;writing-mode:lr-tb;fill:#000000;fill-opacity:1;fill-rule:nonzero;stroke:none"
         id="text240"><tspan
           x="0 11.373144 20.006639 26.297016 32.515297 36.588718 46.051319 55.189487 59.62339"
           y="0"
           id="tspan238">Garrido, </tspan></text>
</g></g><g
     id="g242"
     transform="matrix(1.3333333,0,0,-1.3333333,-114.49999,538.26666)"><g
       id="g244"
       clip-path="url(#clipPath248)"><text
         transform="matrix(1,0,0,-1,157.56,213.53)"
         style="font-variant:normal;font-weight:normal;font-size:18.02400017px;font-family:Calibri;-inkscape-font-specification:Calibri;writing-mode:lr-tb;fill:#000000;fill-opacity:1;fill-rule:nonzero;stroke:none"
         id="text252"><tspan
           x="0 7.5700798 16.203575 20.277 34.678177 43.311672"
           y="0"
           id="tspan250">Lalmas</tspan></text>
</g></g><g
     id="g254"
     transform="matrix(1.3333333,0,0,-1.3333333,-114.49999,538.26666)"><g
       id="g256"
       clip-path="url(#clipPath260)"><text
         transform="matrix(1,0,0,-1,212.04,213.53)"
         style="font-variant:normal;font-weight:normal;font-size:18.02400017px;font-family:Calibri;-inkscape-font-specification:Calibri;writing-mode:lr-tb;fill:#000000;fill-opacity:1;fill-rule:nonzero;stroke:none"
         id="text264"><tspan
           x="0 5.4071999 14.545368 23.683537 32.767632 41.9058"
           y="0"
           id="tspan262">(2015)</tspan></text>
</g></g><g
     id="g266"
     transform="matrix(1.3333333,0,0,-1.3333333,-114.49999,538.26666)"><g
       id="g268"
       clip-path="url(#clipPath272)"><text
         transform="matrix(1,0,0,-1,316.44,213.53)"
         style="font-variant:normal;font-weight:normal;font-size:18.02400017px;font-family:Calibri;-inkscape-font-specification:Calibri;writing-mode:lr-tb;fill:#000000;fill-opacity:1;fill-rule:nonzero;stroke:none"
         id="text276"><tspan
           x="0 11.08476 20.889816 30.352415 39.328369 48.79097 52.936489"
           y="0"
           id="tspan274">DBpedia</tspan></text>
</g></g><g
     id="g278"
     transform="matrix(1.3333333,0,0,-1.3333333,-114.49999,538.26666)"><g
       id="g280"
       clip-path="url(#clipPath284)"><text
         transform="matrix(1,0,0,-1,382.2,213.53)"
         style="font-variant:normal;font-weight:normal;font-size:18.02400017px;font-family:Calibri;-inkscape-font-specification:Calibri;writing-mode:lr-tb;fill:#000000;fill-opacity:1;fill-rule:nonzero;stroke:none"
         id="text288"><tspan
           x="0 9.1381683 18.276337 27.360432 36.4986 40.572025 50.034622 58.559975 64.32766 72.961151 80.008537 88.930412 94.968452 99.36631 103.54788 107.62131 116.97576 122.02248 130.99843 137.2888 143.25475 152.2307 161.6933"
           y="0"
           id="tspan286">2014 dataset, inferred </tspan></text>
</g></g><g
     id="g290"
     transform="matrix(1.3333333,0,0,-1.3333333,-114.49999,538.26666)"><g
       id="g292"
       clip-path="url(#clipPath296)"><text
         transform="matrix(1,0,0,-1,316.44,191.9)"
         style="font-variant:normal;font-weight:normal;font-size:18px;font-family:Calibri;-inkscape-font-specification:Calibri;writing-mode:lr-tb;fill:#000000;fill-opacity:1;fill-rule:nonzero;stroke:none"
         id="text300"><tspan
           x="0 8.4060001 17.370001 26.874001 36.324001 45.341999 51.624001 55.692001 60.821999 70.307999 76.589996 80.730003 96.695999 105.93 109.998 119.448 123.588 133.07401 140.112 144.612 148.752 156.312 165.76199 174.78 182.34 189.89999 198.864 208.368 212.67 216.756 222.246 226.45799 234.01801 242.98199 249.26401 255.024 263.646 267.78601 277.23599"
           y="0"
           id="tspan298">gender for WP bios, checked if certain </tspan></text>
</g></g><g
     id="g302"
     transform="matrix(1.3333333,0,0,-1.3333333,-114.49999,538.26666)"><g
       id="g304"
       clip-path="url(#clipPath308)"><text
         transform="matrix(1,0,0,-1,316.44,170.3)"
         style="font-variant:normal;font-weight:normal;font-size:18px;font-family:Calibri;-inkscape-font-specification:Calibri;writing-mode:lr-tb;fill:#000000;fill-opacity:1;fill-rule:nonzero;stroke:none"
         id="text312"><tspan
           x="0 8.5139999 14.274 20.304001 26.514 30.6 40.049999 49.535999 55.296001 64.260002 71.351997 75.419998 84.042 90.071999 99.036003 103.248 117.63 127.116 133.12801 142.092 146.16 151.70399 157.698 166.662 176.166 185.616 194.634 203.994 210.024 214.18201 219.34801 228.834 235.116"
           y="0"
           id="tspan310">attributes are more frequent for </tspan></text>
</g></g><g
     id="g314"
     transform="matrix(1.3333333,0,0,-1.3333333,-114.49999,538.26666)"><g
       id="g316"
       clip-path="url(#clipPath320)"><text
         transform="matrix(1,0,0,-1,316.44,148.7)"
         style="font-variant:normal;font-weight:normal;font-size:18px;font-family:Calibri;-inkscape-font-specification:Calibri;writing-mode:lr-tb;fill:#000000;fill-opacity:1;fill-rule:nonzero;stroke:none"
         id="text324"><tspan
           x="0 12.726 22.212 36.594002 45.557999 55.062 59.507999 63.683998 72.306 81.755997 90.431999 94.517998 102.564 109.278 118.242 127.746 131.814 146.196 155.106 160.866 169.48801 173.68201 183.132 191.68201 197.442"
           y="0"
           id="tspan322">women, analyzed meta data</tspan></text>
</g></g><g
     id="g326"
     transform="matrix(1.3333333,0,0,-1.3333333,-114.49999,538.26666)"><g
       id="g328"
       clip-path="url(#clipPath332)"><text
         transform="matrix(1,0,0,-1,612.12,213.53)"
         style="font-variant:normal;font-weight:normal;font-size:18.02400017px;font-family:Calibri;-inkscape-font-specification:Calibri;writing-mode:lr-tb;fill:#000000;fill-opacity:1;fill-rule:nonzero;stroke:none"
         id="text336"><tspan
           x="0 10.435896 16.726273 22.674192 26.747616 34.299671 38.373096 47.349049 54.43248 58.614048 67.247543 76.710144 86.208794 95.671394 101.70943 105.78286 120.18403 129.15999 138.62259 142.84019 151.47369 157.47569 166.45164"
           y="0"
           id="tspan334">Articles about men are </tspan></text>
</g></g><g
     id="g338"
     transform="matrix(1.3333333,0,0,-1.3333333,-114.49999,538.26666)"><g
       id="g340"
       clip-path="url(#clipPath344)"><text
         transform="matrix(1,0,0,-1,612.12,191.9)"
         style="font-variant:normal;font-weight:normal;font-size:18px;font-family:Calibri;-inkscape-font-specification:Calibri;writing-mode:lr-tb;fill:#000000;fill-opacity:1;fill-rule:nonzero;stroke:none"
         id="text348"><tspan
           x="0 9.4499998 13.59 20.628 30.077999 36.125999 45.612 55.062 64.547997 70.830002 76.806 80.891998 90.377998 99.828003 108.378 114.138 123.102 127.242 135.396 139.554 153.936 163.422 169.43401 178.39799 182.61 190.17 199.134 208.53 214.56 220.41 229.032 233.172 237.312 243.342 252.79201 261.414 270.86401"
           y="0"
           id="tspan346">disproportionately more central than </tspan></text>
</g></g><g
     id="g350"
     transform="matrix(1.3333333,0,0,-1.3333333,-114.49999,538.26666)"><g
       id="g352"
       clip-path="url(#clipPath356)"><text
         transform="matrix(1,0,0,-1,612.12,170.3)"
         style="font-variant:normal;font-weight:normal;font-size:18px;font-family:Calibri;-inkscape-font-specification:Calibri;writing-mode:lr-tb;fill:#000000;fill-opacity:1;fill-rule:nonzero;stroke:none"
         id="text360"><tspan
           x="0 8.6219997 14.904 20.879999 24.966 32.526001 36.612 45.576 52.667999 56.844002 65.466003 74.916 84.402 93.905998 99.935997 104.094 116.82 126.306 140.688 149.65199"
           y="0"
           id="tspan358">articles about women</tspan></text>
</g></g><g
     id="g362"
     transform="matrix(1.3333333,0,0,-1.3333333,-114.49999,538.26666)"><g
       id="g364"
       clip-path="url(#clipPath368)"><text
         transform="matrix(1,0,0,-1,93.576,108.5)"
         style="font-variant:normal;font-weight:normal;font-size:18px;font-family:Calibri;-inkscape-font-specification:Calibri;writing-mode:lr-tb;fill:#000000;fill-opacity:1;fill-rule:nonzero;stroke:none"
         id="text372"><tspan
           x="0 15.39 24.011999 32.526001 41.976002 50.993999 55.674 60.119999"
           y="0"
           id="tspan370">Wagner, </tspan></text>
</g></g><g
     id="g374"
     transform="matrix(1.3333333,0,0,-1.3333333,-114.49999,538.26666)"><g
       id="g376"
       clip-path="url(#clipPath380)"><text
         transform="matrix(1,0,0,-1,157.92,108.5)"
         style="font-variant:normal;font-weight:normal;font-size:18px;font-family:Calibri;-inkscape-font-specification:Calibri;writing-mode:lr-tb;fill:#000000;fill-opacity:1;fill-rule:nonzero;stroke:none"
         id="text384"><tspan
           x="0 11.358 17.280001 25.902 34.866001 39.006001 43.074001 52.037998"
           y="0"
           id="tspan382">Graelles</tspan></text>
</g></g><g
     id="g386"
     transform="matrix(1.3333333,0,0,-1.3333333,-114.49999,538.26666)"><g
       id="g388"
       clip-path="url(#clipPath392)"><text
         transform="matrix(1,0,0,-1,217.08,108.5)"
         style="font-variant:normal;font-weight:normal;font-size:18px;font-family:Calibri;-inkscape-font-specification:Calibri;writing-mode:lr-tb;fill:#000000;fill-opacity:1;fill-rule:nonzero;stroke:none"
         id="text396"><tspan
           x="0"
           y="0"
           id="tspan394">-</tspan></text>
</g></g><g
     id="g398"
     transform="matrix(1.3333333,0,0,-1.3333333,-114.49999,538.26666)"><g
       id="g400"
       clip-path="url(#clipPath404)"><text
         transform="matrix(1,0,0,-1,222.6,108.5)"
         style="font-variant:normal;font-weight:normal;font-size:18px;font-family:Calibri;-inkscape-font-specification:Calibri;writing-mode:lr-tb;fill:#000000;fill-opacity:1;fill-rule:nonzero;stroke:none"
         id="text408"><tspan
           x="0 11.358 20.016001 26.298 32.490002 36.576 46.026001 55.512001"
           y="0"
           id="tspan406">Garrido </tspan></text>
</g></g><g
     id="g410"
     transform="matrix(1.3333333,0,0,-1.3333333,-114.49999,538.26666)"><g
       id="g412"
       clip-path="url(#clipPath416)"><text
         transform="matrix(1,0,0,-1,93.576,86.904)"
         style="font-variant:normal;font-weight:normal;font-size:18px;font-family:Calibri;-inkscape-font-specification:Calibri;writing-mode:lr-tb;fill:#000000;fill-opacity:1;fill-rule:nonzero;stroke:none"
         id="text420"><tspan
           x="0 5.454 14.526 23.652 32.778 41.903999"
           y="0"
           id="tspan418">(2016)</tspan></text>
</g></g><g
     id="g422"
     transform="matrix(1.3333333,0,0,-1.3333333,-114.49999,538.26666)"><g
       id="g424"
       clip-path="url(#clipPath428)"><text
         transform="matrix(1,0,0,-1,316.44,108.5)"
         style="font-variant:normal;font-weight:normal;font-size:18px;font-family:Calibri;-inkscape-font-specification:Calibri;writing-mode:lr-tb;fill:#000000;fill-opacity:1;fill-rule:nonzero;stroke:none"
         id="text432"><tspan
           x="0 11.07 20.862 30.312 39.348 48.798 52.938"
           y="0"
           id="tspan430">DBpedia</tspan></text>
</g></g><g
     id="g434"
     transform="matrix(1.3333333,0,0,-1.3333333,-114.49999,538.26666)"><g
       id="g436"
       clip-path="url(#clipPath440)"><text
         transform="matrix(1,0,0,-1,382.2,108.5)"
         style="font-variant:normal;font-weight:normal;font-size:18px;font-family:Calibri;-inkscape-font-specification:Calibri;writing-mode:lr-tb;fill:#000000;fill-opacity:1;fill-rule:nonzero;stroke:none"
         id="text444"><tspan
           x="0 9.1260004 18.252001 27.378 36.504002 40.571999 50.021999 58.554001 64.314003 72.935997 80.010002 88.884003 94.914001 99.323997 103.5 107.586 116.946 121.986 130.95 137.23199 143.226 152.19 161.694"
           y="0"
           id="tspan442">2014 dataset, inferred </tspan></text>
</g></g><g
     id="g446"
     transform="matrix(1.3333333,0,0,-1.3333333,-114.49999,538.26666)"><g
       id="g448"
       clip-path="url(#clipPath452)"><text
         transform="matrix(1,0,0,-1,316.44,86.904)"
         style="font-variant:normal;font-weight:normal;font-size:18px;font-family:Calibri;-inkscape-font-specification:Calibri;writing-mode:lr-tb;fill:#000000;fill-opacity:1;fill-rule:nonzero;stroke:none"
         id="text456"><tspan
           x="0 8.4060001 17.370001 26.874001 36.324001 45.341999 51.624001 55.692001 60.821999 70.307999 76.589996 80.730003 96.695999 105.93 109.998 119.448 123.588 133.07401 140.112 144.612 148.752 157.26601 163.026 169.056 175.26601 179.35201 188.802 198.28799 204.048 213.01199 220.104 224.55"
           y="0"
           id="tspan454">gender for WP bios, attributes, </tspan></text>
</g></g><g
     id="g458"
     transform="matrix(1.3333333,0,0,-1.3333333,-114.49999,538.26666)"><g
       id="g460"
       clip-path="url(#clipPath464)"><text
         transform="matrix(1,0,0,-1,316.44,65.304)"
         style="font-variant:normal;font-weight:normal;font-size:18.02400017px;font-family:Calibri;-inkscape-font-specification:Calibri;writing-mode:lr-tb;fill:#000000;fill-opacity:1;fill-rule:nonzero;stroke:none"
         id="text468"><tspan
           x="0 8.8858318 17.519327 25.918512 34.894463 44.681496 53.314991 62.777592 70.924438 74.997864 80.170753 89.669403 95.88768 99.961105 107.53118 116.50713 125.89764 131.93568 137.77545 146.40895 150.5004 154.57382 160.61186 168.77673"
           y="0"
           id="tspan466">PageRank for centrality </tspan></text>
</g></g><g
     id="g470"
     transform="matrix(1.3333333,0,0,-1.3333333,-114.49999,538.26666)"><g
       id="g472"
       clip-path="url(#clipPath476)"><text
         transform="matrix(1,0,0,-1,612.12,108.5)"
         style="font-variant:normal;font-weight:normal;font-size:18px;font-family:Calibri;-inkscape-font-specification:Calibri;writing-mode:lr-tb;fill:#000000;fill-opacity:1;fill-rule:nonzero;stroke:none"
         id="text480"><tspan
           x="0 8.7659998 18.216 27.216 33.209999 42.174 46.386002 55.007999 61.02 69.984001 74.052002 80.945999 86.975998 93.185997 102.636 110.25 116.226 125.676 131.58 140.202 144.342 148.48199 157.93201 162.07201 167.436 172.476 181.44 187.47 196.43401 205.938 213.498 222.46201 229.554 233.73 237.81599 247.26601"
           y="0"
           id="tspan478">There are structural differences in </tspan></text>
</g></g><g
     id="g482"
     transform="matrix(1.3333333,0,0,-1.3333333,-114.49999,538.26666)"><g
       id="g484"
       clip-path="url(#clipPath488)"><text
         transform="matrix(1,0,0,-1,612.12,86.904)"
         style="font-variant:normal;font-weight:normal;font-size:18px;font-family:Calibri;-inkscape-font-specification:Calibri;writing-mode:lr-tb;fill:#000000;fill-opacity:1;fill-rule:nonzero;stroke:none"
         id="text492"><tspan
           x="0 5.7600002 14.724 21.006001 35.388 42.462002 46.529999 56.015999 61.506001 65.573997 80.010002 88.884003 94.643997 103.266 112.716 121.338 127.044 135.666 139.73399 148.356 157.86 167.31 171.522 180.64799 188.802 198.252 207.27 213.552 217.584 221.67 231.12 239.18401 246.222 250.326 259.81201 269.26199"
           y="0"
           id="tspan490">terms of metadata and hyperlinks on </tspan></text>
</g></g><g
     id="g494"
     transform="matrix(1.3333333,0,0,-1.3333333,-114.49999,538.26666)"><g
       id="g496"
       clip-path="url(#clipPath500)"><text
         transform="matrix(1,0,0,-1,612.12,65.304)"
         style="font-variant:normal;font-weight:normal;font-size:18.02400017px;font-family:Calibri;-inkscape-font-specification:Calibri;writing-mode:lr-tb;fill:#000000;fill-opacity:1;fill-rule:nonzero;stroke:none"
         id="text504"><tspan
           x="0 15.95124 20.024664 28.225584 32.262959 41.725559 50.701511 60.200161 64.273582 72.907082"
           y="0"
           id="tspan502">Wikipedia.</tspan></text>
</g></g></svg>