<?xml version="1.0" encoding="UTF-8" standalone="no"?>
<svg
   xmlns:dc="http://purl.org/dc/elements/1.1/"
   xmlns:cc="http://creativecommons.org/ns#"
   xmlns:rdf="http://www.w3.org/1999/02/22-rdf-syntax-ns#"
   xmlns:svg="http://www.w3.org/2000/svg"
   xmlns="http://www.w3.org/2000/svg"
   xmlns:sodipodi="http://sodipodi.sourceforge.net/DTD/sodipodi-0.dtd"
   xmlns:inkscape="http://www.inkscape.org/namespaces/inkscape"
   viewBox="0 0 1096.368 245.01334"
   height="245.01334"
   width="1096.368"
   xml:space="preserve"
   id="svg2"
   version="1.1"
   sodipodi:docname="pg_19.svg"
   inkscape:version="0.92.1 r15371"><sodipodi:namedview
     pagecolor="#ffffff"
     bordercolor="#666666"
     borderopacity="1"
     objecttolerance="10"
     gridtolerance="10"
     guidetolerance="10"
     inkscape:pageopacity="0"
     inkscape:pageshadow="2"
     inkscape:window-width="1920"
     inkscape:window-height="1016"
     id="namedview107"
     showgrid="false"
     fit-margin-top="0"
     fit-margin-left="0"
     fit-margin-right="0"
     fit-margin-bottom="0"
     inkscape:zoom="0.24375"
     inkscape:cx="553.18646"
     inkscape:cy="123.81334"
     inkscape:window-x="0"
     inkscape:window-y="27"
     inkscape:window-maximized="1"
     inkscape:current-layer="svg2" /><metadata
     id="metadata8"><rdf:RDF><cc:Work
         rdf:about=""><dc:format>image/svg+xml</dc:format><dc:type
           rdf:resource="http://purl.org/dc/dcmitype/StillImage" /><dc:title></dc:title></cc:Work></rdf:RDF></metadata><defs
     id="defs6"><clipPath
       id="clipPath18"
       clipPathUnits="userSpaceOnUse"><path
         style="clip-rule:evenodd"
         id="path16"
         d="M 0,1.2207e-4 H 960 V 540.00012 H 0 Z"
         inkscape:connector-curvature="0" /></clipPath><clipPath
       id="clipPath28"
       clipPathUnits="userSpaceOnUse"><path
         style="clip-rule:evenodd"
         id="path26"
         d="M 0,1.8311e-4 H 960 V 540.00018 H 0 Z"
         inkscape:connector-curvature="0" /></clipPath><clipPath
       id="clipPath38"
       clipPathUnits="userSpaceOnUse"><path
         style="clip-rule:evenodd"
         id="path36"
         d="M 0,1.8311e-4 H 960 V 540.00018 H 0 Z"
         inkscape:connector-curvature="0" /></clipPath><clipPath
       id="clipPath50"
       clipPathUnits="userSpaceOnUse"><path
         style="clip-rule:evenodd"
         id="path48"
         d="M 1.4305e-5,0 H 960.00001 V 540 H 1.4305e-5 Z"
         inkscape:connector-curvature="0" /></clipPath><clipPath
       id="clipPath88"
       clipPathUnits="userSpaceOnUse"><path
         style="clip-rule:evenodd"
         id="path86"
         d="M 71.76,270.36 H 345.6 V 421.68 H 71.76 Z"
         inkscape:connector-curvature="0" /></clipPath><clipPath
       id="clipPath100"
       clipPathUnits="userSpaceOnUse"><path
         style="clip-rule:evenodd"
         id="path98"
         d="M 345.48,270.36 H 619.32 V 421.68 H 345.48 Z"
         inkscape:connector-curvature="0" /></clipPath><clipPath
       id="clipPath112"
       clipPathUnits="userSpaceOnUse"><path
         style="clip-rule:evenodd"
         id="path110"
         d="M 619.2,270.36 H 893.04 V 421.68 H 619.2 Z"
         inkscape:connector-curvature="0" /></clipPath><clipPath
       id="clipPath124"
       clipPathUnits="userSpaceOnUse"><path
         style="clip-rule:evenodd"
         id="path122"
         d="M 71.76,204.24 H 345.6 V 372.36 H 71.76 Z"
         inkscape:connector-curvature="0" /></clipPath><clipPath
       id="clipPath136"
       clipPathUnits="userSpaceOnUse"><path
         style="clip-rule:evenodd"
         id="path134"
         d="M 345.48,12.24 H 619.32 V 516.36 H 345.48 Z"
         inkscape:connector-curvature="0" /></clipPath><clipPath
       id="clipPath148"
       clipPathUnits="userSpaceOnUse"><path
         style="clip-rule:evenodd"
         id="path146"
         d="M 345.48,12.24 H 619.32 V 516.36 H 345.48 Z"
         inkscape:connector-curvature="0" /></clipPath><clipPath
       id="clipPath160"
       clipPathUnits="userSpaceOnUse"><path
         style="clip-rule:evenodd"
         id="path158"
         d="M 345.48,12.24 H 619.32 V 516.36 H 345.48 Z"
         inkscape:connector-curvature="0" /></clipPath><clipPath
       id="clipPath172"
       clipPathUnits="userSpaceOnUse"><path
         style="clip-rule:evenodd"
         id="path170"
         d="M 619.2,0 H 893.04 V 540 H 619.2 Z"
         inkscape:connector-curvature="0" /></clipPath><clipPath
       id="clipPath184"
       clipPathUnits="userSpaceOnUse"><path
         style="clip-rule:evenodd"
         id="path182"
         d="M 619.2,0 H 893.04 V 540 H 619.2 Z"
         inkscape:connector-curvature="0" /></clipPath><clipPath
       id="clipPath196"
       clipPathUnits="userSpaceOnUse"><path
         style="clip-rule:evenodd"
         id="path194"
         d="M 619.2,0 H 893.04 V 540 H 619.2 Z"
         inkscape:connector-curvature="0" /></clipPath><clipPath
       id="clipPath208"
       clipPathUnits="userSpaceOnUse"><path
         style="clip-rule:evenodd"
         id="path206"
         d="M 619.2,0 H 893.04 V 540 H 619.2 Z"
         inkscape:connector-curvature="0" /></clipPath></defs><path
     inkscape:connector-curvature="0"
     d="M 0.666667,76.04 H 365.68 V 0.672 H 0.666667 Z"
     style="fill:#e48312;fill-opacity:1;fill-rule:evenodd;stroke:none;stroke-width:1.33333325"
     id="path56" /><path
     inkscape:connector-curvature="0"
     d="M 365.67466,76.04 H 730.68799 V 0.672 H 365.67466 Z"
     style="fill:#e48312;fill-opacity:1;fill-rule:evenodd;stroke:none;stroke-width:1.33333325"
     id="path58" /><path
     inkscape:connector-curvature="0"
     d="M 730.68799,76.04 H 1095.7013 V 0.672 H 730.68799 Z"
     style="fill:#e48312;fill-opacity:1;fill-rule:evenodd;stroke:none;stroke-width:1.33333325"
     id="path60" /><path
     inkscape:connector-curvature="0"
     d="M 0.666667,244.34666 H 365.68 V 76.04 H 0.666667 Z"
     style="fill:#f5d9cc;fill-opacity:1;fill-rule:evenodd;stroke:none;stroke-width:1.33333325"
     id="path62" /><path
     inkscape:connector-curvature="0"
     d="M 365.67466,244.34666 H 730.68799 V 76.04 H 365.67466 Z"
     style="fill:#f5d9cc;fill-opacity:1;fill-rule:evenodd;stroke:none;stroke-width:1.33333325"
     id="path64" /><path
     inkscape:connector-curvature="0"
     d="M 730.68799,244.34666 H 1095.7013 V 76.04 H 730.68799 Z"
     style="fill:#f5d9cc;fill-opacity:1;fill-rule:evenodd;stroke:none;stroke-width:1.33333325"
     id="path66" /><path
     inkscape:connector-curvature="0"
     d="M 365.67466,0 V 245.01333"
     style="fill:none;stroke:#ffffff;stroke-width:1.33333325;stroke-linecap:butt;stroke-linejoin:round;stroke-miterlimit:10;stroke-dasharray:none;stroke-opacity:1"
     id="path68" /><path
     inkscape:connector-curvature="0"
     d="M 730.68799,0 V 245.01333"
     style="fill:none;stroke:#ffffff;stroke-width:1.33333325;stroke-linecap:butt;stroke-linejoin:round;stroke-miterlimit:10;stroke-dasharray:none;stroke-opacity:1"
     id="path70" /><path
     inkscape:connector-curvature="0"
     d="M 0,76.04 H 1096.3679"
     style="fill:none;stroke:#ffffff;stroke-width:4;stroke-linecap:butt;stroke-linejoin:round;stroke-miterlimit:10;stroke-dasharray:none;stroke-opacity:1"
     id="path72" /><path
     inkscape:connector-curvature="0"
     d="M 0.666667,0 V 245.01333"
     style="fill:none;stroke:#ffffff;stroke-width:1.33333325;stroke-linecap:butt;stroke-linejoin:round;stroke-miterlimit:10;stroke-dasharray:none;stroke-opacity:1"
     id="path74" /><path
     inkscape:connector-curvature="0"
     d="M 1095.7013,0 V 245.01333"
     style="fill:none;stroke:#ffffff;stroke-width:1.33333325;stroke-linecap:butt;stroke-linejoin:round;stroke-miterlimit:10;stroke-dasharray:none;stroke-opacity:1"
     id="path76" /><path
     inkscape:connector-curvature="0"
     d="M 0,0.66667 H 1096.3679"
     style="fill:none;stroke:#ffffff;stroke-width:1.33333325;stroke-linecap:butt;stroke-linejoin:round;stroke-miterlimit:10;stroke-dasharray:none;stroke-opacity:1"
     id="path78" /><path
     inkscape:connector-curvature="0"
     d="M 0,244.34666 H 1096.3679"
     style="fill:none;stroke:#ffffff;stroke-width:1.33333325;stroke-linecap:butt;stroke-linejoin:round;stroke-miterlimit:10;stroke-dasharray:none;stroke-opacity:1"
     id="path80" /><g
     id="g82"
     transform="matrix(1.3333333,0,0,-1.3333333,-95.018664,481.19999)"><g
       id="g84"
       clip-path="url(#clipPath88)"><text
         transform="matrix(1,0,0,-1,78.984,339.96)"
         style="font-variant:normal;font-weight:bold;font-size:18px;font-family:Calibri;-inkscape-font-specification:Calibri-Bold;writing-mode:lr-tb;fill:#ffffff;fill-opacity:1;fill-rule:nonzero;stroke:none"
         id="text92"><tspan
           x="0 9.8459997 18.954 26.136 35.262001 44.153999 50.256001 57.779999"
           y="0"
           id="tspan90">Research</tspan></text>
</g></g><g
     id="g94"
     transform="matrix(1.3333333,0,0,-1.3333333,-95.018664,481.19999)"><g
       id="g96"
       clip-path="url(#clipPath100)"><text
         transform="matrix(1,0,0,-1,352.78,339.96)"
         style="font-variant:normal;font-weight:bold;font-size:18px;font-family:Calibri;-inkscape-font-specification:Calibri-Bold;writing-mode:lr-tb;fill:#ffffff;fill-opacity:1;fill-rule:nonzero;stroke:none"
         id="text104"><tspan
           x="0 9.2340002 18.125999 24.516001 30.761999 35.189999 42.714001 47.141998 56.862 65.753998 75.348 81.594002 88.667999 92.736 101.628 111.33 120.924 124.65 140.382 149.364 155.61 165.276 175.032 184.73399"
           y="0"
           id="tspan102">Participants and Methods</tspan></text>
</g></g><g
     id="g106"
     transform="matrix(1.3333333,0,0,-1.3333333,-95.018664,481.19999)"><g
       id="g108"
       clip-path="url(#clipPath112)"><text
         transform="matrix(1,0,0,-1,626.57,339.96)"
         style="font-variant:normal;font-weight:bold;font-size:18px;font-family:Calibri;-inkscape-font-specification:Calibri-Bold;writing-mode:lr-tb;fill:#ffffff;fill-opacity:1;fill-rule:nonzero;stroke:none"
         id="text116"><tspan
           x="0 9.4860001 18.486 27.018 30.959999 36.647999 41.076 50.742001 60.462002 64.889999 74.610001 83.141998"
           y="0"
           id="tspan114">Key findings</tspan></text>
</g></g><g
     id="g118"
     transform="matrix(1.3333333,0,0,-1.3333333,-95.018664,481.19999)"><g
       id="g120"
       clip-path="url(#clipPath124)"><text
         transform="matrix(1,0,0,-1,78.984,281.5)"
         style="font-variant:normal;font-weight:normal;font-size:20.04000092px;font-family:Calibri;-inkscape-font-specification:Calibri;writing-mode:lr-tb;fill:#000000;fill-opacity:1;fill-rule:nonzero;stroke:none"
         id="text128"><tspan
           x="0 17.15424 26.753401 36.192242 46.773361 56.753281 62.003761 67.013763 71.242203 83.887444 93.486603 100.15992 108.63684 113.24604 122.8452 127.49448 133.5666 143.787 153.94728 164.16768 174.32796"
           y="0"
           id="tspan126">Wagner, Garcia (2015)</tspan></text>
</g></g><g
     id="g130"
     transform="matrix(1.3333333,0,0,-1.3333333,-95.018664,481.19999)"><g
       id="g132"
       clip-path="url(#clipPath136)"><text
         transform="matrix(1,0,0,-1,352.78,281.5)"
         style="font-variant:normal;font-weight:normal;font-size:20.04000092px;font-family:Calibri;-inkscape-font-specification:Calibri;writing-mode:lr-tb;fill:#000000;fill-opacity:1;fill-rule:nonzero;stroke:none"
         id="text140"><tspan
           x="0 17.8356 28.19628 32.645161 37.25436 47.77536 52.204201 62.364479 66.893517 71.402519 81.001678 91.522682 101.02164 111.54264 121.1418 130.58064 140.56056 148.29601 153.306 157.65468 168.336 178.85699 183.4662 187.89503 195.73068 206.25168 216.77267 226.37184 233.12532 243.10524"
           y="0"
           id="tspan138">WP in 6 languages, Chi square </tspan></text>
</g></g><g
     id="g142"
     transform="matrix(1.3333333,0,0,-1.3333333,-95.018664,481.19999)"><g
       id="g144"
       clip-path="url(#clipPath148)"><text
         transform="matrix(1,0,0,-1,352.78,257.5)"
         style="font-variant:normal;font-weight:normal;font-size:20.04000092px;font-family:Calibri;-inkscape-font-specification:Calibri;writing-mode:lr-tb;fill:#000000;fill-opacity:1;fill-rule:nonzero;stroke:none"
         id="text152"><tspan
           x="0 6.4729199 16.452841 23.987881 30.701281 35.370602 45.931679 56.452679 60.98172 71.502724 78.095879 88.65696 99.177963 109.73904 116.733 123.4464 128.0556 138.61668 149.13768 153.44627 164.00735 170.11955 174.56844 190.5804 200.48016 211.00116 215.57028 225.16943 235.69044 246.27156"
           y="0"
           id="tspan150">test on proportion of men and </tspan></text>
</g></g><g
     id="g154"
     transform="matrix(1.3333333,0,0,-1.3333333,-95.018664,481.19999)"><g
       id="g156"
       clip-path="url(#clipPath160)"><text
         transform="matrix(1,0,0,-1,352.78,233.5)"
         style="font-variant:normal;font-weight:normal;font-size:20.04000092px;font-family:Calibri;-inkscape-font-specification:Calibri;writing-mode:lr-tb;fill:#000000;fill-opacity:1;fill-rule:nonzero;stroke:none"
         id="text164"><tspan
           x="0 14.04804 24.609119 40.621078 50.52084 61.04184 65.570877 76.131958 86.652962 91.081802 107.09376 116.69292 121.20192 131.72292 136.29204 146.81303 156.4122 165.85104"
           y="0"
           id="tspan162">women on main page</tspan></text>
</g></g><g
     id="g166"
     transform="matrix(1.3333333,0,0,-1.3333333,-95.018664,481.19999)"><g
       id="g168"
       clip-path="url(#clipPath172)"><text
         transform="matrix(1,0,0,-1,626.57,281.5)"
         style="font-variant:normal;font-weight:normal;font-size:20.04000092px;font-family:Calibri;-inkscape-font-specification:Calibri;writing-mode:lr-tb;fill:#000000;fill-opacity:1;fill-rule:nonzero;stroke:none"
         id="text176"><tspan
           x="0 9.1983604 19.17828 23.787479 33.767399 42.24432 48.957722 53.566921 64.127998 74.649002 79.17804 89.73912 96.332283 106.89336 115.37028 125.3502 135.91129 146.43228 153.18576 163.16568 167.59451 178.15559 184.26781 188.71667 194.34792 204.32784 213.66647 220.37988 230.90088 237.67439 247.65433 258.17532"
           y="0"
           id="tspan174">Selection procedure of featured </tspan></text>
</g></g><g
     id="g178"
     transform="matrix(1.3333333,0,0,-1.3333333,-95.018664,481.19999)"><g
       id="g180"
       clip-path="url(#clipPath184)"><text
         transform="matrix(1,0,0,-1,626.57,257.5)"
         style="font-variant:normal;font-weight:normal;font-size:20.04000092px;font-family:Calibri;-inkscape-font-specification:Calibri;writing-mode:lr-tb;fill:#000000;fill-opacity:1;fill-rule:nonzero;stroke:none"
         id="text188"><tspan
           x="0 9.5991602 16.593121 23.30652 27.83556 36.312481 40.92168 50.9016 58.67712 63.466679 74.027763 80.139961 84.588837 102.42444 107.03364 116.15184 120.76104 131.28204 141.26196 151.78296 156.39217 165.99132"
           y="0"
           id="tspan186">articles of Wikipedia </tspan></text>
</g></g><g
     id="g190"
     transform="matrix(1.3333333,0,0,-1.3333333,-95.018664,481.19999)"><g
       id="g192"
       clip-path="url(#clipPath196)"><text
         transform="matrix(1,0,0,-1,626.57,233.5)"
         style="font-variant:normal;font-weight:normal;font-size:20.04000092px;font-family:Calibri;-inkscape-font-specification:Calibri;writing-mode:lr-tb;fill:#000000;fill-opacity:1;fill-rule:nonzero;stroke:none"
         id="text200"><tspan
           x="0 8.39676 18.95784 34.969799 50.881561 61.402561 71.983681 76.59288 83.306282 92.384399 96.713043 107.23404 117.79512 127.77504 135.61069 140.03952 150.56052 161.1216 167.83501 172.36404 180.11952 190.64052 196.55232 202.18356 212.16348 219.15744"
           y="0"
           id="tspan198">community does not suffer </tspan></text>
</g></g><g
     id="g202"
     transform="matrix(1.3333333,0,0,-1.3333333,-95.018664,481.19999)"><g
       id="g204"
       clip-path="url(#clipPath208)"><text
         transform="matrix(1,0,0,-1,626.57,209.5)"
         style="font-variant:normal;font-weight:normal;font-size:20.06399918px;font-family:Calibri;-inkscape-font-specification:Calibri;writing-mode:lr-tb;fill:#000000;fill-opacity:1;fill-rule:nonzero;stroke:none"
         id="text212"><tspan
           x="0 6.1195202 12.720576 23.294304 39.245186 43.779648 53.169601 63.161472 73.695068 84.228668 94.220543 101.22288 105.49651 116.03011 120.64483 130.25549"
           y="0"
           id="tspan210">from gender bias</tspan></text>
</g></g></svg>