<?xml version="1.0" encoding="UTF-8" standalone="no"?>
<svg
   xmlns:dc="http://purl.org/dc/elements/1.1/"
   xmlns:cc="http://creativecommons.org/ns#"
   xmlns:rdf="http://www.w3.org/1999/02/22-rdf-syntax-ns#"
   xmlns:svg="http://www.w3.org/2000/svg"
   xmlns="http://www.w3.org/2000/svg"
   xmlns:sodipodi="http://sodipodi.sourceforge.net/DTD/sodipodi-0.dtd"
   xmlns:inkscape="http://www.inkscape.org/namespaces/inkscape"
   viewBox="0 0 1071.1866 483.064"
   height="483.064"
   width="1071.1866"
   xml:space="preserve"
   id="svg2"
   version="1.1"
   sodipodi:docname="pg_18.svg"
   inkscape:version="0.92.1 r15371"><sodipodi:namedview
     pagecolor="#ffffff"
     bordercolor="#666666"
     borderopacity="1"
     objecttolerance="10"
     gridtolerance="10"
     guidetolerance="10"
     inkscape:pageopacity="0"
     inkscape:pageshadow="2"
     inkscape:window-width="1920"
     inkscape:window-height="1016"
     id="namedview5546"
     showgrid="false"
     fit-margin-top="0"
     fit-margin-left="0"
     fit-margin-right="0"
     fit-margin-bottom="0"
     inkscape:zoom="0.70710678"
     inkscape:cx="525.46667"
     inkscape:cy="304.79734"
     inkscape:window-x="0"
     inkscape:window-y="27"
     inkscape:window-maximized="1"
     inkscape:current-layer="svg2" /><metadata
     id="metadata8"><rdf:RDF><cc:Work
         rdf:about=""><dc:format>image/svg+xml</dc:format><dc:type
           rdf:resource="http://purl.org/dc/dcmitype/StillImage" /><dc:title></dc:title></cc:Work></rdf:RDF></metadata><defs
     id="defs6"><clipPath
       id="clipPath18"
       clipPathUnits="userSpaceOnUse"><path
         style="clip-rule:evenodd"
         id="path16"
         d="M 0,1.2207e-4 H 960 V 540.00012 H 0 Z"
         inkscape:connector-curvature="0" /></clipPath><clipPath
       id="clipPath28"
       clipPathUnits="userSpaceOnUse"><path
         style="clip-rule:evenodd"
         id="path26"
         d="M 0,1.8311e-4 H 960 V 540.00018 H 0 Z"
         inkscape:connector-curvature="0" /></clipPath><clipPath
       id="clipPath38"
       clipPathUnits="userSpaceOnUse"><path
         style="clip-rule:evenodd"
         id="path36"
         d="M 0,1.8311e-4 H 960 V 540.00018 H 0 Z"
         inkscape:connector-curvature="0" /></clipPath><clipPath
       id="clipPath50"
       clipPathUnits="userSpaceOnUse"><path
         style="clip-rule:evenodd"
         id="path48"
         d="M 1.4305e-5,0 H 960.00001 V 540 H 1.4305e-5 Z"
         inkscape:connector-curvature="0" /></clipPath><clipPath
       id="clipPath104"
       clipPathUnits="userSpaceOnUse"><path
         style="clip-rule:evenodd"
         id="path102"
         d="M 86.4,313.2 H 352.08 V 464.4 H 86.4 Z"
         inkscape:connector-curvature="0" /></clipPath><clipPath
       id="clipPath116"
       clipPathUnits="userSpaceOnUse"><path
         style="clip-rule:evenodd"
         id="path114"
         d="M 351.96,313.2 H 620.52 V 464.4 H 351.96 Z"
         inkscape:connector-curvature="0" /></clipPath><clipPath
       id="clipPath128"
       clipPathUnits="userSpaceOnUse"><path
         style="clip-rule:evenodd"
         id="path126"
         d="M 620.4,313.2 H 888.84 V 464.4 H 620.4 Z"
         inkscape:connector-curvature="0" /></clipPath><clipPath
       id="clipPath140"
       clipPathUnits="userSpaceOnUse"><path
         style="clip-rule:evenodd"
         id="path138"
         d="M 86.4,267.96 H 352.08 V 419.28 H 86.4 Z"
         inkscape:connector-curvature="0" /></clipPath><clipPath
       id="clipPath152"
       clipPathUnits="userSpaceOnUse"><path
         style="clip-rule:evenodd"
         id="path150"
         d="M 351.96,95.16 H 620.52 V 540 H 351.96 Z"
         inkscape:connector-curvature="0" /></clipPath><clipPath
       id="clipPath164"
       clipPathUnits="userSpaceOnUse"><path
         style="clip-rule:evenodd"
         id="path162"
         d="M 351.96,95.16 H 620.52 V 540 H 351.96 Z"
         inkscape:connector-curvature="0" /></clipPath><clipPath
       id="clipPath176"
       clipPathUnits="userSpaceOnUse"><path
         style="clip-rule:evenodd"
         id="path174"
         d="M 1.4305e-5,0 H 960.00001 V 540 H 1.4305e-5 Z"
         inkscape:connector-curvature="0" /></clipPath><clipPath
       id="clipPath188"
       clipPathUnits="userSpaceOnUse"><path
         style="clip-rule:evenodd"
         id="path186"
         d="M 351.96,95.16 H 620.52 V 540 H 351.96 Z"
         inkscape:connector-curvature="0" /></clipPath><clipPath
       id="clipPath200"
       clipPathUnits="userSpaceOnUse"><path
         style="clip-rule:evenodd"
         id="path198"
         d="M 351.96,95.16 H 620.52 V 540 H 351.96 Z"
         inkscape:connector-curvature="0" /></clipPath><clipPath
       id="clipPath212"
       clipPathUnits="userSpaceOnUse"><path
         style="clip-rule:evenodd"
         id="path210"
         d="M 620.4,181.56 H 888.84 V 484.08 H 620.4 Z"
         inkscape:connector-curvature="0" /></clipPath><clipPath
       id="clipPath224"
       clipPathUnits="userSpaceOnUse"><path
         style="clip-rule:evenodd"
         id="path222"
         d="M 620.4,181.56 H 888.84 V 484.08 H 620.4 Z"
         inkscape:connector-curvature="0" /></clipPath><clipPath
       id="clipPath236"
       clipPathUnits="userSpaceOnUse"><path
         style="clip-rule:evenodd"
         id="path234"
         d="M 86.4,187.32 H 352.08 V 338.64 H 86.4 Z"
         inkscape:connector-curvature="0" /></clipPath><clipPath
       id="clipPath248"
       clipPathUnits="userSpaceOnUse"><path
         style="clip-rule:evenodd"
         id="path246"
         d="M 1.4305e-5,0 H 960.00001 V 540 H 1.4305e-5 Z"
         inkscape:connector-curvature="0" /></clipPath><clipPath
       id="clipPath260"
       clipPathUnits="userSpaceOnUse"><path
         style="clip-rule:evenodd"
         id="path258"
         d="M 1.4305e-5,0 H 960.00001 V 540 H 1.4305e-5 Z"
         inkscape:connector-curvature="0" /></clipPath><clipPath
       id="clipPath272"
       clipPathUnits="userSpaceOnUse"><path
         style="clip-rule:evenodd"
         id="path270"
         d="M 351.96,0 H 620.52 V 533.04 H 351.96 Z"
         inkscape:connector-curvature="0" /></clipPath><clipPath
       id="clipPath284"
       clipPathUnits="userSpaceOnUse"><path
         style="clip-rule:evenodd"
         id="path282"
         d="M 1.4305e-5,0 H 960.00001 V 540 H 1.4305e-5 Z"
         inkscape:connector-curvature="0" /></clipPath><clipPath
       id="clipPath296"
       clipPathUnits="userSpaceOnUse"><path
         style="clip-rule:evenodd"
         id="path294"
         d="M 1.4305e-5,0 H 960.00001 V 540 H 1.4305e-5 Z"
         inkscape:connector-curvature="0" /></clipPath><clipPath
       id="clipPath308"
       clipPathUnits="userSpaceOnUse"><path
         style="clip-rule:evenodd"
         id="path306"
         d="M 1.4305e-5,0 H 960.00001 V 540 H 1.4305e-5 Z"
         inkscape:connector-curvature="0" /></clipPath><clipPath
       id="clipPath320"
       clipPathUnits="userSpaceOnUse"><path
         style="clip-rule:evenodd"
         id="path318"
         d="M 1.4305e-5,0 H 960.00001 V 540 H 1.4305e-5 Z"
         inkscape:connector-curvature="0" /></clipPath><clipPath
       id="clipPath332"
       clipPathUnits="userSpaceOnUse"><path
         style="clip-rule:evenodd"
         id="path330"
         d="M 351.96,0 H 620.52 V 533.04 H 351.96 Z"
         inkscape:connector-curvature="0" /></clipPath><clipPath
       id="clipPath344"
       clipPathUnits="userSpaceOnUse"><path
         style="clip-rule:evenodd"
         id="path342"
         d="M 351.96,0 H 620.52 V 533.04 H 351.96 Z"
         inkscape:connector-curvature="0" /></clipPath><clipPath
       id="clipPath356"
       clipPathUnits="userSpaceOnUse"><path
         style="clip-rule:evenodd"
         id="path354"
         d="M 351.96,0 H 620.52 V 533.04 H 351.96 Z"
         inkscape:connector-curvature="0" /></clipPath><clipPath
       id="clipPath368"
       clipPathUnits="userSpaceOnUse"><path
         style="clip-rule:evenodd"
         id="path366"
         d="M 620.4,0 H 888.84 V 540 H 620.4 Z"
         inkscape:connector-curvature="0" /></clipPath><clipPath
       id="clipPath380"
       clipPathUnits="userSpaceOnUse"><path
         style="clip-rule:evenodd"
         id="path378"
         d="M 620.4,0 H 888.84 V 540 H 620.4 Z"
         inkscape:connector-curvature="0" /></clipPath><clipPath
       id="clipPath392"
       clipPathUnits="userSpaceOnUse"><path
         style="clip-rule:evenodd"
         id="path390"
         d="M 620.4,0 H 888.84 V 540 H 620.4 Z"
         inkscape:connector-curvature="0" /></clipPath><clipPath
       id="clipPath404"
       clipPathUnits="userSpaceOnUse"><path
         style="clip-rule:evenodd"
         id="path402"
         d="M 620.4,0 H 888.84 V 540 H 620.4 Z"
         inkscape:connector-curvature="0" /></clipPath><clipPath
       id="clipPath416"
       clipPathUnits="userSpaceOnUse"><path
         style="clip-rule:evenodd"
         id="path414"
         d="M 620.4,0 H 888.84 V 540 H 620.4 Z"
         inkscape:connector-curvature="0" /></clipPath><clipPath
       id="clipPath428"
       clipPathUnits="userSpaceOnUse"><path
         style="clip-rule:evenodd"
         id="path426"
         d="M 86.4,61.68 H 352.08 V 213 H 86.4 Z"
         inkscape:connector-curvature="0" /></clipPath><clipPath
       id="clipPath440"
       clipPathUnits="userSpaceOnUse"><path
         style="clip-rule:evenodd"
         id="path438"
         d="M 1.4305e-5,0 H 960.00001 V 540 H 1.4305e-5 Z"
         inkscape:connector-curvature="0" /></clipPath><clipPath
       id="clipPath452"
       clipPathUnits="userSpaceOnUse"><path
         style="clip-rule:evenodd"
         id="path450"
         d="M 1.4305e-5,0 H 960.00001 V 540 H 1.4305e-5 Z"
         inkscape:connector-curvature="0" /></clipPath><clipPath
       id="clipPath464"
       clipPathUnits="userSpaceOnUse"><path
         style="clip-rule:evenodd"
         id="path462"
         d="M 1.4305e-5,0 H 960.00001 V 540 H 1.4305e-5 Z"
         inkscape:connector-curvature="0" /></clipPath><clipPath
       id="clipPath476"
       clipPathUnits="userSpaceOnUse"><path
         style="clip-rule:evenodd"
         id="path474"
         d="M 351.96,0 H 620.52 V 407.4 H 351.96 Z"
         inkscape:connector-curvature="0" /></clipPath><clipPath
       id="clipPath488"
       clipPathUnits="userSpaceOnUse"><path
         style="clip-rule:evenodd"
         id="path486"
         d="M 1.4305e-5,0 H 960.00001 V 540 H 1.4305e-5 Z"
         inkscape:connector-curvature="0" /></clipPath><clipPath
       id="clipPath500"
       clipPathUnits="userSpaceOnUse"><path
         style="clip-rule:evenodd"
         id="path498"
         d="M 351.96,0 H 620.52 V 407.4 H 351.96 Z"
         inkscape:connector-curvature="0" /></clipPath><clipPath
       id="clipPath512"
       clipPathUnits="userSpaceOnUse"><path
         style="clip-rule:evenodd"
         id="path510"
         d="M 351.96,0 H 620.52 V 407.4 H 351.96 Z"
         inkscape:connector-curvature="0" /></clipPath><clipPath
       id="clipPath524"
       clipPathUnits="userSpaceOnUse"><path
         style="clip-rule:evenodd"
         id="path522"
         d="M 351.96,0 H 620.52 V 407.4 H 351.96 Z"
         inkscape:connector-curvature="0" /></clipPath><clipPath
       id="clipPath536"
       clipPathUnits="userSpaceOnUse"><path
         style="clip-rule:evenodd"
         id="path534"
         d="M 620.4,0 H 888.84 V 407.4 H 620.4 Z"
         inkscape:connector-curvature="0" /></clipPath><clipPath
       id="clipPath548"
       clipPathUnits="userSpaceOnUse"><path
         style="clip-rule:evenodd"
         id="path546"
         d="M 620.4,0 H 888.84 V 407.4 H 620.4 Z"
         inkscape:connector-curvature="0" /></clipPath><clipPath
       id="clipPath560"
       clipPathUnits="userSpaceOnUse"><path
         style="clip-rule:evenodd"
         id="path558"
         d="M 620.4,0 H 888.84 V 407.4 H 620.4 Z"
         inkscape:connector-curvature="0" /></clipPath><clipPath
       id="clipPath572"
       clipPathUnits="userSpaceOnUse"><path
         style="clip-rule:evenodd"
         id="path570"
         d="M 620.4,0 H 888.84 V 407.4 H 620.4 Z"
         inkscape:connector-curvature="0" /></clipPath></defs><path
     inkscape:connector-curvature="0"
     d="M 10.74667,0.66666663 H 1057.1467"
     style="fill:none;stroke:#7f7f7f;stroke-width:0.63999999;stroke-linecap:butt;stroke-linejoin:round;stroke-miterlimit:10;stroke-dasharray:none;stroke-opacity:1"
     id="path42" /><path
     inkscape:connector-curvature="0"
     d="M 0.66667,60.866667 H 354.89332 V 0.67200663 H 0.66667 Z"
     style="fill:#e48312;fill-opacity:1;fill-rule:evenodd;stroke:none;stroke-width:1.33333325"
     id="path56" /><path
     inkscape:connector-curvature="0"
     d="M 354.89332,60.866667 H 712.70665 V 0.67200663 H 354.89332 Z"
     style="fill:#e48312;fill-opacity:1;fill-rule:evenodd;stroke:none;stroke-width:1.33333325"
     id="path58" /><path
     inkscape:connector-curvature="0"
     d="M 712.70665,60.866667 H 1070.52 V 0.67200663 H 712.70665 Z"
     style="fill:#e48312;fill-opacity:1;fill-rule:evenodd;stroke:none;stroke-width:1.33333325"
     id="path60" /><path
     inkscape:connector-curvature="0"
     d="M 0.66667,168.41334 H 354.89332 V 60.861337 H 0.66667 Z"
     style="fill:#f5d9cc;fill-opacity:1;fill-rule:evenodd;stroke:none;stroke-width:1.33333325"
     id="path62" /><path
     inkscape:connector-curvature="0"
     d="M 354.89332,168.41334 H 712.70665 V 60.861337 H 354.89332 Z"
     style="fill:#f5d9cc;fill-opacity:1;fill-rule:evenodd;stroke:none;stroke-width:1.33333325"
     id="path64" /><path
     inkscape:connector-curvature="0"
     d="M 712.70665,168.41334 H 1070.52 V 60.861337 H 712.70665 Z"
     style="fill:#f5d9cc;fill-opacity:1;fill-rule:evenodd;stroke:none;stroke-width:1.33333325"
     id="path66" /><path
     inkscape:connector-curvature="0"
     d="M 0.66667,335.90667 H 354.89332 V 168.41334 H 0.66667 Z"
     style="fill:#faede7;fill-opacity:1;fill-rule:evenodd;stroke:none;stroke-width:1.33333325"
     id="path68" /><path
     inkscape:connector-curvature="0"
     d="M 354.89332,335.90667 H 712.70665 V 168.41334 H 354.89332 Z"
     style="fill:#faede7;fill-opacity:1;fill-rule:evenodd;stroke:none;stroke-width:1.33333325"
     id="path70" /><path
     inkscape:connector-curvature="0"
     d="M 712.70665,335.90667 H 1070.52 V 168.41334 H 712.70665 Z"
     style="fill:#faede7;fill-opacity:1;fill-rule:evenodd;stroke:none;stroke-width:1.33333325"
     id="path72" /><path
     inkscape:connector-curvature="0"
     d="M 0.66667,482.39733 H 354.89332 V 335.904 H 0.66667 Z"
     style="fill:#f5d9cc;fill-opacity:1;fill-rule:evenodd;stroke:none;stroke-width:1.33333325"
     id="path74" /><path
     inkscape:connector-curvature="0"
     d="M 354.89332,482.39733 H 712.70665 V 335.904 H 354.89332 Z"
     style="fill:#f5d9cc;fill-opacity:1;fill-rule:evenodd;stroke:none;stroke-width:1.33333325"
     id="path76" /><path
     inkscape:connector-curvature="0"
     d="M 712.70665,482.39733 H 1070.52 V 335.904 H 712.70665 Z"
     style="fill:#f5d9cc;fill-opacity:1;fill-rule:evenodd;stroke:none;stroke-width:1.33333325"
     id="path78" /><path
     inkscape:connector-curvature="0"
     d="M 354.89332,6.6269302e-6 V 483.06399"
     style="fill:none;stroke:#ffffff;stroke-width:1.33333325;stroke-linecap:butt;stroke-linejoin:round;stroke-miterlimit:10;stroke-dasharray:none;stroke-opacity:1"
     id="path80" /><path
     inkscape:connector-curvature="0"
     d="M 712.70665,6.6269302e-6 V 483.06399"
     style="fill:none;stroke:#ffffff;stroke-width:1.33333325;stroke-linecap:butt;stroke-linejoin:round;stroke-miterlimit:10;stroke-dasharray:none;stroke-opacity:1"
     id="path82" /><path
     inkscape:connector-curvature="0"
     d="M 0,60.866667 H 1071.1867"
     style="fill:none;stroke:#ffffff;stroke-width:4;stroke-linecap:butt;stroke-linejoin:round;stroke-miterlimit:10;stroke-dasharray:none;stroke-opacity:1"
     id="path84" /><path
     inkscape:connector-curvature="0"
     d="M 0,168.41334 H 1071.1867"
     style="fill:none;stroke:#ffffff;stroke-width:1.33333325;stroke-linecap:butt;stroke-linejoin:round;stroke-miterlimit:10;stroke-dasharray:none;stroke-opacity:1"
     id="path86" /><path
     inkscape:connector-curvature="0"
     d="M 0,335.90667 H 1071.1867"
     style="fill:none;stroke:#ffffff;stroke-width:1.33333325;stroke-linecap:butt;stroke-linejoin:round;stroke-miterlimit:10;stroke-dasharray:none;stroke-opacity:1"
     id="path88" /><path
     inkscape:connector-curvature="0"
     d="M 0.66667,6.6269302e-6 V 483.06399"
     style="fill:none;stroke:#ffffff;stroke-width:1.33333325;stroke-linecap:butt;stroke-linejoin:round;stroke-miterlimit:10;stroke-dasharray:none;stroke-opacity:1"
     id="path90" /><path
     inkscape:connector-curvature="0"
     d="M 1070.52,6.6269302e-6 V 483.06399"
     style="fill:none;stroke:#ffffff;stroke-width:1.33333325;stroke-linecap:butt;stroke-linejoin:round;stroke-miterlimit:10;stroke-dasharray:none;stroke-opacity:1"
     id="path92" /><path
     inkscape:connector-curvature="0"
     d="M 0,0.66666663 H 1071.1867"
     style="fill:none;stroke:#ffffff;stroke-width:1.33333325;stroke-linecap:butt;stroke-linejoin:round;stroke-miterlimit:10;stroke-dasharray:none;stroke-opacity:1"
     id="path94" /><path
     inkscape:connector-curvature="0"
     d="M 0,482.39733 H 1071.1867"
     style="fill:none;stroke:#ffffff;stroke-width:1.33333325;stroke-linecap:butt;stroke-linejoin:round;stroke-miterlimit:10;stroke-dasharray:none;stroke-opacity:1"
     id="path96" /><g
     id="g98"
     transform="matrix(1.3333333,0,0,-1.3333333,-114.53333,538.26666)"><g
       id="g100"
       clip-path="url(#clipPath104)"><text
         transform="matrix(1,0,0,-1,93.624,382.78)"
         style="font-variant:normal;font-weight:bold;font-size:18px;font-family:Calibri;-inkscape-font-specification:Calibri-Bold;writing-mode:lr-tb;fill:#ffffff;fill-opacity:1;fill-rule:nonzero;stroke:none"
         id="text108"><tspan
           x="0 9.8459997 18.954 26.136 35.262001 44.153999 50.256001 57.779999"
           y="0"
           id="tspan106">Research</tspan></text>
</g></g><g
     id="g110"
     transform="matrix(1.3333333,0,0,-1.3333333,-114.53333,538.26666)"><g
       id="g112"
       clip-path="url(#clipPath116)"><text
         transform="matrix(1,0,0,-1,359.33,382.78)"
         style="font-variant:normal;font-weight:bold;font-size:18px;font-family:Calibri;-inkscape-font-specification:Calibri-Bold;writing-mode:lr-tb;fill:#ffffff;fill-opacity:1;fill-rule:nonzero;stroke:none"
         id="text120"><tspan
           x="0 9.2340002 18.125999 24.516001 30.761999 35.189999 42.714001 47.141998 56.862 65.753998 75.348 81.594002 88.667999 92.736 101.628 111.33 120.924 124.65 140.382 149.364 155.61 165.276 175.032 184.73399"
           y="0"
           id="tspan118">Participants and Methods</tspan></text>
</g></g><g
     id="g122"
     transform="matrix(1.3333333,0,0,-1.3333333,-114.53333,538.26666)"><g
       id="g124"
       clip-path="url(#clipPath128)"><text
         transform="matrix(1,0,0,-1,627.72,382.78)"
         style="font-variant:normal;font-weight:bold;font-size:18px;font-family:Calibri;-inkscape-font-specification:Calibri-Bold;writing-mode:lr-tb;fill:#ffffff;fill-opacity:1;fill-rule:nonzero;stroke:none"
         id="text132"><tspan
           x="0 8.2620001 12.69 22.427999 32.130001 36.557999 46.223999 54.683998"
           y="0"
           id="tspan130">Findings</tspan></text>
</g></g><g
     id="g134"
     transform="matrix(1.3333333,0,0,-1.3333333,-114.53333,538.26666)"><g
       id="g136"
       clip-path="url(#clipPath140)"><text
         transform="matrix(1,0,0,-1,93.624,337.61)"
         style="font-variant:normal;font-weight:normal;font-size:18px;font-family:Calibri;-inkscape-font-specification:Calibri;writing-mode:lr-tb;fill:#000000;fill-opacity:1;fill-rule:nonzero;stroke:none"
         id="text144"><tspan
           x="0 15.354 23.976 32.490002 41.939999 50.958 55.638 60.084 64.260002 75.617996 84.276001 90.269997 97.830002 101.916 110.538 114.732 120.186 129.258 138.384 147.50999 156.636"
           y="0"
           id="tspan142">Wagner, Garcia (2015)</tspan></text>
</g></g><g
     id="g146"
     transform="matrix(1.3333333,0,0,-1.3333333,-114.53333,538.26666)"><g
       id="g148"
       clip-path="url(#clipPath152)"><text
         transform="matrix(1,0,0,-1,359.33,337.61)"
         style="font-variant:normal;font-weight:normal;font-size:18px;font-family:Calibri;-inkscape-font-specification:Calibri;writing-mode:lr-tb;fill:#000000;fill-opacity:1;fill-rule:nonzero;stroke:none"
         id="text156"><tspan
           x="0 15.966 25.200001 29.375999 33.462002 42.911999 47.124001 56.25 60.318001 64.403999 73.026001 82.475998 91.026001 100.476 109.098 117.576 126.54 133.578 138.078 142.146 149.70599 159.192 167.67 171.882 175.968 180.054 187.614 196.578 200.718 204.76801 214.218 223.70399 233.19 242.64"
           y="0"
           id="tspan154">WP in 6 languages, Log likelihood </tspan></text>
</g></g><g
     id="g158"
     transform="matrix(1.3333333,0,0,-1.3333333,-114.53333,538.26666)"><g
       id="g160"
       clip-path="url(#clipPath164)"><text
         transform="matrix(1,0,0,-1,359.33,316.01)"
         style="font-variant:normal;font-weight:normal;font-size:18px;font-family:Calibri;-inkscape-font-specification:Calibri;writing-mode:lr-tb;fill:#000000;fill-opacity:1;fill-rule:nonzero;stroke:none"
         id="text168"><tspan
           x="0 5.8860002 14.4 20.43 24.48 33.966 41.004002 45.071999 50.273998 59.759998 66.042 70.110001 77.508003 86.994003 101.376 110.826 119.484 125.766 129.798 139.248 147.78 151.95599 160.362 169.326 178.83 188.28 197.298"
           y="0"
           id="tspan166">ratios for comparing gender</tspan></text>
</g></g><g
     id="g170"
     transform="matrix(1.3333333,0,0,-1.3333333,-114.53333,538.26666)"><g
       id="g172"
       clip-path="url(#clipPath176)"><text
         transform="matrix(1,0,0,-1,562.99,316.01)"
         style="font-variant:normal;font-weight:normal;font-size:18px;font-family:Calibri;-inkscape-font-specification:Calibri;writing-mode:lr-tb;fill:#000000;fill-opacity:1;fill-rule:nonzero;stroke:none"
         id="text180"><tspan
           x="0"
           y="0"
           id="tspan178">-</tspan></text>
</g></g><g
     id="g182"
     transform="matrix(1.3333333,0,0,-1.3333333,-114.53333,538.26666)"><g
       id="g184"
       clip-path="url(#clipPath188)"><text
         transform="matrix(1,0,0,-1,568.51,316.01)"
         style="font-variant:normal;font-weight:normal;font-size:18px;font-family:Calibri;-inkscape-font-specification:Calibri;writing-mode:lr-tb;fill:#000000;fill-opacity:1;fill-rule:nonzero;stroke:none"
         id="text192"><tspan
           x="0 12.726 22.212 28.205999 37.655998"
           y="0"
           id="tspan190">word </tspan></text>
</g></g><g
     id="g194"
     transform="matrix(1.3333333,0,0,-1.3333333,-114.53333,538.26666)"><g
       id="g196"
       clip-path="url(#clipPath200)"><text
         transform="matrix(1,0,0,-1,359.33,294.41)"
         style="font-variant:normal;font-weight:normal;font-size:18px;font-family:Calibri;-inkscape-font-specification:Calibri;writing-mode:lr-tb;fill:#000000;fill-opacity:1;fill-rule:nonzero;stroke:none"
         id="text204"><tspan
           x="0 5.994 14.958 19.098 27.594 33.624001 37.674 47.16 56.610001 63.702 73.152 77.292 86.615997 93.653999"
           y="0"
           id="tspan202">relationships.</tspan></text>
</g></g><g
     id="g206"
     transform="matrix(1.3333333,0,0,-1.3333333,-114.53333,538.26666)"><g
       id="g208"
       clip-path="url(#clipPath212)"><text
         transform="matrix(1,0,0,-1,627.72,337.61)"
         style="font-variant:normal;font-weight:normal;font-size:18px;font-family:Calibri;-inkscape-font-specification:Calibri;writing-mode:lr-tb;fill:#000000;fill-opacity:1;fill-rule:nonzero;stroke:none"
         id="text216"><tspan
           x="0 15.39 24.354 33.804001 38.015999 46.638 56.088001 65.592003 69.660004 82.386002 91.872002 106.254 115.218 124.722 128.89799 137.52 143.532 152.496 156.564 166.06799 172.062 181.026 188.118 197.082 206.478 212.23801 221.202 230.70599"
           y="0"
           id="tspan214">Men and women are presented </tspan></text>
</g></g><g
     id="g218"
     transform="matrix(1.3333333,0,0,-1.3333333,-114.53333,538.26666)"><g
       id="g220"
       clip-path="url(#clipPath224)"><text
         transform="matrix(1,0,0,-1,627.72,316.01)"
         style="font-variant:normal;font-weight:normal;font-size:18px;font-family:Calibri;-inkscape-font-specification:Calibri;writing-mode:lr-tb;fill:#000000;fill-opacity:1;fill-rule:nonzero;stroke:none"
         id="text228"><tspan
           x="0 9.4499998 13.59 18.954 23.993999 32.958 38.987999 47.952 57.348 63.377998 67.428001 75.582001 79.650002 89.136002 98.585999 102.816 118.782 122.868 131.058 135.108 144.558 153.576 163.026 167.166"
           y="0"
           id="tspan226">differently on Wikipedia</tspan></text>
</g></g><g
     id="g230"
     transform="matrix(1.3333333,0,0,-1.3333333,-114.53333,538.26666)"><g
       id="g232"
       clip-path="url(#clipPath236)"><text
         transform="matrix(1,0,0,-1,93.624,256.94)"
         style="font-variant:normal;font-weight:normal;font-size:18.02400017px;font-family:Calibri;-inkscape-font-specification:Calibri;writing-mode:lr-tb;fill:#000000;fill-opacity:1;fill-rule:nonzero;stroke:none"
         id="text240"><tspan
           x="0 11.373144 20.006639 26.297016 32.515297 36.588718 46.051319 55.189487 59.62339"
           y="0"
           id="tspan238">Garrido, </tspan></text>
</g></g><g
     id="g242"
     transform="matrix(1.3333333,0,0,-1.3333333,-114.53333,538.26666)"><g
       id="g244"
       clip-path="url(#clipPath248)"><text
         transform="matrix(1,0,0,-1,157.58,256.94)"
         style="font-variant:normal;font-weight:normal;font-size:18.02400017px;font-family:Calibri;-inkscape-font-specification:Calibri;writing-mode:lr-tb;fill:#000000;fill-opacity:1;fill-rule:nonzero;stroke:none"
         id="text252"><tspan
           x="0 7.5700798 16.203575 20.277 34.678177 43.311672"
           y="0"
           id="tspan250">Lalmas</tspan></text>
</g></g><g
     id="g254"
     transform="matrix(1.3333333,0,0,-1.3333333,-114.53333,538.26666)"><g
       id="g256"
       clip-path="url(#clipPath260)"><text
         transform="matrix(1,0,0,-1,212.06,256.94)"
         style="font-variant:normal;font-weight:normal;font-size:18.02400017px;font-family:Calibri;-inkscape-font-specification:Calibri;writing-mode:lr-tb;fill:#000000;fill-opacity:1;fill-rule:nonzero;stroke:none"
         id="text264"><tspan
           x="0 5.4071999 14.545368 23.683537 32.767632 41.9058"
           y="0"
           id="tspan262">(2015)</tspan></text>
</g></g><g
     id="g266"
     transform="matrix(1.3333333,0,0,-1.3333333,-114.53333,538.26666)"><g
       id="g268"
       clip-path="url(#clipPath272)"><text
         transform="matrix(1,0,0,-1,359.33,256.94)"
         style="font-variant:normal;font-weight:normal;font-size:18.02400017px;font-family:Calibri;-inkscape-font-specification:Calibri;writing-mode:lr-tb;fill:#000000;fill-opacity:1;fill-rule:nonzero;stroke:none"
         id="text276"><tspan
           x="0 11.08476 20.889816 29.757624 38.733578 48.196175 52.341698"
           y="0"
           id="tspan274">DBPedia</tspan></text>
</g></g><g
     id="g278"
     transform="matrix(1.3333333,0,0,-1.3333333,-114.53333,538.26666)"><g
       id="g280"
       clip-path="url(#clipPath284)"><text
         transform="matrix(1,0,0,-1,424.49,256.94)"
         style="font-variant:normal;font-weight:normal;font-size:18.02400017px;font-family:Calibri;-inkscape-font-specification:Calibri;writing-mode:lr-tb;fill:#000000;fill-opacity:1;fill-rule:nonzero;stroke:none"
         id="text288"><tspan
           x="0 9.1381683 18.276337 27.360432 36.4986 40.572025 50.034622 58.559975 64.32766 72.961151 80.008537 88.930412 94.968452 99.36631"
           y="0"
           id="tspan286">2014 dataset, </tspan></text>
</g></g><g
     id="g290"
     transform="matrix(1.3333333,0,0,-1.3333333,-114.53333,538.26666)"><g
       id="g292"
       clip-path="url(#clipPath296)"><text
         transform="matrix(1,0,0,-1,528.07,256.94)"
         style="font-variant:normal;font-weight:normal;font-size:18.02400017px;font-family:Calibri;-inkscape-font-specification:Calibri;writing-mode:lr-tb;fill:#000000;fill-opacity:1;fill-rule:nonzero;stroke:none"
         id="text300"><tspan
           x="0 8.9999523"
           y="0"
           id="tspan298">en</tspan></text>
</g></g><g
     id="g302"
     transform="matrix(1.3333333,0,0,-1.3333333,-114.53333,538.26666)"><g
       id="g304"
       clip-path="url(#clipPath308)"><text
         transform="matrix(1,0,0,-1,546.55,256.94)"
         style="font-variant:normal;font-weight:normal;font-size:18.02400017px;font-family:Calibri;-inkscape-font-specification:Calibri;writing-mode:lr-tb;fill:#000000;fill-opacity:1;fill-rule:nonzero;stroke:none"
         id="text312"><tspan
           x="0"
           y="0"
           id="tspan310">-</tspan></text>
</g></g><g
     id="g314"
     transform="matrix(1.3333333,0,0,-1.3333333,-114.53333,538.26666)"><g
       id="g316"
       clip-path="url(#clipPath320)"><text
         transform="matrix(1,0,0,-1,552.07,256.94)"
         style="font-variant:normal;font-weight:normal;font-size:18.02400017px;font-family:Calibri;-inkscape-font-specification:Calibri;writing-mode:lr-tb;fill:#000000;fill-opacity:1;fill-rule:nonzero;stroke:none"
         id="text324"><tspan
           x="0 12.88716 16.924536 25.125456 29.162832"
           y="0"
           id="tspan322">wiki </tspan></text>
</g></g><g
     id="g326"
     transform="matrix(1.3333333,0,0,-1.3333333,-114.53333,538.26666)"><g
       id="g328"
       clip-path="url(#clipPath332)"><text
         transform="matrix(1,0,0,-1,359.33,235.32)"
         style="font-variant:normal;font-weight:normal;font-size:18px;font-family:Calibri;-inkscape-font-specification:Calibri;writing-mode:lr-tb;fill:#000000;fill-opacity:1;fill-rule:nonzero;stroke:none"
         id="text336"><tspan
           x="0 9.4499998 18.936001 33.318001 42.768002 46.998001 58.914001 66.438004 72.468002 76.625999 85.751999 94.877998 104.004 113.13 117.54 121.716 126.252 135.63 140.67 149.634 155.916 161.91 170.87399 180.37801 184.446 192.85201 201.81599 211.32001 220.77 229.78799 236.07001"
           y="0"
           id="tspan334">dump Oct 2014, Inferred gender </tspan></text>
</g></g><g
     id="g338"
     transform="matrix(1.3333333,0,0,-1.3333333,-114.53333,538.26666)"><g
       id="g340"
       clip-path="url(#clipPath344)"><text
         transform="matrix(1,0,0,-1,359.33,213.72)"
         style="font-variant:normal;font-weight:normal;font-size:18px;font-family:Calibri;-inkscape-font-specification:Calibri;writing-mode:lr-tb;fill:#000000;fill-opacity:1;fill-rule:nonzero;stroke:none"
         id="text348"><tspan
           x="0 5.1659999 14.652 20.934 25.002001 40.931999 50.166 54.341999 63.792 67.931999 77.417999 85.896004 91.781998 100.404 109.854 119.358 123.444 132.408 139.5 143.946 148.12199 155.68201 160.218 175.968 185.562"
           y="0"
           id="tspan346">for WP biographies, LIWC </tspan></text>
</g></g><g
     id="g350"
     transform="matrix(1.3333333,0,0,-1.3333333,-114.53333,538.26666)"><g
       id="g352"
       clip-path="url(#clipPath356)"><text
         transform="matrix(1,0,0,-1,359.33,192.12)"
         style="font-variant:normal;font-weight:normal;font-size:18px;font-family:Calibri;-inkscape-font-specification:Calibri;writing-mode:lr-tb;fill:#000000;fill-opacity:1;fill-rule:nonzero;stroke:none"
         id="text360"><tspan
           x="0 9.4499998 13.59 21.114 27.143999 31.194 40.68 50.130001 58.751999 65.141998"
           y="0"
           id="tspan358">dictionary</tspan></text>
</g></g><g
     id="g362"
     transform="matrix(1.3333333,0,0,-1.3333333,-114.53333,538.26666)"><g
       id="g364"
       clip-path="url(#clipPath368)"><text
         transform="matrix(1,0,0,-1,627.72,256.94)"
         style="font-variant:normal;font-weight:normal;font-size:18.02400017px;font-family:Calibri;-inkscape-font-specification:Calibri;writing-mode:lr-tb;fill:#000000;fill-opacity:1;fill-rule:nonzero;stroke:none"
         id="text372"><tspan
           x="0 15.41052 24.044016 30.244272 36.534649 40.572025 49.205521 57.604706 66.580658 70.654083 79.287575 88.786224 98.248825 102.44842 109.4958 118.29151 126.0959 130.04317 136.04515 145.0211 149.16663 157.63791 163.40558 172.38153 181.84413 186.06175 193.50566 203.00432 212.34074 218.10843 227.08438 236.47488 242.51292"
           y="0"
           id="tspan370">Marriage and sex related content </tspan></text>
</g></g><g
     id="g374"
     transform="matrix(1.3333333,0,0,-1.3333333,-114.53333,538.26666)"><g
       id="g376"
       clip-path="url(#clipPath380)"><text
         transform="matrix(1,0,0,-1,627.72,235.32)"
         style="font-variant:normal;font-weight:normal;font-size:18px;font-family:Calibri;-inkscape-font-specification:Calibri;writing-mode:lr-tb;fill:#000000;fill-opacity:1;fill-rule:nonzero;stroke:none"
         id="text384"><tspan
           x="0 8.6219997 14.634 23.598 27.666 42.102001 51.588001 57.582001 66.545998 70.758003 76.248001 82.278 91.241997 100.746 110.196 119.214 128.57401 134.604 138.672 142.74001 152.19 156.40199 169.12801 178.614 192.996 201.96001 211.464 214.83 221.868"
           y="0"
           id="tspan382">are more frequent in women’s </tspan></text>
</g></g><g
     id="g386"
     transform="matrix(1.3333333,0,0,-1.3333333,-114.53333,538.26666)"><g
       id="g388"
       clip-path="url(#clipPath392)"><text
         transform="matrix(1,0,0,-1,627.72,213.72)"
         style="font-variant:normal;font-weight:normal;font-size:18px;font-family:Calibri;-inkscape-font-specification:Calibri;writing-mode:lr-tb;fill:#000000;fill-opacity:1;fill-rule:nonzero;stroke:none"
         id="text396"><tspan
           x="0 9.4499998 13.59 23.076 31.554001 37.439999 46.062 55.512001 65.015999 69.101997 78.066002 85.157997 89.603996 93.779999 101.214 110.7 119.178 128.68201 132.76801 138.798 142.84801 152.334 161.784 166.104 172.09801 181.062 185.202 193.698 199.45799 208.422 217.92599"
           y="0"
           id="tspan394">biographies, cognition related </tspan></text>
</g></g><g
     id="g398"
     transform="matrix(1.3333333,0,0,-1.3333333,-114.53333,538.26666)"><g
       id="g400"
       clip-path="url(#clipPath404)"><text
         transform="matrix(1,0,0,-1,627.72,192.12)"
         style="font-variant:normal;font-weight:normal;font-size:18px;font-family:Calibri;-inkscape-font-specification:Calibri;writing-mode:lr-tb;fill:#000000;fill-opacity:1;fill-rule:nonzero;stroke:none"
         id="text408"><tspan
           x="0 7.434 16.92 26.280001 32.040001 41.004002 50.400002 56.43 60.588001 64.674004 71.711998 75.816002 85.265999 89.405998 97.884003 107.334 111.474 115.542 124.02 133.47 139.17599 148.14 157.644 161.946 166.032 175.48199 179.694 194.076 203.03999 212.562 215.92799 222.966"
           y="0"
           id="tspan406">content is highlighted in men’s </tspan></text>
</g></g><g
     id="g410"
     transform="matrix(1.3333333,0,0,-1.3333333,-114.53333,538.26666)"><g
       id="g412"
       clip-path="url(#clipPath416)"><text
         transform="matrix(1,0,0,-1,627.72,170.52)"
         style="font-variant:normal;font-weight:normal;font-size:18px;font-family:Calibri;-inkscape-font-specification:Calibri;writing-mode:lr-tb;fill:#000000;fill-opacity:1;fill-rule:nonzero;stroke:none"
         id="text420"><tspan
           x="0 9.4499998 13.59 23.076 31.554001 37.439999 46.062 55.512001 65.015999 69.101997 78.066002"
           y="0"
           id="tspan418">biographies</tspan></text>
</g></g><g
     id="g422"
     transform="matrix(1.3333333,0,0,-1.3333333,-114.53333,538.26666)"><g
       id="g424"
       clip-path="url(#clipPath428)"><text
         transform="matrix(1,0,0,-1,93.624,131.28)"
         style="font-variant:normal;font-weight:normal;font-size:18px;font-family:Calibri;-inkscape-font-specification:Calibri;writing-mode:lr-tb;fill:#000000;fill-opacity:1;fill-rule:nonzero;stroke:none"
         id="text432"><tspan
           x="0 15.354 23.976 32.490002 41.939999 50.958 55.638 60.084"
           y="0"
           id="tspan430">Wagner, </tspan></text>
</g></g><g
     id="g434"
     transform="matrix(1.3333333,0,0,-1.3333333,-114.53333,538.26666)"><g
       id="g436"
       clip-path="url(#clipPath440)"><text
         transform="matrix(1,0,0,-1,157.94,131.28)"
         style="font-variant:normal;font-weight:normal;font-size:18px;font-family:Calibri;-inkscape-font-specification:Calibri;writing-mode:lr-tb;fill:#000000;fill-opacity:1;fill-rule:nonzero;stroke:none"
         id="text444"><tspan
           x="0 11.358 17.280001 25.902 34.866001 39.006001 43.074001"
           y="0"
           id="tspan442">Graells</tspan></text>
</g></g><g
     id="g446"
     transform="matrix(1.3333333,0,0,-1.3333333,-114.53333,538.26666)"><g
       id="g448"
       clip-path="url(#clipPath452)"><text
         transform="matrix(1,0,0,-1,208.1,131.28)"
         style="font-variant:normal;font-weight:normal;font-size:18px;font-family:Calibri;-inkscape-font-specification:Calibri;writing-mode:lr-tb;fill:#000000;fill-opacity:1;fill-rule:nonzero;stroke:none"
         id="text456"><tspan
           x="0"
           y="0"
           id="tspan454">-</tspan></text>
</g></g><g
     id="g458"
     transform="matrix(1.3333333,0,0,-1.3333333,-114.53333,538.26666)"><g
       id="g460"
       clip-path="url(#clipPath464)"><text
         transform="matrix(1,0,0,-1,213.62,131.28)"
         style="font-variant:normal;font-weight:normal;font-size:18px;font-family:Calibri;-inkscape-font-specification:Calibri;writing-mode:lr-tb;fill:#000000;fill-opacity:1;fill-rule:nonzero;stroke:none"
         id="text468"><tspan
           x="0 11.358 20.016001 26.298 32.490002 36.576 46.026001 55.512001 59.723999 65.178001 74.25 83.375999 92.501999 101.628"
           y="0"
           id="tspan466">Garrido (2016)</tspan></text>
</g></g><g
     id="g470"
     transform="matrix(1.3333333,0,0,-1.3333333,-114.53333,538.26666)"><g
       id="g472"
       clip-path="url(#clipPath476)"><text
         transform="matrix(1,0,0,-1,359.33,131.28)"
         style="font-variant:normal;font-weight:normal;font-size:18px;font-family:Calibri;-inkscape-font-specification:Calibri;writing-mode:lr-tb;fill:#000000;fill-opacity:1;fill-rule:nonzero;stroke:none"
         id="text480"><tspan
           x="0 11.07 20.862 30.312 39.348 48.798 52.938"
           y="0"
           id="tspan478">DBpedia</tspan></text>
</g></g><g
     id="g482"
     transform="matrix(1.3333333,0,0,-1.3333333,-114.53333,538.26666)"><g
       id="g484"
       clip-path="url(#clipPath488)"><text
         transform="matrix(1,0,0,-1,425.09,131.28)"
         style="font-variant:normal;font-weight:normal;font-size:18px;font-family:Calibri;-inkscape-font-specification:Calibri;writing-mode:lr-tb;fill:#000000;fill-opacity:1;fill-rule:nonzero;stroke:none"
         id="text492"><tspan
           x="0 9.1260004 18.252001 27.378 36.504002 40.571999 50.021999 58.554001 64.314003 72.935997 80.010002 88.884003 94.914001 99.323997 103.5 107.586 116.946 121.986 130.95 137.23199 143.226 152.19 161.694"
           y="0"
           id="tspan490">2014 dataset, inferred </tspan></text>
</g></g><g
     id="g494"
     transform="matrix(1.3333333,0,0,-1.3333333,-114.53333,538.26666)"><g
       id="g496"
       clip-path="url(#clipPath500)"><text
         transform="matrix(1,0,0,-1,359.33,109.68)"
         style="font-variant:normal;font-weight:normal;font-size:18px;font-family:Calibri;-inkscape-font-specification:Calibri;writing-mode:lr-tb;fill:#000000;fill-opacity:1;fill-rule:nonzero;stroke:none"
         id="text504"><tspan
           x="0 8.4060001 17.370001 26.874001 36.324001 45.341999 51.624001 55.692001 60.821999 70.307999 76.589996 80.730003 96.695999 105.93 109.998 119.448 123.588 133.07401 140.112 144.612 148.752 158.202 167.688 174.78 178.866 184.896 188.946 196.992 205.95599 210.024 218.7 228.14999 237.636"
           y="0"
           id="tspan502">gender for WP bios, positive and </tspan></text>
</g></g><g
     id="g506"
     transform="matrix(1.3333333,0,0,-1.3333333,-114.53333,538.26666)"><g
       id="g508"
       clip-path="url(#clipPath512)"><text
         transform="matrix(1,0,0,-1,359.33,88.08)"
         style="font-variant:normal;font-weight:normal;font-size:18px;font-family:Calibri;-inkscape-font-specification:Calibri;writing-mode:lr-tb;fill:#000000;fill-opacity:1;fill-rule:nonzero;stroke:none"
         id="text516"><tspan
           x="0 9.4499998 18.468 26.622 35.136002 41.166 45.216 53.262001 62.226002 66.293999 73.781998 83.267998 92.627998 98.388 107.352 116.748 122.778 126.936 135.558 145.008 153.68401 157.77 165.81599 172.53 181.494 190.998 195.06599 204.51601 211.62601 215.71201 225.162 233.694"
           y="0"
           id="tspan514">negative content analyzed using </tspan></text>
</g></g><g
     id="g518"
     transform="matrix(1.3333333,0,0,-1.3333333,-114.53333,538.26666)"><g
       id="g520"
       clip-path="url(#clipPath524)"><text
         transform="matrix(1,0,0,-1,359.33,66.48)"
         style="font-variant:normal;font-weight:normal;font-size:18px;font-family:Calibri;-inkscape-font-specification:Calibri;writing-mode:lr-tb;fill:#000000;fill-opacity:1;fill-rule:nonzero;stroke:none"
         id="text528"><tspan
           x="0 8.6219997 18.072001 22.427999 31.392 39.006001 45.035999 49.068001 57.113998 66.078003"
           y="0"
           id="tspan526">adjectives</tspan></text>
</g></g><g
     id="g530"
     transform="matrix(1.3333333,0,0,-1.3333333,-114.53333,538.26666)"><g
       id="g532"
       clip-path="url(#clipPath536)"><text
         transform="matrix(1,0,0,-1,627.72,131.28)"
         style="font-variant:normal;font-weight:normal;font-size:18px;font-family:Calibri;-inkscape-font-specification:Calibri;writing-mode:lr-tb;fill:#000000;fill-opacity:1;fill-rule:nonzero;stroke:none"
         id="text540"><tspan
           x="0 10.422 19.799999 26.639999 32.669998 38.52 47.141998 54.756001 60.714001 64.781998 70.559998 79.524002 85.806 100.188 107.262 111.33 117.108 126.072 135.576 145.026 149.23801 155.12399 164.61 168.67799 178.12801 187.146 191.32201 200.772 207.864 216.828 226.332 230.39999 236.286 245.772"
           y="0"
           id="tspan538">Abstract terms tend to be used to </tspan></text>
</g></g><g
     id="g542"
     transform="matrix(1.3333333,0,0,-1.3333333,-114.53333,538.26666)"><g
       id="g544"
       clip-path="url(#clipPath548)"><text
         transform="matrix(1,0,0,-1,627.72,109.68)"
         style="font-variant:normal;font-weight:normal;font-size:18px;font-family:Calibri;-inkscape-font-specification:Calibri;writing-mode:lr-tb;fill:#000000;fill-opacity:1;fill-rule:nonzero;stroke:none"
         id="text552"><tspan
           x="0 9.4499998 18.468 25.506001 33.119999 39.348 43.433998 52.883999 61.902 66.078003 75.528 85.014 92.106003 96.192001 102.222 106.272 114.318 123.282 127.35 136.026 143.064 152.56799 161.532 169.146 175.17599 182.214 186.282 195.76801 201.258 205.326 219.744 228.70799 238.21201"
           y="0"
           id="tspan550">describe positive aspects of men </tspan></text>
</g></g><g
     id="g554"
     transform="matrix(1.3333333,0,0,-1.3333333,-114.53333,538.26666)"><g
       id="g556"
       clip-path="url(#clipPath560)"><text
         transform="matrix(1,0,0,-1,627.72,88.08)"
         style="font-variant:normal;font-weight:normal;font-size:18px;font-family:Calibri;-inkscape-font-specification:Calibri;writing-mode:lr-tb;fill:#000000;fill-opacity:1;fill-rule:nonzero;stroke:none"
         id="text564"><tspan
           x="0 8.6219997 18.072001 27.576 31.752001 41.202 50.220001 58.374001 66.888 72.917999 76.968002 85.014 93.977997 97.973999 106.596 113.67 123.12 132.138 139.698 145.728 152.76601 156.834 166.32001 171.81 175.914 188.64 198.12601 212.508 221.472 230.976 235.15199 239.23801 248.688"
           y="0"
           id="tspan562">and negative aspects of women in </tspan></text>
</g></g><g
     id="g566"
     transform="matrix(1.3333333,0,0,-1.3333333,-114.53333,538.26666)"><g
       id="g568"
       clip-path="url(#clipPath572)"><text
         transform="matrix(1,0,0,-1,627.72,66.48)"
         style="font-variant:normal;font-weight:normal;font-size:18px;font-family:Calibri;-inkscape-font-specification:Calibri;writing-mode:lr-tb;fill:#000000;fill-opacity:1;fill-rule:nonzero;stroke:none"
         id="text576"><tspan
           x="0 6.0300002 15.48 24.444 28.584 34.793999 38.970001 48.419998 52.560001 62.046001 70.524002 76.410004 85.031998 94.482002 103.986 108.072 117.036"
           y="0"
           id="tspan574">their biographies</tspan></text>
</g></g></svg>