<?xml version="1.0" encoding="utf-8"?>
<!-- Generator: Adobe Illustrator 13.0.2, SVG Export Plug-In . SVG Version: 6.00 Build 14948)  -->
<!DOCTYPE svg PUBLIC "-//W3C//DTD SVG 1.1//EN" "http://www.w3.org/Graphics/SVG/1.1/DTD/svg11.dtd">
<svg version="1.1"
	 id="Layer_3" inkscape:version="0.46" xmlns:rdf="http://www.w3.org/1999/02/22-rdf-syntax-ns#" xmlns:dc="http://purl.org/dc/elements/1.1/" xmlns:sodipodi="http://sodipodi.sourceforge.net/DTD/sodipodi-0.dtd" xmlns:inkscape="http://www.inkscape.org/namespaces/inkscape" sodipodi:version="0.32" xmlns:svg="http://www.w3.org/2000/svg" xmlns:cc="http://creativecommons.org/ns#" sodipodi:docname="Wikimedia_australia.svg" inkscape:output_extension="org.inkscape.output.svg.inkscape"
	 xmlns="http://www.w3.org/2000/svg" xmlns:xlink="http://www.w3.org/1999/xlink" x="0px" y="0px" width="259.762px"
	 height="265.172px" viewBox="0 0 259.762 265.172" enable-background="new 0 0 259.762 265.172" xml:space="preserve">
<defs>
	
	
		<inkscape:perspective  inkscape:persp3d-origin="129.881 : 88.391001 : 1" sodipodi:type="inkscape:persp3d" inkscape:vp_z="259.76199 : 132.5865 : 1" inkscape:vp_x="0 : 132.5865 : 1" inkscape:vp_y="0 : 1000 : 0" id="perspective2549">
		</inkscape:perspective>
</defs>
<sodipodi:namedview  guidetolerance="10.0" gridtolerance="10.0" objecttolerance="10.0" showgrid="false" inkscape:current-layer="Layer_3" inkscape:cy="18.839369" inkscape:cx="129.881" inkscape:zoom="2.8132577" pagecolor="#ffffff" inkscape:pageopacity="0.0" inkscape:pageshadow="2" bordercolor="#666666" inkscape:window-height="480" inkscape:window-width="640" borderopacity="1.0" id="base">
	</sodipodi:namedview>
<line id="line2490" fill="none" x1="259.762" y1="257.152" x2="259.762" y2="0.002"/>
<line id="line2492" fill="none" x1="0" y1="0.002" x2="0" y2="257.152"/>
<polyline id="polyline2500" fill="none" points="259.762,0 259.762,238.286 0.006,238.286 0.006,0 "/>
<g id="g2704">
	<g id="g2698">
		<path id="path2494" fill="#971B1E" d="M97.612,32.332C97.612,14.476,112.088,0,129.951,0c17.854,0,32.334,14.476,32.334,32.332
			c0,17.854-14.48,32.326-32.334,32.326C112.088,64.658,97.612,50.186,97.612,32.332z"/>
		<path id="path2496" fill="#289F6E" d="M169.08,51.795c12.088,10.771,19.696,26.46,19.696,43.918
			c0,30.141-22.676,54.983-51.896,58.411V83.992L169.08,51.795"/>
		<path id="path2498" fill="#289F6E" d="M71.127,95.714c0-17.458,7.607-33.147,19.696-43.918l32.2,32.196v70.131
			C93.797,150.698,71.127,125.855,71.127,95.714"/>
		<path id="path2502" fill="#00679A" d="M32.136,97.155c0-28.594,12.268-54.322,31.834-72.205l17.871,17.872
			C67.314,55.955,58.185,74.948,58.185,96.07c0,39.634,32.127,71.759,71.768,71.759c39.635,0,71.763-32.125,71.763-71.759
			c0-21.123-9.127-40.115-23.655-53.249l17.873-17.872c19.562,17.883,31.836,43.616,31.836,72.205
			c0,54.015-43.794,97.81-97.816,97.81C75.926,194.963,32.136,151.17,32.136,97.155"/>
	</g>
	<g id="g2504">
		<polyline id="polyline2506" fill="#484849" points="12.935,238.306 0.006,208.238 4.048,208.238 8.125,208.238 14.824,224.879 
			14.809,224.879 22.5,208.238 25.359,208.238 28.242,208.238 35.914,224.901 35.921,224.901 42.595,208.238 46.647,208.238 
			50.723,208.238 37.807,238.306 36.219,238.306 34.599,238.306 25.363,219.586 25.359,219.586 16.136,238.306 14.545,238.306 
			12.935,238.306 		"/>
		<polyline id="polyline2508" fill="#484849" points="54.261,208.238 57.957,208.238 61.666,208.238 61.666,237.856 57.976,237.856 
			54.261,237.856 54.261,208.238 		"/>
		<polyline id="polyline2510" fill="#484849" points="75.838,237.856 72.144,237.856 68.438,237.856 68.438,208.238 72.131,208.238 
			75.838,208.238 75.838,222.247 75.858,222.247 85.308,208.238 89.486,208.238 93.668,208.238 83.342,222.438 96.784,237.856 
			92.099,237.856 87.392,237.856 75.833,223.731 75.838,223.731 75.838,237.856 		"/>
		<polyline id="polyline2512" fill="#484849" points="99.93,208.238 103.617,208.238 107.329,208.238 107.329,237.856 
			103.636,237.856 99.93,237.856 99.93,208.238 		"/>
		<polyline id="polyline2514" fill="#484849" points="121.5,237.856 117.818,237.856 114.103,237.856 114.103,208.238 
			117.433,208.238 120.764,208.238 130.028,218.918 130.037,218.918 139.279,208.238 142.614,208.238 145.945,208.238 
			145.945,237.856 142.257,237.856 138.543,237.856 138.543,219.665 138.56,219.665 130.671,228.775 130.037,228.775 
			129.399,228.775 121.5,219.665 121.5,219.665 121.5,237.856 		"/>
		<polyline id="polyline2516" fill="#484849" points="152.611,237.856 152.611,208.238 174.436,208.238 174.436,210.904 
			174.436,213.579 160.015,213.579 160.015,219.928 173.54,219.928 173.54,222.59 173.54,225.275 160.015,225.275 160.015,232.513 
			174.436,232.513 174.436,235.17 174.436,237.856 152.611,237.856 		"/>
		<path id="path2518" fill="#484849" d="M180.046,208.238h3.687h7.559c6.08,0,10.638,1.237,13.685,3.71
			c3.015,2.445,4.521,6.12,4.521,11.043v0.066c0.013,4.934-1.438,8.632-4.349,11.097c-2.915,2.466-7.291,3.702-13.135,3.702h-8.279
			h-3.687L180.046,208.238 M187.445,232.398h4.576c3.245,0,5.68-0.778,7.3-2.332c1.629-1.55,2.437-3.89,2.437-7.009
			c0-3.123-0.874-5.465-2.616-7.021c-1.74-1.562-4.356-2.344-7.843-2.344h-3.854V232.398z"/>
		<polyline id="polyline2520" fill="#484849" points="215.114,208.238 218.804,208.238 222.519,208.238 222.519,237.856 
			218.832,237.856 215.114,237.856 215.114,208.238 		"/>
		<path id="path2522" fill="#484849" d="M238.627,207.793h4.299h4.327l12.509,30.062h-4.03h-4.029l-2.196-5.627h-13.148
			l-2.179,5.627h-4.03h-4.033L238.627,207.793 M238.398,226.881h9.062l-4.551-11.6h-0.009L238.398,226.881z"/>
	</g>
</g>
<g>
	<path fill="#666666" d="M124.949,245.952h4.418v10.066c0,2.59-0.766,4.554-2.298,5.891c-1.532,1.338-3.72,2.006-6.563,2.006
		c-2.81,0-4.991-0.677-6.544-2.031c-1.553-1.354-2.33-3.301-2.33-5.84v-10.092h4.431v10.193c0,1.236,0.404,2.227,1.212,2.971
		c0.808,0.745,1.868,1.117,3.18,1.117c1.363,0,2.452-0.381,3.269-1.143s1.225-1.845,1.225-3.25V245.952z"/>
	<path fill="#666666" d="M148.093,245.952l-5.777,8.341l7.834,9.394h-5.522l-7.033-8.314v8.314h-4.418v-17.734h4.418v7.984
		l5.639-7.984H148.093z"/>
</g>
</svg>
