<?xml version="1.0" encoding="UTF-8" standalone="no"?>
<!-- Created with Inkscape (http://www.inkscape.org/) -->

<svg
   xmlns:dc="http://purl.org/dc/elements/1.1/"
   xmlns:cc="http://creativecommons.org/ns#"
   xmlns:rdf="http://www.w3.org/1999/02/22-rdf-syntax-ns#"
   xmlns:svg="http://www.w3.org/2000/svg"
   xmlns="http://www.w3.org/2000/svg"
   xmlns:sodipodi="http://sodipodi.sourceforge.net/DTD/sodipodi-0.dtd"
   xmlns:inkscape="http://www.inkscape.org/namespaces/inkscape"
   version="1.0"
   width="645"
   height="585"
   id="svg2"
   inkscape:version="0.48.2 r9819"
   sodipodi:docname="Love_Heart_SVG.svg">
  <metadata
     id="metadata3660">
    <rdf:RDF>
      <cc:Work
         rdf:about="">
        <dc:format>image/svg+xml</dc:format>
        <dc:type
           rdf:resource="http://purl.org/dc/dcmitype/StillImage" />
        <dc:title></dc:title>
      </cc:Work>
    </rdf:RDF>
  </metadata>
  <sodipodi:namedview
     pagecolor="#ffffff"
     bordercolor="#666666"
     borderopacity="1"
     objecttolerance="10"
     gridtolerance="10"
     guidetolerance="10"
     inkscape:pageopacity="0"
     inkscape:pageshadow="2"
     inkscape:window-width="1366"
     inkscape:window-height="706"
     id="namedview3658"
     showgrid="false"
     inkscape:zoom="0.4034188"
     inkscape:cx="-64.194915"
     inkscape:cy="292.5"
     inkscape:window-x="-8"
     inkscape:window-y="-8"
     inkscape:window-maximized="1"
     inkscape:current-layer="svg2" />
  <defs
     id="defs4" />
  <g
     id="layer1"
     style="fill:#CF1020">
    <path
       d="M 297.29747,550.86823 C 283.52243,535.43191 249.1268,505.33855 220.86277,483.99412 C 137.11867,420.75228 125.72108,411.5999 91.719238,380.29088 C 29.03471,322.57071 2.413622,264.58086 2.5048478,185.95124 C 2.5493594,147.56739 5.1656152,132.77929 15.914734,110.15398 C 34.151433,71.768267 61.014996,43.244667 95.360052,25.799457 C 119.68545,13.443675 131.6827,7.9542046 172.30448,7.7296236 C 214.79777,7.4947896 223.74311,12.449347 248.73919,26.181459 C 279.1637,42.895777 310.47909,78.617167 316.95242,103.99205 L 320.95052,119.66445 L 330.81015,98.079942 C 386.52632,-23.892986 564.40851,-22.06811 626.31244,101.11153 C 645.95011,140.18758 648.10608,223.6247 630.69256,270.6244 C 607.97729,331.93377 565.31255,378.67493 466.68622,450.30098 C 402.0054,497.27462 328.80148,568.34684 323.70555,578.32901 C 317.79007,589.91654 323.42339,580.14491 297.29747,550.86823 z"
       id="path2417"
       style="fill:#CF1020" />
    <g
       transform="translate(129.28571,-64.285714)"
       id="g2221"
       style="fill:#CF1020" />
  </g>
  <path
     style="fill:#000000"
     d="M 306.21875 214.21875 C 306.92534 214.58382 307.35703 216.20883 307.34375 218.59375 C 307.32723 221.62431 306.48334 225.41295 305.4375 227.03125 C 304.02015 229.22446 303.5224 228.14678 303.5 222.75 C 303.48346 218.76792 304.35864 214.94801 305.4375 214.28125 C 305.72051 214.10634 305.98322 214.09706 306.21875 214.21875 z "
     id="path4474" />
  <path
     style="fill:#f2f2f2"
     d="M 315.15625 575.03125 C 316.06898 576.61073 317.50446 578.88138 318.09375 579.9375 C 318.74296 581.10101 319.20699 581.91611 319.625 582.4375 C 320.04301 582.95889 320.39402 583.15923 320.75 583.03125 C 321.10598 582.90327 321.47438 582.47209 321.9375 581.6875 C 322.40062 580.90291 322.97931 579.79219 323.71875 578.34375 C 324.35574 577.09598 326.04055 574.86545 328.65625 571.875 C 331.27195 568.88455 334.79869 565.11911 339.09375 560.71875 C 343.38881 556.31839 348.44992 551.29001 354.125 545.8125 C 359.80008 540.33499 366.08798 534.40938 372.84375 528.1875 C 379.59952 521.96562 386.83789 515.44599 394.375 508.8125 C 401.91211 502.17901 409.76213 495.43108 417.78125 488.71875 C 425.80037 482.00642 433.98572 475.3334 442.1875 468.875 C 450.38928 462.4166 458.6024 456.18421 466.6875 450.3125 C 479.01579 441.35924 490.47517 432.78391 501.125 424.53125 C 510.481 417.28119 518.96244 410.35232 527.125 403.53125 C 525.76341 403.43159 523.27085 402.47301 521.3125 401.25 C 518.43113 399.4506 516.40972 399.42035 512.53125 401.1875 C 508.59969 402.97891 507.43475 402.97021 507.34375 401.09375 C 507.27944 399.76829 506.53186 394.30479 505.65625 388.96875 C 504.59478 382.49995 504.94255 375.02067 506.71875 366.53125 C 509.62214 352.65458 510.18406 351.72129 516.90625 349.6875 C 520.37239 348.63885 521.31406 349.0325 520.84375 351.3125 C 520.04103 355.20399 521.93186 355.26285 528.90625 351.65625 C 532.04367 350.03383 539.77114 346.82251 546.0625 344.5 C 557.54818 340.25993 584.3532 323.61368 594.09375 314.6875 C 600.05943 309.22057 604.39086 301.44803 609.46875 287.09375 C 611.4204 281.57681 615.63479 269.78967 618.84375 260.90625 C 626.16955 240.626 626.39408 220.09781 619.4375 204.46875 C 617.03643 199.07441 614.28105 190.50894 613.3125 185.40625 C 612.2374 179.74212 607.34103 169.46915 600.71875 159.03125 C 593.55897 147.74616 589.84375 139.86708 589.84375 135.84375 C 589.84375 132.49131 586.13572 122.26953 581.59375 113.15625 C 577.05176 104.04294 571.07948 90.42707 568.3125 82.875 C 563.47945 69.683929 562.82264 68.883933 551.5625 62.8125 C 545.11591 59.336531 537.48716 56.46795 534.625 56.4375 L 529.4375 56.375 L 534.875 69.625 C 537.8756 76.907359 540.9257 85.5134 541.65625 88.75 L 543 94.625 L 537.96875 89.3125 C 535.20844 86.38918 529.08256 81.71464 524.34375 78.9375 C 515.95318 74.02031 515.50965 73.9952 507.84375 77.0625 C 502.48284 79.20751 499.20129 82.09319 497.53125 86.125 C 495.12732 91.9286 494.58675 104.00261 496.59375 107.25 C 497.15216 108.15354 496.36797 109.92253 494.84375 111.1875 C 492.67433 112.98796 490.23694 112.54391 483.59375 109.0625 C 475.89743 105.02918 472.37255 104.60605 445.6875 104.53125 C 413.00438 104.43968 404.62835 106.27571 376.03125 119.9375 L 361.3125 126.96875 L 352.03125 123.46875 C 346.92635 121.53097 339.77039 120.29317 336.125 120.71875 C 328.02769 121.66406 307.375 137.23245 307.375 142.40625 C 307.375 144.38099 305.49414 147.69475 303.1875 149.75 C 297.87102 154.487 293.65625 164.34868 293.65625 172.0625 C 293.65625 178.20228 292.68849 180.43325 283.4375 195.75 C 278.56969 203.80955 278.27569 205.43608 280.1875 212.4375 C 281.35156 216.70053 283.0739 221.13439 284.03125 222.3125 C 284.98858 223.49065 285.33739 224.91261 284.78125 225.46875 C 284.2251 226.0249 285.10563 227.60404 286.75 228.96875 C 288.39437 230.33346 289.75 230.62979 289.75 229.625 C 289.75 228.62025 291.12069 226.06297 292.8125 223.96875 C 295.76257 220.31694 295.82571 220.37929 294.75 225.4375 C 294.13311 228.33828 294.53059 231.26113 295.625 231.9375 C 296.89013 232.7194 296.54042 234.71622 294.65625 237.40625 C 290.66415 243.10577 290.80108 243.64064 297.78125 250.78125 C 302.33585 255.44056 303.19061 257.38246 301.28125 258.5625 C 299.88129 259.42772 297.81787 259.61095 296.6875 258.96875 C 295.55711 258.32653 296.77025 260.14033 299.375 263 L 304.125 268.1875 L 297.40625 274.6875 C 291.68376 280.25228 272.09375 310.61247 272.09375 313.90625 C 272.09375 317.11445 279.38435 321.3739 289.96875 324.34375 C 302.83661 327.95428 305.70024 331.16486 300.84375 336.53125 C 298.00555 339.66739 298.04337 340.43607 301.40625 345.5625 C 303.42863 348.64543 304.61778 352.44025 304.03125 353.96875 C 303.44472 355.49723 305.38773 359.28822 308.375 362.40625 C 312.9305 367.16117 313.62201 369.20497 312.65625 375.15625 C 310.71043 387.14702 313.67641 390.35308 334.09375 398.40625 C 344.29156 402.42855 358.50686 406.79235 365.6875 408.09375 L 378.71875 410.4375 L 381.0625 419.28125 C 382.34338 424.13513 385.69612 434.1517 388.53125 441.5625 C 394.47337 457.09479 394.94286 466.33836 390.5625 481.40625 C 387.58775 491.63902 387.27052 491.97619 383.84375 488.875 C 381.86538 487.08461 378.65578 485.96909 376.6875 486.375 C 373.89722 486.95041 373.19463 488.69865 373.53125 494.375 C 373.76872 498.37915 373.50065 501.65625 372.9375 501.65625 C 372.37435 501.65625 368.47563 499.67745 364.25 497.25 C 356.57055 492.83845 356.54133 492.82863 352.75 496.75 C 350.6638 498.90774 348.39757 503.46208 347.6875 506.875 C 346.61152 512.04674 347.05627 513.30183 350.4375 514.375 C 354.10183 515.53801 354.22703 516.06183 351.6875 519.6875 C 349.51572 522.78815 349.37004 524.76033 351.03125 528.40625 C 352.92695 532.56688 352.38349 533.91306 346.46875 539.625 C 338.36035 547.45534 321.94559 566.1323 315.15625 575.03125 z M 333 127 C 336.17292 127 338.78125 127.88988 338.78125 128.96875 C 338.78125 130.04762 335.62095 130.90625 331.78125 130.90625 C 327.62654 130.90625 325.30978 130.13611 326.03125 128.96875 C 326.69803 127.88988 329.82707 127 333 127 z M 319.375 144.65625 C 320.45386 144.65625 320.79178 145.54614 320.125 146.625 C 319.45822 147.70387 318.04762 148.5625 316.96875 148.5625 C 315.88989 148.5625 315.55197 147.70387 316.21875 146.625 C 316.88553 145.54614 318.29613 144.65625 319.375 144.65625 z M 327.15625 154.46875 C 328.41659 154.46875 326.0903 158.65663 322 163.78125 C 311.19175 177.32257 311.1745 177.34136 313.8125 170.28125 C 316.54671 162.9637 323.71813 154.46875 327.15625 154.46875 z M 310.28125 178.90625 C 310.39951 178.95031 310.52021 179.13161 310.65625 179.46875 C 311.20043 180.81734 311.20043 183.02642 310.65625 184.375 C 310.11209 185.72359 309.65625 184.63466 309.65625 181.9375 C 309.65625 179.91462 309.92646 178.77407 310.28125 178.90625 z M 294.625 188.75 C 294.95413 188.88747 294.96861 189.22528 294.625 189.78125 C 293.96588 190.84775 292.60894 191.71875 291.59375 191.71875 C 288.77213 191.71875 289.38298 190.33529 292.78125 189.03125 C 293.65413 188.69631 294.29587 188.61253 294.625 188.75 z M 290.40625 212.09375 C 290.93645 212.10711 290.97116 212.87825 290.46875 214.1875 C 289.16471 217.58576 287.78125 218.19659 287.78125 215.375 C 287.78125 214.3598 288.65225 213.00291 289.71875 212.34375 C 289.99674 212.17195 290.22952 212.0893 290.40625 212.09375 z "
     id="path1455" />
</svg>
